<svg width="1453" height="343" viewBox="0 0 1453 343" fill="none" xmlns="http://www.w3.org/2000/svg">
<path d="M973.666 333.226C994.603 328.872 1004.95 324.605 1006.85 300.878C1008.7 277.799 1008.67 255.185 1008.59 232.075L1008.42 86.5908C1008.31 73.6704 1007.92 60.8575 1007.03 47.9688C1006.22 36.365 1004.58 26.1087 993.914 19.2819C988.175 15.6067 981.86 14.3402 975.22 13.3314C974.922 13.2875 974.042 11.6749 974.021 11.3588C973.645 9.35943 973.659 8.49795 974.468 6.61011C983.471 5.26629 1016.19 5.7998 1027 5.7923C1050.82 5.71652 1074.64 5.84332 1098.45 6.17267C1151.83 6.98671 1234.17 8.2271 1244.26 76.2312C1247.04 94.4386 1242.49 113.007 1231.61 127.862C1215.35 149.788 1186.04 160.232 1160.74 167.33C1191.24 199.163 1212.56 241.578 1238.15 277.255C1253.92 299.238 1270.89 329.987 1300.26 333.289C1300.11 336.192 1299.76 340.189 1299.76 343H1211.71C1210.76 339.052 1202.57 327.669 1199.81 323.355C1175.44 285.282 1152.32 244.741 1127.12 207.387C1108.7 180.068 1093.62 181.005 1065.64 180.866C1065.44 204.187 1065.38 227.508 1065.46 250.83C1065.52 270.253 1065.26 289.251 1068.45 308.488C1071.68 327.935 1088.81 331.677 1105.49 333.471L1105.39 343H973.474L973.666 333.226ZM1065.6 170.009C1096.97 169.232 1133.59 164.729 1159.19 145.357C1165.84 139.498 1173.49 132.228 1176.77 124.277C1203.13 60.4406 1157.48 20.5854 1095.55 18.5939C1085.27 18.2633 1075.16 18.0762 1065.49 17.9641L1065.6 170.009Z" fill="black"/>
<path d="M655.585 6.27763C675.511 6.44162 695.438 6.48881 715.361 6.41919C725.592 6.41371 739.732 6.0146 749.671 6.79928C750.998 8.52444 751.119 9.18317 750.459 11.4777C749.501 14.8116 744.336 14.6968 740.98 15.3891C729.827 17.6867 720.477 25.665 718.717 37.2924C715.56 55.7408 715.744 76.9769 715.702 95.7076V241.77C715.73 260.595 715.638 279.553 717.021 298.336C717.497 304.801 718.745 313.936 722.335 319.412C728.16 328.296 740.349 332.612 750.643 333.569L750.572 343H619.381L619.194 333.495C648.01 330.139 656.149 321.453 657.875 292.494C659.456 265.958 659.073 240.103 659.077 213.56L659.048 100.467C659.037 77.5428 658.719 53.977 659.319 31.1394C650.757 50.989 642.144 74.0539 633.736 94.3996C615.297 139.295 596.403 184.002 577.057 228.513L543.992 305.163C540.151 314.152 530.772 334.829 528.876 343H524.158C515.5 324.028 507.026 302.488 498.944 283.038L455.469 178.296L417.128 86.1846C410.675 70.6474 403.177 53.7621 397.398 38.1284C396.839 45.5079 397.428 62.6618 397.418 70.9212L397.352 225.538C397.4 247.512 397.26 267.719 399.682 289.54C402.668 316.451 417.104 329.918 443.275 333.556L443.001 343H340.983C340.848 339.863 340.679 336.727 340.475 333.593C368.401 329.962 379.744 311.629 382.925 284.959C385.432 263.945 385.229 243.357 385.241 222.262L385.249 92.1115C385.251 69.2883 388.747 37.7764 370.546 21.9705C364.303 16.5486 350.52 15.5908 349.312 10.0008C349.848 7.9304 349.484 8.14437 350.777 6.85234C358.939 6.23392 367.899 6.32035 376.112 6.42881C398.766 6.72801 421.712 5.92509 444.33 6.45022C453.058 28.3828 461.984 50.2359 471.108 72.0066L537.536 234.234C541.085 242.924 545.875 253.811 548.769 262.546C584.835 179.405 623.582 90.9902 655.585 6.27763Z" fill="black"/>
<path d="M179.101 0H182.54C188.061 18.0666 195.31 37.933 201.47 56.0131L241.027 171.91L266.469 246.837C272.931 265.836 279.082 285.679 288.018 303.663C295.564 318.85 305.492 330.521 322.744 333.507C322.795 336.642 322.892 339.875 322.893 343H190.489L190.745 333.427C208.172 330.497 229.876 327.244 224.49 303.202C217.087 270.15 201.929 238.358 193.192 205.723C160.344 205.138 122.681 204.908 89.9498 205.767L71.8738 255.86C66.7101 270.226 61.4091 284.262 58.7455 299.349C54.2268 324.943 71.8114 330.598 92.6876 333.449L92.4031 343H0V333.717C19.3141 326.135 27.8901 319.932 38.0253 300.963C47.9299 282.425 54.6223 263.076 61.9619 243.451L123.533 79.2926C128.908 65.0082 138.444 41.7399 142.414 27.7076C154.117 19.1989 169.526 11.9252 179.101 0ZM94.987 193.167L143.491 193.208C158.37 193.192 173.614 193.024 188.462 193.214C181.912 176.402 145.632 63.8802 142.104 61.3834C131.589 93.9018 117.796 127.281 106.864 159.842C103.333 170.36 98.1165 182.794 94.987 193.167Z" fill="black"/>
<path d="M1325.89 333.479C1326.62 333.413 1327.34 333.326 1328.06 333.216C1337.58 331.78 1347.73 328.345 1353.69 320.287C1358.66 313.56 1359.29 300.832 1359.96 292.328C1361.29 275.441 1360.94 257.577 1360.92 240.572L1360.86 167.332L1360.94 99.2193C1360.92 78.5527 1361.03 57.8822 1358.04 37.4543C1356.01 23.6275 1344.34 16.5011 1331.65 14.5541C1329.75 14.2621 1327.98 14.1756 1326.39 13.0198C1326.16 10.3252 1326.18 9.72906 1326.74 7.08537C1329.18 5.79261 1442.14 6.51426 1453 6.53305V13.1452C1432.75 17.705 1422.28 20.7447 1419.9 44.3675C1417.97 63.4684 1418 81.9635 1417.84 101.113L1417.68 182.173C1417.51 209.099 1417.63 236.025 1418.01 262.949C1418.24 275.433 1418.55 298.955 1421.29 311.036C1422.79 317.786 1426.96 323.64 1432.84 327.271C1438.41 330.759 1446.45 332.905 1453 333.349V343H1326.1L1325.89 333.479Z" fill="black"/>
<path d="M798.568 6.4896L888.529 6.39691C893.957 6.39259 921.314 6.07127 924.627 6.91163C928.941 14.4745 920.044 14.6698 915.858 15.4204C906.649 17.0706 898.157 23.5255 894.751 32.3146C889.04 56.5278 890.374 89.9122 890.388 114.577L890.395 179.863C890.388 215.959 889.991 252.042 891.005 288.122C891.736 313.964 896.369 331.391 925.755 333.468L925.436 343H798.128L798.27 333.39C820.548 330.783 829.984 322.945 831.956 300.002C833.609 280.779 833.503 262.242 833.51 242.992L833.46 98.7513C833.439 80.975 833.609 63.9023 831.814 46.1911C829.338 21.7765 820.448 17.7601 798.49 13.4817L798.568 6.4896Z" fill="black"/>
</svg>
