<svg id="Layer_1" data-name="Layer 1" xmlns="http://www.w3.org/2000/svg" viewBox="0 0 638 196.58"><defs><style>.cls-1{fill:#fee2c7;fill-rule:evenodd;}</style></defs><title>Chloé Logo Vector</title><path class="cls-1" d="M280.64,582.22c26.25,0,37.48-15.45,41.24-21.7a198.48,198.48,0,0,0,10.61-21.58c3.06-7.14,5.94-10.32,9.35-10.32,3,0,4.85,2.37,4.85,6.13,0,2-5.64,30.68-5.85,32.07-1.26,7.74-2.4,10.92-4.85,13.5a21,21,0,0,1-5,3.63,104.86,104.86,0,0,1-52.61,14.34c-55.06,0-97.37-41.83-97.37-96.21,0-39.77,20.91-73.39,56.17-90.35A92.84,92.84,0,0,1,284,401.81c24.58,1.13,43.09,14.85,48.31,17.88,8.66,5,7.61,12.85,7.82,15.36.84,10.05,1.34,21.75,1.34,24.38,0,6.69-1.42,9.42-4.94,9.42-3,0-4.64-2-7.28-8.92C319,433.08,302.83,419,282.05,419c-21.68,0-41.78,13.74-51.41,35.15-5.59,12.46-8.31,27.35-8.31,45.54,0,30.38,7.66,53,22.81,67.41C256.91,578.3,269.2,582.22,280.64,582.22Z" transform="translate(-181 -401.71)"/><path class="cls-1" d="M399.11,415.44c0,4.82-.32,55.1-.32,56.25,0,3.74.95,5.53,2.94,5.53,1.39,0,2.53-.56,5.13-2.11A52.07,52.07,0,0,1,432,468.28c9.71-.29,20.59,3.16,26.8,7.69A32.6,32.6,0,0,1,470,491.4c1.52,4.46,1.94,7.94,2,17.12.17,8.07.79,56.85.79,56.85,0,11.47,1.52,15.06,8,19,3.13,1.91,4.07,2.72,4,3.89-.28,3.19-6.08,3.47-17.87,3.47l-29.64.42c-7.07,0-10-.94-10-3.21,0-1.42,1.38-3,4.83-5.69,4.64-3.55,6.64-8,6.64-14.42,0-1.06-.92-66.85-.92-66.85-.2-11.91-10-14.4-17.51-14.69-7.26-.28-15,4.11-18.75,9.11-1.89,2.56-2.27,8.11-2.19,13.51.1,7.4-.32,54.49-.32,55.89q0,7.83,1.78,11.63c1.1,2.29,2.12,3.31,5.75,5.57,4.35,2.72,6.17,4.49,6.17,6,0,2.47-4.06,3.31-8.91,3.31l-39.91,0c-6.57,0-9.54-.94-9.4-3.09.15-2.45,4.7-4.27,6.58-6.36a15.55,15.55,0,0,0,4-9.12c.08-2.56.17-125.77.17-125.77-.29-11.72-2.44-13.37-5.31-15.63-2.71-2.12-4.28-3.63-4.28-5.11,0-1.2,1.21-2.43,4.28-3.55,5.81-2.11,15.64-5.8,19.27-7.82,9.49-5.31,11.18-11,15.92-10.61C399,405.45,399.11,410.65,399.11,415.44Z" transform="translate(-181 -401.71)"/><path class="cls-1" d="M541.29,414.11s1.09,146.9,1.09,148.82c0,9.47.69,14.08,3,17.06,2,2.51,10.89,5,10.34,9.2-.26,2-5.36,2.22-10.49,2.22l-38.58.29c-8.32-.23-10.69-.8-10.69-2.51,0-2,4.55-4.36,7-6.41,3.63-3.08,4.69-4.31,4.69-11.39,0-.77-.52-128.72-.52-128.72,0-4.87-1.78-8.39-5.38-10.63-2.6-1.64-4.62-3.25-3.52-5.42s3.77-3.13,6.9-4A94.18,94.18,0,0,0,517.45,418c4.62-2.07,6.63-3.35,13.28-8.46,2.9-2.23,3.67-3.56,6.27-3.83C539.79,405.45,541.47,407.4,541.29,414.11Z" transform="translate(-181 -401.71)"/><path class="cls-1" d="M790.78,425.34c6.77,1.61,10.2,4.12,10.2,8.82,0,5.82-5.88,12.69-16.23,18.89-7.39,4.42-16.9,7.85-21.8,7.85-2.27,0-7-.17-7-4.43,0-2.18,2.1-4.39,7.29-7.67,3.25-2.05,4.2-2.9,5.45-4.87a11.23,11.23,0,0,0,1.91-6.21c0-3.08-1.07-5.33-3.93-8.28-2.54-2.63-3.53-4.26-3.53-5.85,0-4.18,5.92-5,9.27-3.9C777.32,421.33,790,425.15,790.78,425.34Z" transform="translate(-181 -401.71)"/><path class="cls-1" d="M794.47,536.44c5.31,0,20.33.76,22.72-1.65,2-2,1.81-3.8,1.81-7.47,0-29.27-20.62-58.76-56.08-58.76-38.82,0-61.24,36-61.24,62.39,0,35.33,28.23,63.93,63.13,63.93,18.33,0,36.08-7.49,47.17-19.88,2.76-3.07,4-5.47,4-7.79a5.29,5.29,0,0,0-5.24-5.35c-1.9,0-4,1.19-7.13,4.09-5.34,4.9-20.45,16.07-35.37,12.92-29-6.15-28.47-38.55-27.08-42.45ZM740.86,513c2.51-10.33,6.69-30.17,21.78-30.17,12.29,0,18.16,15.93,19.82,31.57.42,3.88.84,7.53-8.37,7.53l-25.46,0C739.46,521.86,739.46,518.71,740.86,513Z" transform="translate(-181 -401.71)"/><path class="cls-1" d="M628.51,468.32c-46,0-66.8,36.26-66.8,61.72,0,32.35,22.21,65.31,64.69,65.31,36.55,0,64.28-27.64,64.28-63.37C690.68,496.76,662.66,468.32,628.51,468.32Zm.64,112.5c-23.17,0-29.88-24-29.88-49.43,0-32.95,14.8-48.58,25.42-48.58,25.4,0,29.32,28.62,29.32,48.58C654,565.74,641.16,580.82,629.15,580.82Z" transform="translate(-181 -401.71)"/></svg>