<svg data-name="Layer 1" id="Layer_1" viewBox="0 0 550.419105 136.803201" xmlns="http://www.w3.org/2000/svg">
<defs>
<style>
      .cls-1 {
        fill: currentColor;
        stroke-width: 0px;
      }
    </style>
</defs>
<path class="cls-1" d="m44.481852,108.097321c-9.842816,0-14.829012-7.01281-14.829012-34.379877,0-32.068188,6.598158-39.355708,14.829012-39.355708,9.692503,0,14.818642,5.929527,14.818642,7.422277,0,.539049,0,1.078098-.404287,1.078098-.404282,0-2.555292-1.342442-6.333813-1.342442-8.635141,0-14.699433,6.598162-14.699433,14.41436,0,7.956145,6.872865,14.69425,16.311394,14.69425,8.365612,0,15.637585-5.79477,15.637585-15.90711,0-11.055666-10.247102-21.836632-26.553314-21.836632C18.327642,32.884537,0,50.268846,0,71.30209c0,23.044316,17.923355,38.811481,41.371955,38.811481,21.033249,0,29.383315-15.49764,29.383315-31.000464l-1.477199-.134762c0,16.440973-10.516622,29.118976-24.79622,29.118976"></path>
<path class="cls-1" d="m188.319132,99.604717V0h-37.323914v1.746723h3.628204c3.643765,0,5.525245,2.296133,5.525245,5.929527v91.928467c0,3.638577-2.555297,6.333818-6.468576,6.333818h-2.669323c-2.316874-.570148-3.426073-2.861103-3.426073-5.660007V34.773788h-32.617603v1.746733h2.690054c1.207684,0,3.643765.948511,3.643765,4.587085v45.964241c0,10.241915-4.856619,17.254727-10.11234,17.254727-3.36387,0-6.603343-2.301323-6.603343-10.11234v-59.440446h-35.711948v1.746733h5.120964c2.824821,0,3.768151,1.622327,3.768151,5.131324v45.554764c0,15.901922,11.185248,22.769604,22.375686,22.769604,10.10716,0,18.591983-3.498629,21.162831-11.988641v9.697686h75.782929v-1.746723h-3.908109c-3.229093,0-4.8566-2.695242-4.8566-6.333818"></path>
<path class="cls-1" d="m232.800455,103.510226c-1.8815,0-3.37424-.678991-3.37424-5.79477v-61.057587h12.408483v-2.021428h-12.408483V8.217889l-1.746733-.134757c0,14.829002-16.176624,26.553309-29.787592,26.553309h-4.581925v2.021428h7.406736v57.823299c0,10.786149,9.034243,15.497638,20.623782,15.497638,12.667637,0,20.628962-6.60334,20.628962-26.682891h-1.627507c0,13.2015-3.897728,20.21431-7.541483,20.21431"></path>
<path class="cls-1" d="m470.481904,99.604717V34.773788h-37.323934v1.746733h3.628194c3.643775,0,5.525255,2.296133,5.525255,5.939897v57.144298c0,3.638577-2.555277,6.333818-6.468586,6.333818h-4.048036v1.746723h47.456976v-1.746723h-3.913269c-3.244653,0-4.8566-2.695242-4.8566-6.333818"></path>
<path class="cls-1" d="m313.051797,135.046112c-15.041524,0-36.712301-1.88149-36.712301-14.015259,0-6.064294,8.407069-11.08159,15.953752-12.16487,3.913289.80339,10.122701,1.389087,15.233294,1.658611,15.103727.404287,30.337021,1.746723,30.337021,12.128588,0,7.811015-4.991406,12.39293-24.811766,12.39293m1.601586-99.863881c5.463052.196961,7.510401,4.213905,7.510401,21.15246,0,16.513537-1.477199,20.058817-7.510401,20.338707-6.038363-.27989-7.515562-3.825169-7.515562-20.338707,0-16.938555,2.04733-20.9555,7.515562-21.15246m2.850752,52.562388c-17.119975.539049-23.58856.539049-23.58856-5.929532,0-2.840367,2.570857-4.986196,5.934717-5.525245,4.255367,1.420186,9.137908,2.327239,14.160377,2.404988v.00518c.207331,0,.399121.010366.611613.010366h.057023c.196951,0,.404282-.010366.596072-.010366v-.00518c5.038029-.077749,9.905009-.984803,14.175918-2.404988h.015561c1.11956-.373185,2.166556-.813754,3.00104-1.202489-.015541-.005185-.041482-.005185-.057023-.005185,9.16899-4.048046,15.233314-11.060856,15.233314-19.017001,0-6.002091-3.420903-11.454772-8.97724-15.502818h.015541c-4.960285-3.296496-1.627487-10.796517,2.887014-13.870131.160708-.093295.311016-.202141.461324-.290256.015541-.010371.025902-.020731.041442-.031102,4.379774-2.658962,9.500728-4.187994,15.000081-4.187994,5.659983,0,11.003848,1.783005,15.549471,4.825518,1.627487,1.161032,4.089518,3.301676,5.929517,6.603343,2.461992,4.400505,1.627527,7.007634-.539029,6.484136-1.285429-.300626-2.80927-.461305-3.897768-.533868-.046623,0-.077744,0-.119187-.015551-.793022-.046643-1.347632-.057013-1.347632-.057013-7.691811,0-13.932305,6.235333-13.932305,13.921964,0,7.702167,6.240494,13.937505,13.932305,13.937505s15.222953-6.235338,15.222953-13.937505c0-.031102-.01558-.072564-.01558-.108846l.01558.00518c0-.321357-.01558-.632344-.031121-.94334h.031121c0-17.259912-14.118954-31.834951-30.798325-31.834951-11.459992,0-21.437545,6.318277-26.693266,15.642776-4.613007-1.715632-9.889468-2.710795-15.502828-2.741896-.062183-.010361-.134747-.010361-.196951-.010361h-.057023c-.077744,0-.134747,0-.212492.010361-18.073685.088115-32.75237,10.164173-32.75237,22.634849,0,7.956145,6.064284,14.968955,15.233294,19.017001-9.977573,2.14583-19.28135,8.344886-19.28135,17.788595,0,8.215301,4.182804,12.797214,11.320025,15.088169-7.406736,1.487564-14.543937,6.468578-14.543937,12.937159,0,9.972393,12.258155,15.90711,38.666346,15.90711,31.544666,0,43.139385-9.967213,43.139385-26.278607,0-21.701877-21.437506-23.184256-38.687047-22.779975"></path>
<path class="cls-1" d="m455.531609,30.427192c7.691771,0,13.921944-6.235333,13.921944-13.932324s-6.230173-13.932324-13.921944-13.932324c-7.707391,0-13.937524,6.235343-13.937524,13.932324s6.230133,13.932324,13.937524,13.932324"></path>
<path class="cls-1" d="m396.624488,62.945286v23.039131c0,9.034243-6.069504,19.820394-10.247127,19.820394-3.36384,0-3.902909-1.342437-3.902909-16.715683,0-18.058115,6.333818-20.4942,8.754368-22.375686,2.835172-2.14583,4.721833-4.58191,4.991367-4.58191.404301,0,.404301.264339.404301.678991v.134762Zm27.061266,40.185015c-.01558-.057013-.031121-.119211-.041482-.18141-.259174-2.223574-.19697-4.566361-.19697-4.566361v-43.797675c0-14.025619-13.787177-21.297588-31.560226-21.686329,4.659669,8.515935,5.001727,17.291014,4.913623,19.208786-.539029,12.201147-9.842826,15.715325-16.622388,17.441317-7.411916,1.886671-25.734355,2.690059-25.734355,20.483834,0,11.454777,9.288216,19.276162,23.448573,19.276162,9.692518,0,12.802404-3.503815,15.217773-7.147574,2.43609-3.498632,3.244653-7.142392,3.778502-7.142392.404301,0,3.109886,14.69425,20.494215,14.69425,4.452338,0,7.779916-.803388,10.247088-2.30132-2.42051-.264342-3.498607-2.233939-3.944351-4.281289"></path>
<path class="cls-1" d="m519.413488,62.945286v23.039131c0,9.034243-6.064284,19.820394-10.247127,19.820394-3.374201,0-3.913269-1.342437-3.913269-16.715683,0-18.058115,6.333818-20.4942,8.769908-22.375686,2.819631-2.14583,4.701111-4.58191,4.986187-4.58191.404301,0,.404301.264339.404301.678991v.134762Zm27.050905,40.185015c-.01558-.057013-.031121-.119211-.046662-.18141-.253993-2.223574-.19179-4.566361-.19179-4.566361v-43.797675c0-8.707695-5.317924-15.279946-13.595426-18.757842-4.929164-1.959235-10.977907-2.944037-17.804131-2.944037-21.971394,0-32.083754,9.573291-32.083754,19.545694,0,8.89429,6.872887,14.419535,14.165577,14.419535,7.406736,0,13.740554-6.463395,13.740554-14.144831,0-6.473766-4.991367-12.133768-11.729487-12.133768-.539029,0-1.072917.134757-1.477179.134757-.269534,0-.533888-.134757-.533888-.813754,0-2.016248,6.73294-5.525245,12.931991-5.525245s10.112321,2.290952,10.112321,14.424721c0,16.850445-9.573291,18.866693-16.985207,20.758544-7.422277,1.886671-25.749896,2.690059-25.749896,20.483834,0,11.454777,9.308938,19.276162,23.448573,19.276162,9.713239,0,12.817945-3.503815,15.238494-7.147574,2.420549-3.498632,3.239473-7.142392,3.778542-7.142392.326518,0,2.270202,10.184904,12.947492,13.595421,2.140654.684177,4.633767,1.098829,7.531142,1.098829,4.452338,0,7.779916-.803388,10.257448-2.30132-2.43087-.264342-3.493427-2.233939-3.954712-4.281289"></path>
</svg>