<svg width="1798" height="231" viewBox="0 0 1798 231" fill="none" xmlns="http://www.w3.org/2000/svg">
<path d="M330.247 0.735561C347.666 -0.759681 362.52 0.909864 378.747 7.90173C401.443 17.8446 419.273 36.3856 428.326 59.4582C437.787 83.0858 437.474 109.505 427.459 132.901C416.081 158.94 397.665 174.287 371.809 184.396C372.862 185.293 373.941 186.158 375.045 186.991C389.815 198.289 412.747 199.934 430.648 197.515C422.251 207.021 412.722 216.391 403.794 225.465C402.907 226.456 399.974 228.995 398.844 230.032C395.415 229.602 391.992 229.131 388.575 228.619C362.63 224.661 332.619 208.09 316.923 186.791C304.707 183.945 293.221 178.572 283.205 171.019C263.178 156.12 249.902 133.858 246.31 109.15C242.41 84.0838 248.749 58.5014 263.9 38.1597C281.077 15.3045 302.527 4.62044 330.247 0.735561ZM346.605 151.329C377.659 147.711 399.853 119.524 396.093 88.4751C392.333 57.4264 364.054 35.3545 333.034 39.2596C302.216 43.1381 280.327 71.2046 284.063 102.052C287.798 132.898 315.752 154.923 346.605 151.329Z" fill="black"/>
<path d="M1049.55 3.03898L1086.58 3.19768C1098.96 18.4189 1112.17 36.3975 1124.18 52.0306L1175.91 119.104C1176.64 81.3594 1175.92 40.9594 1176.02 3.03806L1213.65 3.10594C1214.24 20.7507 1215.12 180.57 1213.1 186.251L1211.08 186.788L1180.44 186.81C1149.88 146.677 1119.02 106.765 1087.88 67.0775C1087.42 105.423 1089.11 149.008 1087.42 186.788L1049.55 186.765V3.03898Z" fill="black"/>
<path d="M0.195384 2.52253C39.6226 1.9969 80.4696 2.51611 119.981 2.44456C120.542 14.6569 120.334 27.0656 120.273 39.3018C94.3437 39.4 64.2819 38.5193 38.726 39.6155C38.8073 52.1398 38.8075 64.665 38.7268 77.1892C64.9248 77.0103 91.1241 77.0791 117.321 77.3947C117.884 89.5906 117.758 101.155 117.661 113.352C91.3947 113.469 65.1274 113.436 38.861 113.249L38.821 151.206C66.7175 151.406 94.6151 151.381 122.511 151.13C123.058 163.29 122.79 175.966 122.716 188.172C82.0358 187.734 40.5591 189.06 0.37539 187.791C-0.347933 126.383 0.196943 64.0036 0.195384 2.52253Z" fill="black"/>
<path d="M1745.73 2.28583C1761.31 2.19777 1776.89 2.27667 1792.47 2.5216C1772.68 31.9026 1748.32 62.1074 1727.6 91.3343C1750.25 123.422 1775.65 155.095 1797.65 187.475L1784.27 187.402L1751.36 187.705C1736.49 166.579 1719.92 144.769 1704.56 123.848C1689.08 145.24 1673.45 166.527 1657.68 187.707L1610.41 187.508C1633.57 155.273 1656.9 123.167 1680.41 91.1922C1670.7 76.4214 1656.31 58.1969 1645.64 43.6077C1636.76 31.4641 1624.22 13.3873 1614.99 2.36472L1661.92 2.40968C1674.73 16.7704 1690.92 42.5895 1704.2 58.9748C1711.45 47.2247 1736.75 13.0259 1745.73 2.28583Z" fill="black"/>
<path d="M550.361 2.10696L588.998 2.15833C589.392 31.5073 588.912 60.9617 589.033 90.318C589.068 99.1858 588.47 107.868 590.316 116.624C591.94 124.599 595.778 131.955 601.389 137.847C616.993 153.982 645.94 153.824 661.709 138.008C667.643 131.978 671.738 124.383 673.516 116.111C675.808 105.752 674.788 83.4702 674.767 71.8605L674.653 2.13174L713.141 2.16385C713.785 13.2075 713.57 27.2674 713.66 38.5441C713.385 53.8029 713.44 71.7458 713.6 86.9697C713.92 117.609 712.651 140.672 689.893 163.81C674.771 179.277 654.075 188.025 632.448 188.091C610.372 188.255 589.162 179.511 573.61 163.836C545.824 135.918 550.249 103.611 550.26 67.2179L550.361 2.10696Z" fill="black"/>
<path d="M1414.96 0.737395C1429.47 -2.29162 1453.27 4.55254 1466.37 11.4114C1461.55 19.6123 1449.85 34.828 1443.91 42.5124C1388.84 23.5027 1343.78 82.6243 1379.45 132.57L1373.33 141.24C1368.05 148.781 1362.61 156.212 1357.03 163.53C1323.31 127.516 1318.16 79.1495 1346.94 38.4157C1363.73 14.6505 1387.25 5.05158 1414.96 0.737395Z" fill="black"/>
<path d="M1489.21 28.4214C1493.41 29.9111 1500.26 40.0302 1502.8 44.0572C1516.66 65.708 1521.17 92.0435 1515.31 117.072C1509.5 141.498 1494.22 162.613 1472.84 175.772C1450.49 189.587 1424.48 192.542 1399.16 186.576C1391.37 184.355 1387.58 182.944 1380.17 179.677C1387.56 168.777 1394.96 158.795 1402.82 148.236C1405.16 148.888 1407.51 149.498 1409.88 150.065C1454.33 160.774 1491.95 117.491 1475.59 74.8711C1473.23 68.7122 1470.56 64.6484 1467.03 59.1408C1474.19 48.7337 1481.59 38.4909 1489.21 28.4214Z" fill="black"/>
<path d="M865.004 2.48217C877.841 2.39228 890.675 2.50235 903.513 2.81332C904.265 22.3891 903.642 46.1166 903.651 65.9446L903.577 187.885C890.996 187.71 877.726 187.983 865.091 188.049L865.004 2.48217Z" fill="black"/>
</svg>
