<svg width="600" height="80" viewBox="0 0 600 80" fill="none" xmlns="http://www.w3.org/2000/svg">
<path d="M154.4 26.3H125.1C120.1 26.3 116 30.5 115.9 35.8V35.9C115.9 36 115.9 36 115.9 36.1V55.2C115.9 55.3 115.9 55.4 115.9 55.4V79.7H127.1V59.1H151.3V48.4H127.1V37H154.5L154.4 26.3H153.9C154.3 26.3 154.4 26.3 154.4 26.3Z" fill="black"/>
<path d="M311.4 37.2V26.4H309.5C304.4 26.4 300.3 30.8 300.3 36.1V79.7H336.7V69.1H311.5V37.2H311.4Z" fill="black"/>
<path d="M365.1 58H389V47.6H365.1V36.8H392.3V26.4H363.2C358.1 26.4 354 30.8 354 36.1V79.7H392.6V69.3H365.1V58Z" fill="black"/>
<path d="M584.3 47.9C575.8 45.6 573.7 44.5 573.7 41.1V41C573.7 38.5 575.9 36.5 580 36.5C584.1 36.5 588.4 38.4 592.8 41.6L598.4 33C593.4 28.8 587.3 26.4 580.1 26.4C570 26.4 562.9 32.6 562.9 42V42.1C562.9 52.4 569.3 55.3 579.2 58C587.5 60.2 589.2 61.7 589.2 64.6V64.8C589.2 67.8 586.5 69.6 582.1 69.6C576.5 69.6 571.8 67.2 567.4 63.3L561 71.4C566.9 77 574.4 79.7 581.9 79.7C592.5 79.7 600 73.9 600 63.6V63.4C599.9 54.4 594.3 50.7 584.3 47.9Z" fill="black"/>
<path d="M523.6 69.2C515.2 69.2 509.4 61.8 509.4 53V52.8C509.4 44 515.4 36.7 523.6 36.7C528.5 36.7 532.4 38.9 536.2 42.5L543 34.2C538.5 29.5 532.9 26.2 523.7 26.2C508.6 26.2 498.1 38.2 498.1 52.9V53.1C498.1 67.9 508.8 79.6 523.2 79.6C532.7 79.6 538.3 76 543.3 70.4L536.5 63.1C532.6 66.9 529.2 69.2 523.6 69.2Z" fill="black"/>
<path d="M271.8 63.6C271.8 67.6 268.8 69.4 263.9 69.4H250.7V57.7H263.6C269.3 57.7 271.8 59.9 271.8 63.5V63.6ZM250.6 36.6H261.6C266.3 36.6 268.9 38.6 268.9 42.1V42.3C268.9 46.2 265.8 47.9 260.9 47.9H250.6V36.6ZM273.4 51.8C277 49.7 280.1 46.3 280.1 40.3V40.2C280.1 31.9 273.8 26.5 263.6 26.4H249.1C244 26.4 239.9 30.8 239.9 36.1V79.8H263.9C275.4 79.8 282.9 74.9 282.9 65.2V65C282.9 57.8 279.2 54.2 273.4 51.8Z" fill="black"/>
<path d="M419.3 26.3C414.2 26.3 410.1 30.7 410.1 36V37.1H425.5V79.6H436.7V37.1H452.1V26.3H419.3Z" fill="black"/>
<path d="M469.3 36.1V55.2C469.3 55.3 469.3 55.3 469.3 55.4V79.7H480.5V26.4H478.6C473.5 26.3 469.3 30.7 469.3 36.1Z" fill="black"/>
<path d="M195.3 40.1L202.1 57.4H188.6L195.3 40.1ZM190.2 26.4L168.6 79.8H180L184.6 67.9H206L210.6 79.8H222.3L200.7 26.4H190.2Z" fill="black"/>
<path d="M154.4 26.4H125.1C120.1 26.4 116 30.6 115.9 35.9V36C115.9 36.1 115.9 36.1 115.9 36.2V55.3C115.9 55.4 115.9 55.5 115.9 55.5V79.8H127.1V59.2H151.3V48.5H127.1V37.1H154.5L154.4 26.4H153.9C154.3 26.4 154.4 26.4 154.4 26.4Z" fill="black"/>
<path d="M311.4 37.2V26.4H309.5C304.4 26.4 300.3 30.8 300.3 36.1V79.7H336.7V69.1H311.5V37.2H311.4Z" fill="black"/>
<path d="M365.1 58.1H389V47.7H365.1V36.9H392.3V26.5H363.2C358.1 26.5 354 30.9 354 36.2V79.8H392.6V69.4H365.1V58.1Z" fill="black"/>
<path d="M584.3 47.9C575.8 45.6 573.7 44.5 573.7 41.1V41C573.7 38.5 575.9 36.5 580 36.5C584.1 36.5 588.4 38.4 592.8 41.6L598.4 33C593.4 28.8 587.3 26.4 580.1 26.4C570 26.4 562.9 32.6 562.9 42V42.1C562.9 52.4 569.3 55.3 579.2 58C587.5 60.2 589.2 61.7 589.2 64.6V64.8C589.2 67.8 586.5 69.6 582.1 69.6C576.5 69.6 571.8 67.2 567.4 63.3L561 71.4C566.9 77 574.4 79.7 581.9 79.7C592.5 79.7 600 73.9 600 63.6V63.5C599.9 54.5 594.3 50.7 584.3 47.9Z" fill="black"/>
<path d="M523.6 69.3C515.2 69.3 509.4 61.9 509.4 53.1V52.9C509.4 44.1 515.4 36.8 523.6 36.8C528.5 36.8 532.4 39 536.2 42.6L543 34.3C538.5 29.6 532.9 26.3 523.7 26.3C508.6 26.3 498.1 38.3 498.1 53V53.2C498.1 68 508.8 79.7 523.2 79.7C532.7 79.7 538.3 76.1 543.3 70.5L536.5 63.2C532.6 66.9 529.2 69.3 523.6 69.3Z" fill="black"/>
<path d="M271.8 63.7C271.8 67.6 268.8 69.5 263.9 69.5H250.7V57.8H263.6C269.3 57.8 271.8 60 271.8 63.6V63.7ZM250.6 36.7H261.6C266.3 36.7 268.9 38.7 268.9 42.2V42.4C268.9 46.3 265.8 48 260.9 48H250.6V36.7ZM273.4 51.8C277 49.7 280.1 46.3 280.1 40.3V40.2C280.1 31.9 273.8 26.5 263.6 26.4H249.1C244 26.4 239.9 30.8 239.9 36.1V79.8H263.9C275.4 79.8 282.9 74.9 282.9 65.2V65C282.9 57.8 279.2 54.2 273.4 51.8Z" fill="black"/>
<path d="M419.3 26.4C414.2 26.4 410.1 30.8 410.1 36.1V37.2H425.5V79.7H436.7V37.2H452.1V26.4H419.3Z" fill="black"/>
<path d="M469.3 36.1V55.2C469.3 55.3 469.3 55.3 469.3 55.4V79.7H480.5V26.4H478.6C473.5 26.4 469.3 30.7 469.3 36.1Z" fill="black"/>
<path d="M86.1 4.60001C85.3 7.20001 83.8 10.7 81.1 13.5C81.1 13.5 77.7 18.4 69.5 21.8C69.5 21.8 64.3 24.1 55.1 25C55.1 25 47.3 25.9 35.6 25.7C34.7 25.7 33 25.6 33 25.6H32.9C21.4 25.5 16.6 27.5 16.6 27.5C10.9 29.5 7.3 35.7 5.1 41.1C5 41.3 2.3 48.1 0 60.4C0 60.4 0 60.4 0 60.5V32.7C0 31.3 0.0999989 29.8 0.199999 28.4C1.2 19.6 6.2 12.1 13.3 8C14.8 7 21.6 3.99999 32.5 3.89999C35.8 3.89999 54.2 3.69999 62.5 3.39999C81.6 2.69999 87.1 0 87.1 0C86.6 3.1 86.1 4.60001 86.1 4.60001ZM57.9 47C46.7 51.9 26.4 51.2 22.6 52C18.8 52.7 9.6 51.7 2.9 66C4.3 64.2 6.5 63.1 8.9 63.1C13.2 63.1 16.7 66.8 16.7 71.3C16.7 75.8 13.2 79.5 8.9 79.5C5.7 79.5 3 77.5 1.8 74.7C1.7 74.4 1.5 74 1.4 73.7C1.4 73.6 1.3 73.5 1.3 73.3C1.2 73 1.2 72.8 1.2 72.5C1.1 72.2 1.1 71.8 1.1 71.4C1.1 71.1 1.1 70.8 1.1 70.5C1.2 69.5 1.3 68.4 1.4 67.4V67.3C1.4 67.2 1.4 67.1 1.4 67C2.3 60.7 4.3 54.2 4.3 54.2C5.4 50.4 6 49 6.1 48.9C8.3 43.5 12 37.3 17.7 35.3C17.7 35.3 22.5 33.3 34.1 33.4H34.3C35.1 33.4 35.9 33.4 36.8 33.5C48.5 33.7 56.3 32.8 56.3 32.8C65.5 32 71 30.2 75.5 27.1C74.6 30.8 70.9 41.3 57.9 47Z" fill="black"/>
</svg>
