<svg width="1043" height="986" viewBox="0 0 1043 986" fill="none" xmlns="http://www.w3.org/2000/svg">
<path d="M584.825 0L585.287 0.837979C572.614 23.1673 587.375 55.4096 599.412 75.13C610.435 93.1876 621.532 106.982 624.595 128.929C627.545 150.053 624.848 164.484 616.093 183.501C614.984 185.915 615.328 216.319 615.3 221.917L607.221 221.894C586.705 191.32 552.622 181.074 519.485 198.63C504.093 206.823 492.59 220.795 487.506 237.471C482.2 254.947 483.031 273.052 491.805 289.284C501.157 306.361 516.996 318.951 535.744 324.21C554.84 329.734 573.723 324.319 590.534 314.968C589.689 306.811 590.151 290.454 590.207 281.803C582.539 278.629 571.859 275.484 564.664 271.494C563.51 270.854 563.499 269.432 563.381 268.348L564.107 267.63C567.744 267.095 587.922 267.175 592.639 267.35C603.584 267.759 620.89 266.646 631.21 267.682C634.03 271.423 619.066 279.487 616.093 281.997C615.592 300.317 616.983 326.776 615.48 343.854C586.542 371.391 589.025 403.288 600.279 439.132C606.754 459.739 609.816 492.766 590.883 508.125C588.158 510.337 582.793 514.477 579.257 514.156L579.28 513.253C582.787 508.737 586.373 498.992 587.342 493.329C593.304 458.357 571.522 440.344 558.618 412.365C550.291 394.314 546.598 372.323 549.222 352.643C517.824 358.359 504.841 383.764 497.698 412.762C495.966 419.704 495.922 427.127 494.507 434.093C489.361 459.429 481.829 491.105 449.399 487.03C454.671 483.794 459.011 480.591 463.03 475.769C473.571 463.119 475.499 444.901 473.486 429.056C472.39 420.433 470.368 413.389 469.656 404.025C467.871 380.536 467.689 355.85 479.255 334.52C479.97 333.202 485.323 326.886 486.6 325.354L486.534 324.653C480.885 322.253 469.987 323.697 464.054 324.78C442.964 328.629 417.409 349.705 405.907 367.483C390.847 389.112 369.931 413.329 342.044 396.035C375.59 390.612 381.043 364.096 393.559 337.555C406.488 310.136 427.347 275.688 460.094 271.783C440.025 249.537 400.418 255.128 375.131 263.461C351.302 271.313 318.829 280.861 297.158 263.56C295.13 261.941 290.078 255.927 289.944 253.461C292.425 252.524 299.2 255.955 303.658 256.262C312.412 256.875 321.205 255.923 329.624 253.449C348.796 247.898 357.593 240.976 373.503 230.492C397.638 214.59 433.018 202.414 461.135 214.171C456.276 190.111 430.489 177.084 409.059 170.84C387.374 164.523 364.426 161.19 348.062 143.494C338.452 133.102 337.387 124.808 337.995 111.126C361.479 163.166 463.686 117.746 502.681 176.025C504.148 169.419 505.635 162.555 505.833 155.754C506.425 135.389 496.947 115.334 482.69 101.095C478.16 96.8098 473.056 92.694 468.44 88.5466C449.775 71.774 433.287 45.4245 447.065 20.5167C447.72 19.3314 447.916 18.9484 449.133 18.7056C450.164 41.2394 476.009 66.0168 494.558 76.5451C532.4 98.0234 558.196 117.581 560.07 163.673C579.753 145.745 585.692 122.49 579.24 97.1949C571.358 66.3162 547.077 21.915 584.825 0Z" fill="black"/>
<path d="M658.227 622.886C700.666 622.971 732.84 647.918 734.794 691.621C736.736 735.093 702.642 765.647 660.564 766.435C641.422 767.539 620.53 761.105 605.932 748.468C592.189 736.467 583.829 719.468 582.72 701.258C579.786 653.564 612.411 625.504 658.227 622.886ZM665.102 751.772C696.663 748.344 719.419 719.907 715.849 688.368C712.274 656.829 683.737 634.201 652.209 637.916C620.873 641.603 598.421 669.916 601.968 701.264C605.521 732.605 633.738 755.183 665.102 751.772Z" fill="black"/>
<path d="M950.492 625.189C975.331 622.729 1002.69 626.146 1021.65 643.646C1034.52 655.303 1042.11 671.678 1042.69 689.026C1044.13 732.876 1011.58 761.6 969.031 762.625C957.67 762.917 946.967 762.09 935.702 761.831C924.228 761.572 912.833 762.09 901.292 761.527L901.016 760.857C902.294 754.44 914.055 755.076 918.655 751.147C920.513 749.565 920.653 747.73 920.856 745.428C922.01 732.521 922.528 641.873 919.685 637.6C916.33 632.551 903.606 632.484 899.395 627.451L899.496 626.348C902.238 624.457 943.128 625.808 949.889 625.245L950.492 625.189ZM998.638 740.334C1048.2 706.453 1019.96 631.966 955.969 638.051C946.196 639.002 940.544 638.963 940.493 650.136C940.363 680.217 940.634 710.557 941.202 740.621C941.337 747.697 946.089 748.822 952.096 749.779C968.586 751.119 984.316 748.873 998.638 740.334Z" fill="black"/>
<path d="M766.321 622.909C782.265 622.746 799.166 621.8 815.008 623.584C840.157 626.416 853.973 653.654 844.115 676.271C838.35 689.482 826.797 693.867 814.294 698.539C829.173 712.972 842.465 730.489 857.942 744.91C864.501 751.029 875.665 754.98 878.885 759.09C878.705 765.22 857.204 761.673 853.528 760.305C840.934 755.633 830.158 741.764 821.066 731.964C813.545 723.442 805.184 715.381 797.646 706.836C795.27 704.14 793.035 701.568 790.321 699.192C790.203 700.532 790.124 701.877 790.079 703.222C789.832 709.138 789.443 741.24 791.025 747.1C791.763 749.83 807.971 753.174 812.064 757.637L811.974 758.611C809.429 759.917 751.746 760.075 749.691 758.791L749.617 757.632C753.344 751.913 766.062 753.089 770.043 747.19C773.117 742.642 770.622 647.316 769.975 635.416C763.934 631.093 754.076 629.523 749.64 625.639L749.685 624.744C752.956 622.689 762.093 622.993 766.321 622.909ZM789.978 687.574C800.281 687.506 807.853 687.276 816.658 681.286C822.564 676.716 826.426 671.824 827.383 664C828.239 657.251 826.381 650.44 822.209 645.064C815.403 636.373 805.944 634.572 795.552 635.186C793.835 635.703 790.755 636.582 790.507 638.36C788.858 650.125 789.212 676.693 789.978 687.574Z" fill="black"/>
<path d="M158.649 843.54C175.047 842.482 193.504 846.304 204.174 859.853C218.113 877.556 213.292 904.136 195.423 917.325C181.227 927.8 167.059 928.093 150.36 925.824C149.474 935.793 150.186 956.631 150.568 967.011C156.573 972.449 169.83 974.441 172.446 978.995L172.067 980.031C170.006 981.292 167.628 980.926 165.09 980.892L129.91 980.886C123.289 980.881 113.546 981.173 107.306 980.121C112.244 976.169 127.139 971.666 129.688 967.827C132.134 964.146 130.347 870.041 129.824 858.176C125.637 853.791 110.662 849.867 110.313 846.012C111.561 845.083 113.311 844.655 114.853 844.649C129.57 844.599 143.942 844.334 158.649 843.54ZM150.289 911.577C159.668 914.048 169.305 915.095 178.134 909.934C179.024 909.405 179.892 908.836 180.737 908.239C187.367 902.774 191.412 897.606 192.347 888.679C193.189 880.894 190.806 873.104 185.754 867.12C178.373 858.519 167.919 855.688 156.933 856.341C155.18 856.701 151.365 857.41 151.024 859.003C148.29 871.741 150.498 899.216 150.289 911.577Z" fill="black"/>
<path d="M223.088 623.309C228.469 623.23 232.944 623.263 238.356 623.511C241.087 637.105 247.256 651.6 252.414 664.507C257.304 677.003 262.283 689.46 267.349 701.883C271.814 713.034 282.6 742.017 288.433 751.294C292.392 753.258 302.575 757.103 304.302 760.497L303.824 761.527C299.173 763.688 282.692 762.349 276.565 762.63C271.771 762.855 250.143 763.683 246.988 760.812L247.03 759.675C250.384 756.061 258.402 753.928 263.4 752.02C267.102 746.515 251.222 717.261 250.232 708.902L239.234 708.277C231.919 708.097 215.363 707.146 209.086 709.487C206.32 712.268 195.078 745.71 194.061 750.32C199.207 753.703 208.155 756.118 211.644 760.193C211.487 760.806 211.513 761.364 210.959 761.752C208.819 763.272 165.031 763.148 159.645 762.506C158.262 762.343 157.358 762.225 156.48 761.094L156.781 759.833C161.968 753.686 173.441 754.412 176.717 746.273C192.966 705.919 210.593 664.94 223.088 623.309ZM213.986 694.683C219.179 694.757 226.257 694.661 231.286 695.004C235.787 695.015 239.85 695.06 244.35 694.655C241.866 689.066 231.28 659.981 228.604 656.666L213.986 694.683Z" fill="black"/>
<path d="M278.561 841.829C281.99 841.863 291.736 841.052 293.712 842.842C303.91 871.578 314.071 899.869 325.965 928.019C331.756 941.726 336.376 957.076 344.516 969.437C347.245 973.642 360.077 974.779 360.267 979.288L359.84 980.16C356.107 982.097 331.158 980.397 325.662 980.858C322.718 981.106 304.553 981.416 302.459 979.794C302.155 978.196 302.064 978.967 302.9 977.43C307.12 974.447 317.294 972.477 319.368 969.189C320.222 961.123 308.222 937.099 305.677 927.254C290.789 926.522 279.357 926.348 264.351 927.231C260.831 936.682 251.079 960.617 249.816 969.325C254.396 971.34 264.342 975.066 267.331 978.562L267.544 979.958C266.179 981.162 215.46 981.629 212.644 980.07C210.961 974.7 228.473 972.657 231.4 966.426C233.509 961.934 235.742 957.008 237.679 952.297C241.647 942.649 245.505 932.956 249.251 923.218C257.94 900.775 273.565 863.85 278.561 841.829ZM269.715 912.895L285.574 913.581C290.002 913.441 295.456 913.12 299.799 913.373C298.32 909.106 286.07 876.762 284.476 875.141C279.048 887.615 274.897 900.742 269.715 912.895Z" fill="black"/>
<path d="M78.4639 622.858C97.3611 622.312 110.405 624.699 128.065 631.493C127.553 637.848 124.031 668.301 121.183 672.218C116.747 671.7 116.78 650.766 110.047 644.513C102.565 637.561 92.6731 636.835 82.9284 636.553C66.1648 636.069 49.0748 642.261 37.0713 654.093C26.5158 664.569 20.6039 678.838 20.6607 693.704C20.7024 709.938 27.0991 725.513 38.481 737.092C48.8558 747.483 62.6766 752.774 77.2698 752.414C86.2134 752.431 97.7383 751.659 104.471 745C109.816 739.709 108.359 726.932 108.267 719.8L105.182 716.242C101.658 714.773 96.9665 713.366 93.2682 712.144C90.7505 711.351 86.3485 710.523 86.92 707.168C87.644 706.6 89.249 705.885 90.0845 706.031C96.399 707.14 142.865 705.052 144.99 707.619C143.506 711.272 132.918 714.852 128.208 718.539C125.881 722.355 127.552 748.592 127.944 754.288C98.2006 771.642 52.1582 771.169 25.4692 748.254C-3.45284 723.419 -9.39439 679.463 16.2221 650.097C32.5691 631.358 54.6213 624.626 78.4639 622.858Z" fill="black"/>
<path d="M438.339 841.238C451.5 838.925 472.857 843.208 485.597 847.666C485.114 859.42 486.356 876.109 484.242 887.097C477.624 879.492 477.898 873.464 472.822 865.268C469.911 860.562 463.7 857.202 458.292 856.386C440.991 853.785 424.784 854.489 409.878 864.322C397.674 872.225 389.164 884.705 386.267 898.952C382.811 915.489 386.12 932.72 395.456 946.803C403.653 958.995 416.427 967.354 430.88 969.994C447.032 972.933 460.994 969.527 474.301 960.374C478.777 956.423 488.354 937.296 492.395 938.123C494.077 941.85 487.579 970.304 485.949 975.46C459.223 990.039 416.212 987.866 391.935 969.065C360.552 944.76 354.688 900.691 379.923 869.737C394.686 851.624 415.978 843.782 438.339 841.238Z" fill="black"/>
<path d="M858.556 841.249C873.165 839.296 892.217 842.899 905.864 847.706C905.723 852.271 905.469 883.765 904.411 885.498L903.392 885.414C894.44 877.866 899.457 860.309 878.874 856.414C845.027 850.014 812.132 865.809 805.798 901.637C800.343 932.472 820.165 964.838 851.783 970.169C866.865 972.668 881.306 969.696 893.754 960.808C900.639 955.466 907.783 939.165 912.034 937.707L912.715 938.602C913.571 943.555 908.431 970.692 906.021 974.745C899.552 980.864 883.699 982.581 876.256 983.903C809.88 995.685 756.39 927.389 799.926 870.244C813.494 852.434 835.738 843.608 858.556 841.249Z" fill="black"/>
<path d="M594.576 844.559C598.033 844.098 620.778 844.559 625.518 844.587L686.264 844.464C686.535 853.763 686.574 868.448 685.887 878.051C685.831 878.907 685.707 878.789 684.772 879.25C680.679 876.594 675.365 859.453 672.601 858.778C661.938 856.172 648.178 858.553 637.161 856.954C637.695 872.62 635.556 889.675 636.699 904.603C645.842 904.423 657.36 905.003 666.233 904.147C670.585 900.421 675.218 891.319 678.839 890.694L679.869 891.617C681.237 897.933 680.972 934.684 679.835 941.371C675.95 936.052 673.845 930.581 671.165 924.586C669.712 921.721 668.187 918.929 664.786 918.456C656.088 917.229 645.808 917.921 637.025 918.073C637.341 925.599 637.391 933.136 637.172 940.673C637.031 946.539 636.142 962.958 638.219 968.581C639.424 971.846 660.615 975.646 661.009 979.941C660.834 980.042 660.671 980.155 660.485 980.239C658.03 981.308 607.418 981.252 600.808 980.943C598.95 980.858 597.335 980.627 595.595 979.963C594.666 975.871 613.29 972.955 615.474 968.914C616.443 967.118 616.6 964.788 616.747 962.778C617.552 951.7 618.137 862.921 616.082 857.77C614.331 853.397 605.622 851.77 601.495 850.014C598.483 848.725 595.826 847.745 594.576 844.559Z" fill="black"/>
<path d="M309.631 622.785C341.744 620.505 356.282 634.701 370.521 661.433C373.48 666.989 376.749 671.914 379.281 677.83C386.519 665.137 397.241 648.729 403.191 636.632C400.086 634.172 391.014 629.827 390.247 626.393L391.133 625.752C397.027 624.963 444.144 624.744 446.985 626.731C446.203 631.155 429.391 635.18 425.258 637.662C417.792 642.154 394.738 681.906 388.993 690.968C384.208 698.438 386.815 710.107 386.507 718.865C386.24 726.447 386.54 734.199 386.309 741.843C386.252 743.7 386.49 748.749 387.631 750.551C392.646 754.299 404.978 756.602 409.174 760.745L409.106 761.673C405.374 763.503 347.758 763.052 339.914 761.375C346.67 757.097 361.628 753.286 365.062 750.325C365.932 748.693 366.331 747.342 366.55 745.501C366.945 742.18 366.66 738.707 366.783 735.358C367.199 724.004 367.805 711.947 367.004 700.622C366.107 687.946 340.503 647.288 330.152 638.726C327.436 636.48 324.543 634.302 321.403 632.681C317.555 630.694 312.598 629.315 309.33 626.506C308.78 624.519 308.974 625.087 309.631 622.785Z" fill="black"/>
<path d="M473.81 625.656C478.005 624.975 530.767 625.211 532.484 626.376C532.124 632.636 513.772 632.945 510.655 638.49C508.968 641.49 510.166 732.279 510.785 741.432C510.957 743.959 511.476 746.261 512.245 748.67C524.045 748.659 537.99 750.156 548.94 747.832C555.657 741.713 556.349 734.885 561.731 727.973C562.345 727.185 562.244 727.371 563.313 727.382C565.346 730.314 564.479 737.964 564.287 741.814C564.237 744.989 564.124 748.169 563.955 751.339C563.786 754.344 563.589 759.681 561.337 761.701C555.105 763.435 475.537 763.024 468.049 761.82C473.608 757.108 486.368 754.705 489.665 750.432C493.354 745.653 490.417 651.656 489.646 638.36C485.02 634.814 469.25 630.823 469.257 626.838C471.137 625.521 471.162 625.932 473.81 625.656Z" fill="black"/>
<path d="M522.322 844.098C529.427 843.788 569.287 843.051 573.346 845.612C570.914 850.487 552.887 850.954 552.712 860.196C552.07 894.567 552.065 929.297 552.915 963.707C552.937 964.607 553.422 968.683 554.109 969.234C558.342 972.646 570.852 975.224 573.65 979.462L573.183 980.301C570.221 981.241 566.669 980.982 563.51 980.948C553.118 980.768 542.714 980.763 532.321 980.926C525.171 980.976 516.63 981.404 509.712 980.042C514.153 976.777 526.55 971.942 532.417 969.296C532.591 968.086 532.732 966.876 532.839 965.66C533.7 956.136 534.494 859.876 531.876 856.307C528.954 852.327 515.71 850.813 511.494 845.741L511.785 844.948C515.046 844.024 518.894 844.165 522.322 844.098Z" fill="black"/>
<path d="M719.137 844.131C733.978 843.805 748.84 844.008 763.675 844.334C765.972 844.385 768.945 844.064 770.487 845.826C768.658 848.972 755.146 852.693 750.738 855.631C748.165 865.96 748.491 959.44 750.957 969.229C755.895 972.274 769.074 976.175 770.516 979.344L769.84 980.256C767.002 981.297 764.092 980.965 761.001 980.909C749.831 980.644 738.268 981.033 727.07 980.836C721.975 980.746 714.977 981.072 710.062 980.301L709.865 979.22C713.451 973.828 729.631 972.617 730.076 966.482C730.825 956.243 730.774 944.951 730.785 934.622C731.005 913.728 730.847 892.833 730.313 871.944C730.245 868.539 730.374 865.043 730.481 861.632C730.774 852.057 710.963 850.318 708.317 845.651C710.158 843.782 716.57 844.137 719.137 844.131Z" fill="black"/>
<path d="M962.044 824.273L969.307 824.335C971.57 828.641 974.88 837.399 976.845 842.223C979.159 836.251 981.439 830.262 983.685 824.261C986.506 824.402 988.606 824.385 991.381 824.301C991.415 829.733 992.947 848.376 989.163 851.213L987.711 850.892C986.185 848.466 987.114 836.228 986.81 831.922L986.742 831.067C982.599 835.08 981.242 849.592 976.119 851.398C973.236 850.121 972.915 845.505 971.958 842.533C970.438 837.833 968.755 833.183 966.903 828.607C966.604 833.031 967.077 848.167 965.827 850.745C964.183 851.038 964.2 850.926 962.545 850.509C961.447 848.038 962.005 828.41 962.044 824.273Z" fill="black"/>
<path d="M937.076 824.408C940.966 824.543 956.606 823.288 958.486 825.449C958.419 827.813 958.779 827.188 957.574 828.821C955.367 829.637 952.817 829.097 950.379 828.849C950.323 832.446 950.036 836.375 949.844 839.994C949.9 843.034 950.25 848.128 949.445 850.847C947.874 851.348 948.082 851.168 946.314 850.948C944.518 848.775 945.216 833.133 945.076 828.956C942.249 828.849 939.632 829.581 937.267 828.28C936.439 826.406 936.749 826.794 937.076 824.408Z" fill="black"/>
</svg>
