<?xml version="1.0" encoding="UTF-8"?>
<svg width="90px" height="30px" viewBox="0 0 90 30" version="1.1" xmlns="http://www.w3.org/2000/svg" xmlns:xlink="http://www.w3.org/1999/xlink">
    <!-- Generator: Sketch 54.1 (76490) - https://sketchapp.com -->
    <title>logo_JINS</title>
    <desc>Created with Sketch.</desc>
    <g id="logo_JINS" stroke="none" stroke-width="1" fill="none" fill-rule="evenodd">
        <path d="M79.2348066,0.199159664 C80.3297886,-0.050323515 81.4645965,-0.0606360015 82.5638122,0.168907563 C84.7131759,0.507318346 86.6584714,1.6528677 88.0135359,3.37815126 C88.4610497,3.9302521 88.8140884,4.56302521 89.2566298,5.21848739 L84.1151934,7.63613445 C83.2226519,6.22436975 82.0541436,5.53361345 80.458011,5.82857143 C79.4635359,6.01008403 78.6928177,6.52689076 78.3596685,7.55294118 C78.009116,8.63193277 78.4864641,9.46638655 79.2447514,10.187395 C79.474731,10.4011802 79.7245058,10.5919792 79.9906077,10.7571429 C81.0298343,11.4201681 82.0964088,12.0403361 83.1281768,12.7184874 C84.5104972,13.6285714 85.9450276,14.4831933 87.2179558,15.5369748 C88.848895,16.8882353 89.8906077,18.6554622 89.9527624,20.8714286 C90.0497238,24.8067227 87.2179558,28.487395 83.4439227,29.407563 C83.0759669,29.4983193 83.4439227,29.407563 83.0759669,29.4983193 C81.8111775,29.8219587 80.4896816,29.8443927 79.2149171,29.5638655 C78.6322234,29.4124673 78.0593092,29.2247148 77.4994475,29.0016807 C75.0356354,28.0436975 73.3251381,26.2537815 72.0969613,23.8109244 L77.0444751,21.4638655 C77.8599448,22.197479 78.5361878,22.9285714 79.3143646,23.4806723 C80.271547,24.1386555 81.370442,24.1260504 82.4370166,23.6848739 C84.0406077,23.0218487 84.5055249,21.1638655 83.3892265,19.8352941 C83.0525436,19.4321273 82.6577634,19.0828129 82.218232,18.7991597 C80.4406077,17.6571429 78.6406077,16.5453782 76.8406077,15.4386555 C74.8914365,14.2386555 73.4022099,12.6478992 72.8428177,10.3563025 C71.5997238,5.2210084 74.7671271,1.19243697 79.2571823,0.206722689" id="Shape" fill="#DA0024"></path>
        <path d="M10.4395028,29.5815126 C9.45103551,29.742725 8.44318543,29.7384668 7.45607735,29.5689076 C4.3558011,29.0647059 2.0859116,27.3605042 0.459944751,24.6932773 C0.32320442,24.4689076 0.156629834,24.2596639 0.00497237569,24.0453782 L0.00497237569,23.7705882 L5.06933702,21.4084034 C5.35773481,21.7739496 5.62127072,22.1420168 5.92209945,22.4798319 C6.64060773,23.2865546 7.49834254,23.8588235 8.60469613,23.9319328 C10.7254144,24.0756303 12.3339779,22.5680672 12.3339779,20.402521 L12.3339779,2.68487395 L12.3339779,0.64789916 L17.9502762,0.64789916 L17.9502762,1.38403361 C17.9502762,7.72689076 17.9154696,14.0697479 17.9502762,20.412605 C17.9975138,25.3235294 14.4198895,29.0117647 10.4395028,29.5815126" id="Shape" fill="#DA0024"></path>
        <polygon id="Shape" fill="#DA0024" points="47.158011 10.2529412 47.158011 29.105042 41.9643646 29.105042 41.9643646 0.640336134 47.540884 0.640336134 60.0538674 19.5857143 60.2005525 19.5478992 60.2005525 0.657983193 65.3991713 0.657983193 65.3991713 29.0823529 59.8176796 29.0823529 47.3345304 10.197479"></polygon>
        <polygon id="Shape" fill="#DA0024" points="27.1541436 20.5336134 27.1541436 0.66302521 32.690884 0.66302521 32.690884 20.5336134"></polygon>
        <polygon id="Shape" fill="#DA0024" points="32.7033149 29.105042 27.1640884 29.105042 27.1640884 23.5084034 32.7033149 23.5084034"></polygon>
    </g>
</svg>