<svg fill="#000" class="Header_main_logo_img__4SJER" tabindex="0" viewBox="0 0 186 36" xmlns="http://www.w3.org/2000/svg"><title>Desktop</title><g fill="#000" stroke="none" stroke-width="1" fill-rule="evenodd"><path d="M.643 18.124C.643 7.386 8.903.443 19.166.443c9.92 0 17.936 6.572 17.936 17.126 0 10.739-8.26 17.682-18.523 17.682C8.61 35.25.643 28.678.643 18.124ZM19.068 34.51c8.162 0 14.32-6.526 14.32-16.478 0-10.09-6.403-16.849-14.613-16.849-8.309 0-14.418 6.573-14.418 16.479 0 10.09 6.354 16.848 14.71 16.848ZM43.612 1.686h3.376V34.42h1.142a54.17 54.17 0 0 0 12.31-1.476h.1l-.844 2.306H43.612V1.686ZM67.05 1.686h2.605V35.25H67.05zM76.165 1.686h3.494l11.412 28.4 5.823-14.313c3.028-7.429 3.96-10.916 4.425-14.087h2.47c-2.05 4.53-3.914 9.286-6.01 14.404L90 35.25h-.186L76.165 1.687ZM110.02 1.686h19.339l.578 2.12h-.096a73.817 73.817 0 0 0-13.455-1.29h-3.087v14.846h2.797c5.209 0 8.536-.185 10.272-.507h.097v1.936h-.097c-1.736-.323-5.063-.6-10.272-.6H113.3v16.23h3.135a72.438 72.438 0 0 0 14.323-1.383h.097l-.82 2.213H110.02V1.686ZM137.364 1.686h3.376V34.42h1.141a54.17 54.17 0 0 0 12.311-1.476h.1l-.844 2.306h-16.084V1.686ZM163.176 20.313l8.067-19.87h.193l14.106 34.808h-3.575l-4.54-11.321h-14.638c-2.174 5.543-2.898 8.55-3.333 11.32h-2.56c2.125-4.697 4.106-9.63 6.28-14.937Zm13.912 2.771-7.004-17.333-5.99 14.89-.967 2.443h13.961Z"></path></g></svg>