<?xml version="1.0" encoding="UTF-8" standalone="no"?>
<!-- Created with Inkscape (http://www.inkscape.org/) -->

<svg
   version="1.1"
   id="svg2"
   xml:space="preserve"
   width="1000"
   height="303.03436"
   viewBox="0 0 1000 303.03436"
   sodipodi:docname="RuPaul's_Drag_Race.svg"
   inkscape:version="1.1.2 (b8e25be833, 2022-02-05)"
   xmlns:inkscape="http://www.inkscape.org/namespaces/inkscape"
   xmlns:sodipodi="http://sodipodi.sourceforge.net/DTD/sodipodi-0.dtd"
   xmlns="http://www.w3.org/2000/svg"
   xmlns:svg="http://www.w3.org/2000/svg"><defs
     id="defs6"><clipPath
       clipPathUnits="userSpaceOnUse"
       id="clipPath18"><path
         d="m 3184.74,3691.55 h 37.55 l 15.29,32.22 h 21.12 l -3.46,-32.22 h 38.41 l 7.97,116.43 h -56.49 z m -399.97,3.35 c -196.17,0 -363.23,71.04 -448.81,184.12 l -49.94,-182.84 -121.19,-0.61 141.39,536.2 134.26,0.07 c 192.26,0 169.04,-221.54 48.79,-298.89 -33.02,-22.09 -70.63,-30.78 -104.91,-33.17 71.69,-54.8 186.31,-87.59 335.72,-87.59 34.66,0 60.14,0 96.57,0 l 113.99,419.36 135.82,0.29 c 192.26,0 169.04,-221.54 48.8,-298.89 -47.61,-31.85 -104.77,-35.85 -147.72,-33.25 l -55.75,-205.07 z m -434.59,236.19 c 4.54,-5.03 9.37,-9.93 14.48,-14.7 34.26,-1.12 69.79,3.05 101.3,21.77 50.08,29.75 80.53,96.82 68.52,151.62 -9.48,43.23 -47.32,75.65 -106,75.65 h -14.29 z m 622.18,-13.64 c 39.66,-3.21 82.43,-1.37 119.58,20.71 50.08,29.75 80.54,96.82 68.52,151.62 -9.48,43.23 -47.32,75.65 -106,75.65 h -14.69 z m 911.16,27.21 c -3.23,-3.93 -6.81,-6.85 -10.73,-8.84 -3.9,-1.97 -8.06,-2.96 -12.45,-2.96 -6.77,0 -11.65,2.09 -14.62,6.27 -2.97,4.18 -3.54,9.71 -1.72,16.62 1.83,6.95 5.32,12.51 10.49,16.72 5.17,4.21 11.15,6.31 17.93,6.31 7.52,0 12.89,-2.83 16.1,-8.52 3.21,-5.7 3.66,-12.99 1.32,-21.9 -2.68,-10.2 -7.82,-18.3 -15.43,-24.34 -7.61,-6.08 -16.54,-9.11 -26.77,-9.11 -1.16,0 -2.03,0 -2.61,0.04 -0.55,0.03 -1.1,0.1 -1.61,0.16 l 1.32,5.02 c 0.51,-0.07 1.1,-0.13 1.76,-0.17 0.66,-0.03 1.67,-0.03 3.02,-0.03 8.29,0 15.17,2 20.66,5.98 5.51,3.99 9.97,10.26 13.34,18.75 z m 19.85,-82.09 -8.07,17.42 c -3.7,8.24 -6.04,15.28 -7.01,21.13 -0.97,5.82 -0.75,11.42 0.66,16.75 2.52,9.62 7.81,17.52 15.87,23.7 8.06,6.2 17.13,9.29 27.27,9.29 7.49,0 13.87,-1.7 19.1,-5.07 5.22,-3.38 7.43,-6.63 6.6,-9.78 -0.25,-0.94 -0.75,-1.74 -1.51,-2.45 -0.77,-0.67 -1.55,-1.02 -2.36,-1.02 -0.45,0 -2.6,2.02 -6.51,6.07 -3.9,4.05 -8.25,6.08 -13.05,6.08 -2.22,0 -4.19,-0.64 -5.91,-1.93 -1.7,-1.29 -2.83,-2.99 -3.4,-5.15 -0.75,-2.82 0.36,-7.26 3.34,-13.27 0.36,-0.78 0.63,-1.36 0.81,-1.8 l 10.42,-21.77 c 2.83,-5.92 4.61,-11.64 5.34,-17.21 0.73,-5.56 0.43,-10.9 -0.92,-16.08 -2.56,-9.71 -7.9,-17.65 -16.04,-23.76 -8.15,-6.14 -17.56,-9.19 -28.26,-9.19 -4.46,0 -8.83,0.9 -13.11,2.73 -4.26,1.8 -8,4.37 -11.22,7.69 -1.36,1.31 -2.27,2.63 -2.76,3.92 -0.5,1.28 -0.62,2.54 -0.29,3.79 0.28,1.06 0.8,1.99 1.48,2.73 0.72,0.75 1.43,1.13 2.22,1.13 0.96,0 2.11,-1 3.45,-3.02 1.35,-2 2.42,-3.45 3.2,-4.31 2.49,-2.64 5.02,-4.67 7.64,-6.05 2.61,-1.38 5.17,-2.06 7.69,-2.06 2.64,0 4.88,0.55 6.69,1.65 1.84,1.09 3,2.6 3.5,4.47 0.49,1.89 -0.8,6.26 -3.89,13.08 -0.38,0.9 -0.72,1.64 -0.97,2.29 z m -125.05,269.07 c 0.4,1.55 2.19,8.57 5.25,20.9 3.05,12.34 5.87,23.76 8.52,34.3 h 101.41 c -3.26,-11.93 -6.69,-24.01 -10.18,-36.09 -3.51,-12.17 -5.31,-18.54 -5.46,-19.11 l -62.9,-239.16 c -0.14,-0.57 -1.73,-7.1 -4.67,-19.44 -2.95,-12.41 -5.83,-24.33 -8.77,-36 h -101.43 c 2.86,10.37 6.05,21.8 9.53,34.29 3.47,12.49 5.4,19.6 5.81,21.15 z m -31.4,-18.29 c -3.24,-11.84 -6.67,-23.92 -10.22,-36.26 -3.58,-12.4 -5.4,-18.86 -5.57,-19.51 l -43.48,-165.35 c -0.18,-0.65 -1.75,-7.1 -4.67,-19.43 -2.91,-12.25 -5.8,-24.17 -8.72,-35.76 l -101.49,-0.25 c 0.63,2.37 1.57,5.72 2.81,9.96 3.99,13.72 6.64,23.11 7.93,28.01 -19.58,-14.94 -37.59,-26.05 -54.01,-33.23 -16.49,-7.27 -31.84,-10.86 -46.11,-10.86 -11.52,0 -21.5,2.04 -29.98,6.21 -8.55,4.16 -14.52,9.79 -18.02,16.98 -4.27,8.24 -6.35,17.96 -6.1,29.14 0.23,11.11 3.89,30.05 10.94,56.84 l 1.2,4.57 29.76,113.17 c 0.17,0.65 1.75,7.11 4.65,19.35 2.93,12.33 5.86,24.42 8.89,36.42 h 101.42 c -2.9,-10.53 -6.11,-22.05 -9.6,-34.62 -3.48,-12.5 -5.39,-19.52 -5.82,-21.15 l -45.88,-174.49 c -1.89,-7.18 -2.12,-12.33 -0.74,-15.43 1.37,-3.11 4.47,-4.66 9.35,-4.66 5.89,0 13.02,2.37 21.38,7.02 8.39,4.74 19.65,12.82 33.82,24.34 l 42.93,163.22 c 0.43,1.63 2.21,8.65 5.31,21.15 3.12,12.57 5.96,24.09 8.6,34.62 z m -417.45,-127.71 c -4.28,6.13 -9.29,10.86 -15.15,14.29 -5.8,3.43 -11.86,5.15 -18.06,5.15 -5.76,0 -10.56,-2.53 -14.37,-7.51 -3.84,-5.07 -7.26,-13.31 -10.28,-24.83 l -25.64,-97.49 c -2.15,-8.16 -2.86,-13.96 -2.07,-17.39 0.73,-3.43 2.9,-5.15 6.6,-5.15 5.76,0 12.99,2.29 21.71,6.86 8.69,4.5 18.47,11.19 29.36,20 z m -39.08,-148.6 6.4,24.33 c -14.88,-11.6 -28.66,-20.17 -41.16,-25.56 -12.56,-5.39 -24.73,-8.08 -36.43,-8.08 -25.17,0 -42.92,9.15 -53.3,27.52 -10.39,18.37 -11.63,42.7 -3.66,72.99 7.54,28.67 21.94,51.77 43.13,69.24 21.24,17.48 45.52,26.22 72.88,26.22 10.52,0 20.37,-1.56 29.63,-4.66 9.27,-3.1 18.15,-7.92 26.57,-14.45 l 14.96,56.91 c 4.1,15.59 3.98,26.78 -0.33,33.48 -4.38,6.69 -13.45,10.04 -27.29,10.04 -12.08,0 -22.57,-1.79 -31.55,-5.47 -8.98,-3.67 -18.27,-9.96 -27.83,-18.94 -1.43,-1.39 -3.53,-3.43 -6.14,-5.96 -11.01,-10.7 -19.11,-16.01 -24.36,-16.01 -2.7,0 -4.65,1.15 -5.8,3.43 -1.16,2.29 -1.3,5.06 -0.47,8.25 3.49,13.23 16.99,25.31 40.61,36.34 23.63,11.02 49.98,16.49 79.09,16.49 17.78,0 33.61,-1.96 47.48,-5.88 13.86,-3.92 24.61,-9.23 32.07,-16.09 5.77,-5.47 10.23,-10.86 13.33,-16.25 3.13,-5.47 5.19,-11.43 6.29,-17.96 0.76,-4.74 0.33,-11.84 -1.14,-21.23 -1.55,-9.47 -4.12,-21.15 -7.81,-35.19 l -30.43,-115.7 c -3.48,-13.23 -5.58,-24.09 -6.38,-32.58 -0.75,-8.57 -0.62,-16.91 0.38,-25.23 z m -422.4,276.31 c -3.24,-11.84 -6.67,-23.92 -10.22,-36.26 -3.58,-12.4 -5.4,-18.86 -5.57,-19.51 l -43.49,-165.35 c -0.17,-0.65 -1.74,-7.1 -4.67,-19.43 -2.9,-12.25 -5.79,-24.17 -8.72,-35.76 l -101.48,-0.25 c 0.62,2.37 1.57,5.72 2.81,9.96 3.98,13.72 6.64,23.11 7.92,28.01 -19.57,-14.94 -37.58,-26.05 -54,-33.23 -16.49,-7.27 -31.84,-10.86 -46.11,-10.86 -11.52,0 -21.5,2.04 -29.99,6.21 -8.54,4.16 -14.51,9.79 -18.01,16.98 -4.28,8.24 -6.35,17.96 -6.1,29.14 0.23,11.11 3.89,30.05 10.94,56.84 l 1.2,4.57 29.76,113.17 c 0.17,0.65 1.74,7.11 4.65,19.35 2.93,12.33 5.86,24.42 8.89,36.42 h 101.42 c -2.9,-10.53 -6.11,-22.05 -9.61,-34.62 -3.47,-12.5 -5.38,-19.52 -5.81,-21.15 l -45.89,-174.49 c -1.88,-7.18 -2.11,-12.33 -0.73,-15.43 1.37,-3.11 4.47,-4.66 9.35,-4.66 5.88,0 13.02,2.37 21.38,7.02 8.38,4.74 19.65,12.82 33.82,24.34 l 42.92,163.22 c 0.43,1.63 2.22,8.65 5.31,21.15 3.12,12.57 5.97,24.09 8.61,34.62 z m 604.03,-421.8 h 37.95 l 13.56,48.09 h 2.99 c 15.54,0 -0.23,-36.05 5.78,-48.09 h 38.4 c -4.24,18.33 11.87,53.31 -10.03,57.86 l 0.28,1.06 c 16.91,5.07 23.95,11.59 28.3,27.03 6.48,22.68 -6.78,30.48 -30.31,30.48 h -54.06 z m 65.47,97.58 h 5 c 8.78,0 10.06,-7.41 8.37,-15.02 -1.81,-8.05 -7,-16.34 -18.84,-16.34 h -3.38 z m -465.61,-97.58 h 37.95 l 13.56,48.09 h 2.99 c 15.54,0 -0.23,-36.05 5.78,-48.09 h 38.4 c -4.24,18.33 11.87,53.31 -10.02,57.86 l 0.27,1.06 c 16.91,5.07 23.96,11.59 28.3,27.03 6.48,22.68 -6.77,30.48 -30.31,30.48 h -54.06 z m 65.48,97.58 h 4.99 c 8.78,0 10.07,-7.41 8.36,-15.02 -1.8,-8.05 -6.99,-16.34 -18.83,-16.34 h -3.38 z m 287.77,-18.91 1.33,4.55 c 5.21,25.16 -9.19,36.95 -40.14,36.95 -15.66,0 -27.17,-2.54 -36,-8.05 -15.41,-9.63 -22.68,-27.65 -29.65,-52.29 -7.24,-28.03 -10.08,-62.59 26.67,-62.59 10.36,0 17.67,4.23 23.4,9.67 l -1.26,-6.45 h 35.91 l 17.74,64.11 h -47.62 l -5.63,-20.56 h 11.82 c -2.87,-9.56 -5.95,-18.03 -8.9,-21.4 -3.39,-3.85 -8.62,-4.84 -11.98,-4.34 -5.63,0.86 -7.94,7.99 -5.61,21.01 1.47,8.12 2.83,12.6 5.02,20.55 4.62,16.42 8.38,26.37 11.31,31.48 2.92,5.11 6.33,7.51 11.85,7.51 7.22,0 6.34,-9.37 4.56,-16.16 l -1.1,-3.73 z m -408.88,18.91 h 6.99 c 17.86,0 7.65,-29.15 4.32,-40.84 -3.44,-12.17 -8.59,-36.75 -26.34,-37.21 h -7.01 z m -65.49,-97.58 h 57.65 c 36.55,0 47.35,21.07 56.93,56.82 6.91,25.8 12.25,59.61 -27.16,59.61 h -54.57 z m 863.98,0 h 74.42 l 6.92,24.79 h -36.41 l 6.49,23.15 h 31.56 l 6.91,23.81 h -31.57 l 5.42,19.9 h 34.59 l 7.13,24.78 h -72.61 z m 4.86,78.67 1.34,4.55 c 5.21,25.16 -9.19,36.95 -40.15,36.95 -15.65,0 -27.16,-2.54 -35.99,-8.05 -15.41,-9.63 -22.69,-27.65 -29.66,-52.29 -4.61,-17.85 -7.23,-35.86 1.22,-48.13 5.85,-8.52 17.4,-14.79 35.93,-14.79 33.05,0 51.14,15.09 57.8,42.22 l 0.25,0.87 h -38.64 c -2.25,-7 -4.18,-13.1 -6.1,-16.03 -2.56,-3.91 -5.32,-4.9 -9.9,-4.9 -9,0 -7.3,13.04 -6.02,20.21 1.47,8.12 2.84,12.6 5.03,20.55 4.61,16.42 8.38,26.37 11.3,31.48 2.92,5.11 6.33,7.51 11.85,7.51 7.22,0 6.35,-9.37 4.57,-16.16 l -1.11,-3.73 z m -237.25,-78.67 h 37.54 l 15.3,32.22 h 21.11 l -3.45,-32.22 h 38.41 l 7.97,116.43 h -56.49 z m 63.74,55.19 16.38,34.53 -3.7,-34.53 z m -397.61,0 16.39,34.53 -3.71,-34.53 z"
         id="path16" /></clipPath><linearGradient
       x1="306.14001"
       y1="418.04199"
       x2="306.142"
       y2="369.73801"
       gradientUnits="userSpaceOnUse"
       gradientTransform="scale(10)"
       spreadMethod="pad"
       id="linearGradient26"><stop
         style="stop-opacity:1;stop-color:#ff75b4"
         offset="0"
         id="stop20" /><stop
         style="stop-opacity:1;stop-color:#e3538b"
         offset="0.476563"
         id="stop22" /><stop
         style="stop-opacity:1;stop-color:#912556"
         offset="1"
         id="stop24" /></linearGradient><clipPath
       clipPathUnits="userSpaceOnUse"
       id="clipPath68"><path
         d="m 3242.61,4386.08 -1.71,-16 13.69,-16.34 h 38.55 l 8.01,116.88 -17.54,6.69 h -52.02 l -55.62,-107.23 7.85,-16.34 h 37.69 l 15.35,32.34 z m -460.29,-28.97 -18.38,0.2 -18.19,0.62 -18.01,1.03 -17.8,1.43 -17.58,1.83 -17.38,2.22 -17.14,2.6 -16.91,2.98 -16.66,3.36 -16.4,3.73 -16.14,4.09 -15.85,4.45 -15.57,4.81 -15.27,5.16 -14.97,5.5 -14.65,5.83 -14.33,6.17 -13.99,6.49 -13.64,6.82 -13.3,7.13 -12.93,7.45 -12.55,7.75 -12.18,8.05 -11.77,8.35 -11.38,8.64 -10.97,8.91 -8.47,7.4 -31.62,-115.76 -66.64,-15.96 -121.65,-0.62 141.94,538.26 134.76,0.07 17.47,-0.64 16.22,-1.88 14.99,-3.04 13.8,-4.15 12.6,-5.18 11.45,-6.15 46.7,-26.7 9.47,-6.46 8.44,-7.23 7.43,-7.93 6.46,-8.57 5.49,-9.15 4.55,-9.67 3.63,-10.12 2.73,-10.52 0.26,-1.55 h 86.08 l 31.73,-18.62 -0.5,-1.83 -0.52,-1.85 -0.51,-1.87 -0.53,-1.89 -0.53,-1.92 -0.54,-1.93 -0.54,-1.96 -0.55,-1.99 -0.55,-2 -0.57,-2.02 -0.57,-2.05 -0.57,-2.07 -0.58,-2.09 -0.59,-2.11 -0.6,-2.14 -0.6,-2.16 -1.13,-4.08 -1,-3.6 -0.86,-3.14 -0.73,-2.67 -0.61,-2.2 -0.47,-1.73 -0.34,-1.26 -0.21,-0.8 -42.26,-160.7 -0.58,-2.39 -0.44,-2.21 -0.29,-2.05 -0.16,-1.86 -0.01,-1.69 0.02,-0.22 1.61,1.04 1.89,1.24 1.95,1.33 2.02,1.4 2.09,1.49 2.15,1.57 2.22,1.64 2.3,1.73 2.35,1.8 2.43,1.89 2.5,1.96 2.57,2.05 2.63,2.12 43.09,163.85 0.22,0.87 0.36,1.38 0.47,1.88 0.61,2.4 0.73,2.91 0.85,3.42 0.98,3.93 1.11,4.45 0.58,2.35 0.58,2.33 0.57,2.3 0.57,2.28 0.55,2.26 0.56,2.23 0.54,2.21 0.55,2.18 0.53,2.16 0.53,2.13 0.53,2.11 0.52,2.09 0.51,2.07 0.51,2.03 0.5,2.02 0.51,2 h 101.8 l 18.41,-18.62 -0.56,-2.04 -0.57,-2.05 -0.56,-2.07 -0.58,-2.06 -0.58,-2.07 -0.58,-2.07 -0.58,-2.08 -0.59,-2.08 -0.59,-2.09 -0.59,-2.09 -0.6,-2.11 -0.6,-2.1 -0.61,-2.11 -0.6,-2.12 -0.61,-2.12 -0.62,-2.12 -1.16,-4.03 -1,-3.52 -0.86,-3 -0.71,-2.5 -0.57,-1.99 -0.42,-1.48 -0.27,-0.98 -0.14,-0.48 -40.04,-152.27 -0.12,-0.48 -0.24,-0.98 -0.36,-1.48 -0.48,-1.98 -0.59,-2.49 -0.72,-2.99 -0.84,-3.5 -0.95,-4 -0.5,-2.11 -0.5,-2.11 -0.5,-2.09 -0.51,-2.09 -0.5,-2.09 -0.5,-2.08 -0.5,-2.06 -0.5,-2.07 -0.5,-2.05 -0.5,-2.05 -0.5,-2.04 -0.51,-2.03 -0.5,-2.03 -0.5,-2.02 -0.51,-2.01 -0.5,-2.01 -24.43,-4.28 -101.87,-0.25 0.25,0.94 0.28,1.02 0.31,1.13 0.33,1.2 0.37,1.3 0.4,1.39 0.42,1.46 0.46,1.56 1.15,3.98 -2.32,-1.21 -2.92,-1.45 -2.89,-1.37 -2.85,-1.28 -2.83,-1.22 -2.82,-1.13 -2.78,-1.06 -2.76,-0.98 -2.75,-0.9 -2.71,-0.82 -2.69,-0.74 -2.66,-0.66 -2.64,-0.59 -2.62,-0.5 -2.59,-0.43 -2.57,-0.35 -39.35,-4.76 -2.77,-0.3 -2.76,-0.21 -0.28,-0.01 0.71,-0.14 10.65,-1.92 10.85,-1.76 11.05,-1.59 11.26,-1.44 11.46,-1.28 11.64,-1.11 11.85,-0.94 12.04,-0.78 12.24,-0.61 12.43,-0.44 12.61,-0.26 12.81,-0.09 h 2.97 2.91 2.89 2.84 2.8 2.77 2.75 2.71 2.69 2.68 2.66 2.65 2.63 2.64 2.63 2.63 2.64 2.65 2.65 2.67 2.69 2.71 2.74 2.77 2.62 l 112.7,414.63 136.35,0.28 17.46,-0.64 16.22,-1.88 15,-3.04 13.78,-4.15 12.61,-5.18 11.46,-6.15 10.31,-7.04 9.21,-7.89 8.1,-8.64 7.04,-9.35 5.99,-9.97 4.96,-10.53 3.95,-11.03 2.97,-11.47 2,-11.83 1.07,-12.11 0.14,-12.35 -0.75,-12.51 -1.63,-12.6 -2.48,-12.62 -3.31,-12.58 -4.12,-12.49 -4.91,-12.29 -5.68,-12.06 -6.43,-11.75 -7.14,-11.36 -7.85,-10.93 -8.52,-10.41 -5.43,-6.57 -8.43,-9.02 -9.01,-8.42 -9.57,-7.78 -10.12,-7.05 -4.13,-2.68 -4.19,-2.53 -4.22,-2.38 -4.27,-2.25 -4.3,-2.11 -4.33,-1.98 -4.37,-1.84 -4.38,-1.73 -4.4,-1.61 -4.43,-1.48 -4.42,-1.37 -4.44,-1.25 -4.44,-1.16 -4.45,-1.05 -4.43,-0.95 -4.43,-0.84 -4.41,-0.77 -4.4,-0.66 -4.38,-0.59 -4.36,-0.5 -4.32,-0.42 -4.29,-0.35 -4.26,-0.27 -4.21,-0.21 -4.17,-0.14 -4.13,-0.09 -4.06,-0.02 -4.02,0.02 -3.95,0.08 -3.89,0.13 -3.82,0.16 -3.74,0.21 -51.34,-188.86 -14.77,-16.09 z m -367.92,226.17 1.29,0.26 3.21,0.7 3.19,0.76 3.18,0.83 3.18,0.88 3.16,0.96 3.15,1.03 3.12,1.1 3.12,1.16 3.1,1.25 3.08,1.31 3.06,1.39 3.05,1.47 3.01,1.56 3,1.63 2.98,1.72 4.66,2.91 4.53,3.12 4.41,3.32 4.28,3.51 4.15,3.69 4.02,3.87 3.87,4.04 3.73,4.18 3.58,4.34 3.43,4.48 3.27,4.6 3.11,4.72 2.93,4.83 2.78,4.93 2.6,5.03 2.42,5.1 2.23,5.18 2.05,5.25 1.86,5.3 1.67,5.35 1.46,5.38 1.26,5.42 1.05,5.43 0.85,5.44 0.62,5.44 0.4,5.44 0.19,5.41 -0.05,5.39 -0.29,5.35 -0.51,5.31 -0.77,5.26 -1.01,5.19 -0.97,4.04 -1.14,3.96 -1.31,3.9 -1.46,3.82 -1.63,3.74 -1.79,3.66 -1.95,3.57 -2.1,3.48 -2.26,3.38 -2.41,3.29 -2.57,3.18 -2.72,3.08 -2.87,2.96 -3.02,2.85 -2.98,2.57 -1.04,0.17 -4.66,0.59 -4.78,0.42 -4.9,0.26 -5.01,0.09 h -13.16 l -58.94,-215.81 1.57,-1.74 1.61,-1.72 1.63,-1.71 1.66,-1.7 z m 566.44,-3.47 1.06,-0.06 3.79,-0.18 3.79,-0.14 3.82,-0.09 3.81,-0.06 h 3.82 l 3.84,0.06 3.82,0.1 3.84,0.17 3.84,0.22 3.84,0.29 3.83,0.35 3.83,0.42 3.82,0.5 3.81,0.57 3.81,0.64 3.8,0.72 3.78,0.81 3.77,0.89 3.75,0.99 3.74,1.07 3.72,1.16 3.7,1.27 3.68,1.37 3.65,1.45 3.63,1.58 3.6,1.67 3.58,1.79 3.54,1.9 3.51,2.02 4.65,2.91 4.54,3.12 4.41,3.32 4.29,3.51 4.15,3.69 4.01,3.87 3.88,4.04 3.72,4.18 3.58,4.34 3.43,4.48 3.27,4.6 3.11,4.72 2.94,4.83 1.75,3.11 1.11,2.36 2.05,4.75 1.89,4.81 1.7,4.86 1.53,4.91 1.35,4.94 1.15,4.97 0.97,4.98 0.76,4.99 0.58,4.99 0.37,4.99 0.17,4.97 -0.05,4.94 -0.26,4.91 -0.48,4.87 -0.69,4.82 -0.93,4.77 -0.89,3.7 -1.04,3.64 -1.2,3.57 -1.35,3.51 -1.49,3.44 -1.64,3.35 -1.79,3.28 -1.93,3.19 -2.07,3.11 -2.22,3.01 -2.36,2.92 -2.49,2.82 -2.63,2.72 -2.77,2.61 -2.9,2.5 -3.04,2.39 -3.18,2.28 -3.3,2.15 -3.43,2.03 -3.56,1.9 -3.69,1.77 -3.82,1.64 -3.94,1.5 -4.06,1.35 -4.19,1.21 -4.31,1.06 -4.43,0.9 -4.55,0.76 -4.66,0.59 -4.79,0.42 -4.89,0.26 -5.01,0.09 h -13.53 z m 890.78,62.16 2.52,0.1 2.73,-0.14 2.52,-0.39 2.33,-0.67 2.12,-0.94 1.92,-1.2 1.72,-1.47 1.51,-1.74 1.31,-2.01 1.08,-2.21 0.82,-2.38 0.56,-2.52 0.29,-2.67 0.04,-2.82 -0.23,-2.98 -0.48,-3.12 -0.76,-3.28 -0.15,-0.49 38.8,2.87 3.77,0.14 2.76,-0.08 2.66,-0.24 2.56,-0.4 2.46,-0.56 2.34,-0.72 2.23,-0.87 2.14,-1.04 2.02,-1.19 1.83,-1.27 1.53,-1.25 1.26,-1.24 0.97,-1.23 0.69,-1.22 0.4,-1.21 0.11,-1.2 -0.17,-1.19 -0.1,-0.35 -0.13,-0.33 -0.15,-0.32 -0.18,-0.32 -0.2,-0.3 -0.23,-0.28 -0.25,-0.29 -0.27,-0.27 -0.29,-0.23 -0.29,-0.21 -0.29,-0.18 -0.3,-0.15 -0.3,-0.12 -0.3,-0.07 -0.3,-0.06 -0.3,-0.01 -28.4,-1.44 0.2,-0.67 0.68,-1.89 0.86,-2.04 1.03,-2.19 0.13,-0.28 0.13,-0.27 0.11,-0.24 0.1,-0.24 0.1,-0.21 0.09,-0.2 0.08,-0.19 0.07,-0.18 10.46,-21.85 1.02,-2.22 0.92,-2.2 0.82,-2.18 0.72,-2.17 0.62,-2.15 0.52,-2.13 0.42,-2.12 0.33,-2.1 0.22,-2.08 0.13,-2.07 0.03,-2.04 -0.06,-2.02 -0.17,-2.01 -0.26,-1.99 -0.36,-1.97 -0.46,-1.96 -1.09,-3.57 -1.36,-3.4 -1.62,-3.24 -1.88,-3.07 -2.15,-2.9 -2.4,-2.72 -2.67,-2.57 -2.93,-2.38 -3.13,-2.17 -3.24,-1.88 -3.37,-1.58 -3.48,-1.3 -3.6,-1.01 -3.73,-0.72 -3.85,-0.43 -3.96,-0.14 -1.68,0.04 -66.97,4.49 -1.53,0.11 -1.52,0.2 -1.52,0.27 -1.5,0.36 -1.5,0.43 -1.49,0.51 -1.48,0.6 -1.45,0.65 -1.4,0.72 -1.36,0.79 -1.32,0.85 -1.26,0.92 -1.23,0.99 -1.18,1.05 -1.13,1.11 -0.46,0.45 -0.4,0.45 -0.38,0.46 -0.33,0.45 -0.3,0.46 -0.27,0.44 -0.22,0.45 -0.19,0.45 -0.15,0.44 -0.12,0.44 -0.09,0.44 -0.06,0.44 -0.01,0.43 0.02,0.43 0.05,0.44 0.1,0.43 0.11,0.36 0.12,0.35 0.15,0.34 0.16,0.32 0.18,0.31 0.2,0.29 0.22,0.28 0.22,0.27 0.25,0.24 0.25,0.21 0.25,0.18 0.25,0.14 0.25,0.12 0.26,0.08 0.27,0.05 0.27,0.02 27.99,-1.15 -0.12,0.33 -0.84,2.03 -0.98,2.25 -0.14,0.31 -0.12,0.28 -0.13,0.29 -0.11,0.26 -0.11,0.26 -0.11,0.24 -0.1,0.24 -0.09,0.22 -7.42,16.05 -1.22,2.8 -1.11,2.68 -0.98,2.59 -0.86,2.48 -0.75,2.39 -0.64,2.27 -0.51,2.18 -0.4,2.07 -0.28,2 -0.17,1.98 -0.08,1.96 0.02,1.94 0.13,1.92 0.23,1.9 0.32,1.87 0.11,0.44 -2.04,-0.07 -5.68,-21.59 -0.12,-0.49 -0.26,-1.06 -0.39,-1.61 -0.53,-2.17 -0.65,-2.72 -0.78,-3.27 -0.92,-3.82 -1.04,-4.37 -0.56,-2.32 -0.55,-2.32 -0.55,-2.31 -0.55,-2.3 -0.55,-2.29 -0.55,-2.28 -0.55,-2.27 -0.54,-2.26 -0.56,-2.25 -0.54,-2.24 -0.56,-2.23 -0.54,-2.23 -0.55,-2.22 -0.55,-2.22 -0.56,-2.2 -0.55,-2.2 h -101.81 l -25.39,2.15 -0.55,-2.15 -101.87,-0.25 -40.01,4.3 0.23,0.87 0.26,0.94 0.13,0.48 -0.93,-0.44 -3.11,-1.4 -3.09,-1.32 -3.07,-1.24 -3.04,-1.15 -3.01,-1.07 -2.98,-0.98 -2.96,-0.89 -2.93,-0.81 -2.9,-0.72 -2.88,-0.64 -2.86,-0.55 -2.82,-0.47 -2.8,-0.38 -2.78,-0.3 -2.75,-0.21 -2.73,-0.13 -2.69,-0.04 -2.16,0.03 -2.11,0.07 -2.08,0.12 -2.04,0.17 -2,0.21 -1.97,0.27 -31.58,4.74 -1.78,0.29 -1.74,0.34 -1.71,0.38 -1.67,0.42 -1.65,0.46 -1.61,0.52 -1.58,0.56 -1.55,0.61 -1.51,0.64 -1.48,0.7 -2.84,1.5 -2.61,1.63 -2.41,1.76 -2.18,1.89 -1.96,2.02 -1.74,2.15 -1.53,2.28 -1.31,2.42 -1.39,2.9 -1.19,3.04 -0.99,3.17 -0.81,3.29 -0.61,3.42 -0.41,3.55 -0.16,2.79 -0.41,-2.05 -0.39,-2.01 -0.35,-1.96 -0.32,-1.91 -0.29,-1.85 -0.25,-1.79 -0.23,-1.74 -0.2,-1.68 -0.16,-1.62 -0.25,-3.22 -0.16,-3.2 -0.07,-3.18 v -3.16 l 0.09,-3.16 0.17,-3.14 0.26,-3.14 0.33,-3.13 h -109.16 l -16.6,4.28 1.27,4.86 -2.37,-1.45 -2.54,-1.5 -2.52,-1.42 -2.48,-1.35 -2.46,-1.27 -2.43,-1.21 -2.39,-1.12 -2.37,-1.05 -2.36,-0.99 -2.35,-0.91 -2.34,-0.86 -2.33,-0.79 -2.32,-0.74 -2.32,-0.66 -2.29,-0.6 -2.29,-0.54 -2.29,-0.47 -2.27,-0.41 -2.26,-0.36 -2.25,-0.28 -2.24,-0.22 -2.24,-0.16 -2.21,-0.09 -2.21,-0.03 -4.65,0.1 -4.48,0.32 -4.3,0.54 -4.12,0.75 -3.95,0.97 -3.78,1.19 -3.61,1.4 -3.43,1.62 -8.04,4.48 -2.98,1.69 -2.83,1.88 -2.67,2.07 -2.51,2.29 -2.35,2.47 -2.19,2.68 -2.03,2.87 -1.87,3.07 -1.69,3.24 -1.5,3.37 -1.3,3.48 -1.1,3.63 -0.9,3.75 -0.71,3.88 -0.51,4.01 -0.31,4.14 -0.12,4.27 0.09,4.39 0.29,4.52 0.48,4.65 0.68,4.78 0.88,4.91 1.07,5.04 1.28,5.17 1.38,4.89 1.52,4.77 1.67,4.65 1.82,4.52 1.97,4.41 2.11,4.29 2.26,4.17 2.42,4.05 2.56,3.92 2.7,3.81 2.85,3.68 2.99,3.56 3.15,3.45 3.29,3.31 8.93,8.45 3.74,3.49 3.92,3.35 4.03,3.19 4.1,2.98 4.18,2.78 4.25,2.57 4.32,2.36 4.4,2.16 4.46,1.95 4.53,1.75 4.61,1.54 4.68,1.34 4.75,1.13 4.82,0.92 4.9,0.72 4.97,0.52 5.04,0.3 5.11,0.11 1.98,-0.02 1.95,-0.05 1.94,-0.1 1.93,-0.12 1.91,-0.17 1.9,-0.2 1.87,-0.24 1.87,-0.27 1.85,-0.31 1.84,-0.35 1.82,-0.38 1.81,-0.42 1.79,-0.46 1.78,-0.49 1.77,-0.53 1.74,-0.57 3.48,-1.25 3.43,-1.4 3.39,-1.57 1.18,-0.61 8.72,33.14 0.66,2.65 0.57,2.55 0.48,2.45 0.39,2.36 0.3,2.27 0.21,2.16 0.12,2.07 0.02,1.99 -0.06,1.87 -0.16,1.79 -0.25,1.69 -0.34,1.59 -0.42,1.49 -0.52,1.4 -0.61,1.3 -0.7,1.21 -1.71,2.16 -2.13,1.88 -2.53,1.59 -2.93,1.3 -3.34,1.01 -3.75,0.73 -4.16,0.43 -4.58,0.14 -2.07,-0.02 -2.03,-0.05 -2,-0.1 -1.97,-0.14 -1.93,-0.17 -1.9,-0.22 -1.87,-0.25 -1.83,-0.3 -1.8,-0.33 -1.76,-0.37 -1.73,-0.42 -1.7,-0.45 -1.67,-0.5 -1.63,-0.53 -1.6,-0.57 -1.57,-0.61 -3.11,-1.39 -3.14,-1.61 -3.17,-1.83 -3.19,-2.06 -3.22,-2.3 -3.24,-2.52 -3.27,-2.75 -3.29,-2.99 -0.52,-0.51 -0.58,-0.56 -0.63,-0.61 -0.69,-0.67 -0.74,-0.72 -0.78,-0.76 -0.83,-0.81 -0.88,-0.85 -3.67,-3.46 -3.43,-3 -3.18,-2.53 -2.93,-2.08 -2.68,-1.6 -2.42,-1.15 -2.2,-0.69 -1.93,-0.23 -0.9,0.05 -0.83,0.15 -0.77,0.25 -0.7,0.34 -0.64,0.44 -0.57,0.55 -0.5,0.64 -0.43,0.74 -0.35,0.81 -0.27,0.85 -0.18,0.9 -0.1,0.93 -0.01,0.97 0.07,1.01 0.17,1.04 0.24,1.08 0.71,2.27 0.93,2.25 1.14,2.23 1.36,2.2 1.58,2.17 11.75,16.04 1.95,2.35 2.19,2.31 2.43,2.3 2.67,2.26 2.9,2.25 3.14,2.21 3.38,2.19 3.61,2.16 3.85,2.13 4.09,2.12 4.33,2.08 4.48,2.02 4.53,1.87 4.61,1.75 4.68,1.62 4.73,1.49 4.8,1.36 4.87,1.23 4.92,1.09 5,0.97 5.06,0.84 5.12,0.71 5.19,0.58 5.25,0.45 5.32,0.32 5.38,0.2 5.45,0.06 3.32,-0.03 3.28,-0.06 3.23,-0.11 3.18,-0.17 3.15,-0.21 3.09,-0.25 3.05,-0.3 3,-0.34 2.95,-0.39 2.91,-0.44 2.87,-0.49 2.81,-0.53 2.78,-0.57 2.72,-0.62 2.68,-0.68 2.64,-0.71 2.57,-0.75 2.5,-0.79 2.42,-0.82 2.35,-0.85 2.28,-0.89 2.2,-0.92 2.14,-0.96 2.05,-0.99 1.97,-1.02 1.91,-1.06 1.82,-1.09 1.75,-1.13 1.68,-1.17 1.59,-1.2 1.52,-1.24 1.44,-1.27 2.11,-2.05 1.99,-2.05 1.86,-2.05 1.74,-2.03 1.61,-2.04 1.48,-2.03 1.36,-2.03 1.23,-2.03 1.13,-2.08 1.03,-2.13 0.93,-2.18 0.83,-2.22 0.74,-2.28 0.64,-2.33 0.56,-2.38 0.46,-2.43 0.23,-1.9 0.02,-0.44 0.24,0.99 0.5,2.12 0.51,2.11 0.51,2.11 0.5,2.1 0.51,2.1 0.51,2.1 0.51,2.09 0.51,2.09 0.52,2.08 0.52,2.08 0.51,2.09 0.52,2.07 0.52,2.08 0.52,2.07 32.71,18.62 h 101.81 l -0.55,-2 -0.56,-2.02 -0.56,-2.03 -0.57,-2.07 -0.58,-2.09 -0.58,-2.11 -0.59,-2.13 -0.6,-2.16 -0.61,-2.18 -0.62,-2.21 -0.62,-2.23 -0.62,-2.26 -0.64,-2.28 -0.64,-2.3 -0.65,-2.33 -0.65,-2.35 -1.24,-4.45 -1.09,-3.93 -0.94,-3.42 -0.8,-2.91 -0.65,-2.4 -0.51,-1.88 -0.38,-1.38 -0.23,-0.87 -46.06,-175.15 -0.63,-2.61 -0.48,-2.42 -0.32,-2.22 v -0.01 l 1.04,0.69 1.79,1.21 1.85,1.29 1.91,1.37 1.98,1.43 2.04,1.51 2.11,1.58 2.16,1.66 2.23,1.73 2.29,1.8 2.35,1.88 2.41,1.95 39.54,150.32 0.2,0.8 0.33,1.26 0.43,1.73 0.56,2.2 0.67,2.67 0.79,3.14 0.9,3.6 1.01,4.08 0.54,2.16 0.52,2.14 0.53,2.11 0.52,2.09 0.5,2.07 0.52,2.05 0.5,2.02 0.49,2 0.49,1.99 0.49,1.96 0.48,1.93 0.48,1.92 0.47,1.89 0.47,1.87 0.46,1.85 0.46,1.83 46.04,18.62 h 76.73 l 0.06,0.24 0.44,1.71 0.55,2.18 0.67,2.64 0.77,3.11 0.89,3.57 1,4.03 0.53,2.12 0.52,2.1 0.51,2.08 0.51,2.06 0.51,2.04 0.5,2.02 0.49,2.01 0.49,1.98 0.5,1.97 0.48,1.94 0.47,1.92 0.48,1.91 0.47,1.89 0.47,1.87 0.46,1.84 0.46,1.83 58.19,24.71 h 101.8 l -0.62,-2.25 -0.61,-2.25 -0.63,-2.25 -0.62,-2.26 -0.63,-2.26 -0.64,-2.26 -0.63,-2.26 -0.64,-2.27 -0.64,-2.26 -0.65,-2.27 -0.65,-2.27 -0.64,-2.28 -0.65,-2.27 -0.66,-2.28 -0.65,-2.27 -0.66,-2.27 -1.24,-4.31 -1.08,-3.76 -0.92,-3.22 -0.76,-2.66 -0.61,-2.13 -0.44,-1.58 -0.3,-1.04 -0.13,-0.48 -41.39,-157.4 z m -591.75,16.82 -1.33,-2.27 -1.36,-2.66 -1.3,-2.96 -1.27,-3.27 -1.24,-3.56 -1.19,-3.88 -1.16,-4.18 -25.73,-97.87 -0.75,-2.96 -0.6,-2.73 -0.47,-2.52 -0.33,-2.29 -0.19,-2.08 -0.06,-1.85 0.09,-1.62 0.22,-1.41 0.33,-1.15 1.98,0.56 2.56,0.89 2.69,1.08 2.82,1.29 2.95,1.47 1.51,0.8 1.54,0.85 1.56,0.9 1.58,0.94 1.61,0.99 1.63,1.03 1.65,1.08 1.68,1.13 1.7,1.18 1.73,1.23 1.74,1.26 1.78,1.31 1.8,1.37 1.82,1.41 1.84,1.45 1.87,1.5 25.69,97.68 -1.51,2.06 -1.57,1.94 -1.64,1.81 -1.71,1.71 -1.78,1.58 -1.84,1.47 -1.92,1.36 -1.98,1.23 -2.02,1.11 -2.03,0.96 -2.06,0.82 -2.07,0.66 -2.09,0.52 -2.1,0.38 -2.13,0.22 z m -714.43,-155.86 -0.17,0.11 -2.62,1.91 -2.38,2.06 -2.14,2.2 -1.9,2.34 -1.66,2.49 -1.44,2.63 -1.5,3.17 -1.3,3.31 -1.09,3.46 -0.87,3.59 -0.67,3.72 -0.45,3.87 -0.23,4 -0.02,4.14 0.09,2.18 0.16,2.37 0.25,2.55 0.32,2.74 0.41,2.92 0.48,3.1 0.57,3.29 0.65,3.47 0.73,3.66 0.8,3.84 0.89,4.03 0.97,4.21 1.05,4.4 1.12,4.58 1.21,4.77 1.28,4.94 1.21,4.59 1.2,4.54 -5.22,-4.87 -9.57,-7.78 -10.12,-7.05 -2.86,-1.88 -2.89,-1.8 -2.91,-1.73 -2.93,-1.66 -2.94,-1.59 -2.97,-1.53 -2.98,-1.46 -3,-1.4 -3.02,-1.34 -3.02,-1.27 -3.05,-1.22 -3.04,-1.15 -3.05,-1.1 -3.07,-1.04 -3.07,-0.98 -3.07,-0.93 -3.08,-0.88 -3.08,-0.82 -3.08,-0.78 -3.08,-0.72 -3.08,-0.68 -3.07,-0.63 -3.07,-0.59 -3.07,-0.53 -3.05,-0.5 -3.05,-0.45 -3.04,-0.41 -3.03,-0.37 -3.01,-0.34 -3,-0.29 -2.99,-0.26 -2.97,-0.22 6.31,-4.67 6.53,-4.56 6.77,-4.43 6.99,-4.3 7.22,-4.18 7.44,-4.05 7.67,-3.92 7.88,-3.79 8.11,-3.66 8.33,-3.51 8.55,-3.39 8.76,-3.24 8.98,-3.11 9.19,-2.96 9.41,-2.82 z m 906.76,-149.19 h 38.1 l 2.5,8.88 19.92,-8.88 h 38.54 l -0.58,3.63 -0.05,1.31 12.33,-4.94 h 37.68 l 4.72,9.93 28.36,-9.93 h 38.56 l 0.85,12.36 42.38,-13.02 2.61,-0.73 2.77,-0.6 2.92,-0.48 3.08,-0.35 3.25,-0.21 3.41,-0.08 6.04,0.18 5.7,0.53 5.36,0.87 5.02,1.22 4.69,1.55 4.36,1.88 4.05,2.21 2.24,1.53 25.22,-6.86 h 74.71 l 6.95,24.88 -34.48,7.38 4.45,15.87 h 31.68 l 6.93,23.9 -30.41,4.68 4.17,15.29 h 34.72 l 7.14,24.88 -68.8,6.69 h -66.86 l -0.76,-2.68 -50.79,5.62 -4.81,0.38 -5.16,0.13 -2.66,-0.03 -2.57,-0.08 -2.49,-0.14 -2.4,-0.19 -2.32,-0.26 -2.24,-0.31 -2.17,-0.37 -2.08,-0.42 -2.02,-0.5 -1.94,-0.54 -1.88,-0.61 -1.8,-0.67 -1.74,-0.73 -1.67,-0.8 -1.62,-0.85 -1.55,-0.92 -1.96,-1.33 -40.01,5.3 h -52.02 l -8.83,-17.01 -1.11,1.62 -1.87,1.94 -2.22,1.67 -2.56,1.41 -2.89,1.17 -3.2,0.93 -3.5,0.71 -39.86,6.77 -3.47,0.44 -3.72,0.27 -3.95,0.08 h -49.79 l -30.26,-107.23 z m 91.23,57.36 -2.24,0.73 0.28,1.06 3.49,1.17 z m -492.91,-57.36 h 38.11 l 13.6,48.28 h 3 l 2.57,-0.41 0.82,-0.5 -0.07,-1.17 -0.37,-3.55 -0.47,-3.69 -0.5,-3.73 -0.46,-3.7 -0.36,-3.59 -0.16,-3.39 0.09,-3.12 0.41,-2.76 3.43,-16.14 0.88,-2.53 h 38.54 l -0.57,3.63 -0.18,3.95 0.13,4.22 0.35,4.39 0.48,4.51 0.53,4.56 0.5,4.53 0.38,4.43 0.17,4.28 -0.13,4.05 -0.51,3.75 -0.96,3.37 -1.53,2.93 -4.33,7.93 1.81,0.61 5.07,2.21 4.3,2.54 3.64,2.92 3.05,3.41 2.53,4 2.12,4.65 1.77,5.41 0.99,4.1 0.54,3.75 0.1,3.43 -0.31,3.11 -0.73,2.79 -1.13,2.51 -1.5,2.21 -1.87,1.94 -7.88,7.25 -2.05,1.53 -2.34,1.3 -2.66,1.07 -2.93,0.86 -3.21,0.65 -3.47,0.44 -3.72,0.27 -3.95,0.08 h -49.79 l -30.25,-107.23 z m 65.73,97.96 h 5.02 l 2.96,-0.34 0.98,-0.4 -0.12,-2.24 -0.45,-2.6 -0.78,-2.77 -1.1,-2.71 -1.46,-2.54 -1.87,-2.28 -2.3,-1.94 -2.76,-1.5 -3.26,-0.97 -0.59,-0.05 z m 288.88,-18.99 1.34,4.56 0.75,4.59 0.29,4.26 -0.15,3.96 -0.62,3.65 -1.04,3.34 -1.49,3.05 -1.92,2.74 -2.36,2.44 -2.78,2.15 -3.2,1.85 -3.61,1.56 -4.03,1.27 -26.22,6.57 -4.07,0.91 -4.43,0.64 -4.81,0.38 -5.17,0.13 -2.66,-0.03 -2.56,-0.08 -2.49,-0.14 -2.4,-0.19 -2.33,-0.26 -2.24,-0.31 -2.16,-0.37 -2.09,-0.42 -2.01,-0.5 -1.94,-0.54 -1.87,-0.61 -1.81,-0.67 -1.74,-0.73 -1.68,-0.8 -1.61,-0.85 -1.56,-0.92 -2.57,-1.75 -2.41,-1.93 -2.25,-2.11 -2.12,-2.28 -1.97,-2.45 -1.86,-2.62 -1.74,-2.8 -1.65,-2.95 -1.54,-3.12 -1.47,-3.27 -1.4,-3.43 -1.34,-3.59 -1.3,-3.74 -1.25,-3.89 -1.22,-4.04 -1.21,-4.18 -1.2,-4.9 -1.05,-4.99 -0.86,-5.02 -0.62,-4.99 -0.34,-4.91 -0.02,-4.78 0.38,-4.58 0.8,-4.34 1.27,-4.03 1.8,-3.67 2.37,-3.27 2.97,-2.79 19.62,-16.09 3.97,-2.47 4.75,-1.84 5.59,-1.16 6.45,-0.39 3.76,0.19 3.49,0.56 3.24,0.88 3,1.17 2.79,1.43 2.37,1.52 3.58,-2.52 h 36.05 l 17.81,64.35 -27.61,11 h -30.73 l 0.05,0.14 0.73,2.15 0.73,2.02 0.7,1.88 0.68,1.76 0.65,1.62 0.44,1.01 17.93,-7.15 z m -406.67,18.99 h 3.25 l 3.04,-0.34 2.43,-0.94 1.87,-1.5 1.36,-1.98 0.91,-2.39 0.52,-2.73 0.15,-3.01 -0.14,-3.21 -0.4,-3.35 -0.59,-3.43 -0.73,-3.42 -0.84,-3.35 -0.87,-3.21 -0.87,-3.02 -0.82,-2.73 -0.69,-2.4 -0.67,-2.42 -0.73,-2.67 -0.8,-2.85 -0.89,-2.98 -0.41,-1.29 -1.55,-2.33 -1.8,-2.2 -1.99,-1.92 -2.2,-1.6 -2.43,-1.22 -2.67,-0.81 -2.94,-0.33 h -6.45 z m -69.51,-97.96 h 57.87 l 6.58,0.24 6.01,0.73 5.48,1.21 4.98,1.68 4.52,2.14 4.09,2.58 3.71,3.02 3.35,3.46 3.03,3.87 2.76,4.29 2.51,4.68 2.29,5.09 2.13,5.45 1.99,5.84 1.88,6.2 1.83,6.55 1.27,4.95 1.17,5.07 1.01,5.12 1.76,10.39 0.72,4.72 0.45,4.66 0.12,4.55 -0.26,4.38 -0.7,4.16 -1.2,3.89 -1.76,3.55 -2.38,3.16 -3.05,2.71 -3.79,2.21 -4.57,1.64 -5.42,1.03 -6.33,0.35 h -50.25 l -8.83,-6.69 z m 763.83,43.39 -0.21,-1.64 v 0 -0.01 z m 41.19,9.4 0.49,1.83 0.73,2.59 0.78,2.85 0.87,3.01 0.83,2.87 0.82,2.71 0.8,2.58 0.78,2.43 0.75,2.29 0.75,2.15 0.72,2.02 0.7,1.88 0.22,0.57 11.11,-1.9 -8.59,-30.45 z m 2.98,-33.64 0.01,-0.01 z"
         id="path66" /></clipPath><linearGradient
       x1="306.00101"
       y1="484.44901"
       x2="306.00201"
       y2="435.95901"
       gradientUnits="userSpaceOnUse"
       gradientTransform="scale(10)"
       spreadMethod="pad"
       id="linearGradient76"><stop
         style="stop-opacity:1;stop-color:#d0d0d0"
         offset="0"
         id="stop70" /><stop
         style="stop-opacity:1;stop-color:#d5d5d5"
         offset="0.476563"
         id="stop72" /><stop
         style="stop-opacity:1;stop-color:#e1e1e1"
         offset="1"
         id="stop74" /></linearGradient><clipPath
       clipPathUnits="userSpaceOnUse"
       id="clipPath86"><path
         d="m 3183.82,4353.74 h 37.69 l 15.35,32.34 h 21.2 l -3.47,-32.34 h 38.55 l 8.01,116.88 h -56.71 z m -401.5,3.37 -18.38,0.2 -18.19,0.62 -18.01,1.03 -17.8,1.43 -17.58,1.83 -17.38,2.22 -17.14,2.6 -16.91,2.98 -16.66,3.36 -16.4,3.73 -16.14,4.09 -15.85,4.45 -15.57,4.81 -15.27,5.16 -14.97,5.5 -14.65,5.83 -14.33,6.17 -13.99,6.49 -13.64,6.82 -13.3,7.13 -12.93,7.45 -12.55,7.75 -12.18,8.05 -11.77,8.35 -11.38,8.64 -10.97,8.91 -10.54,9.2 -10.11,9.48 -9.68,9.75 -9.22,10 -8.76,10.27 -8.29,10.52 -50.13,-183.54 -121.65,-0.62 141.94,538.26 134.76,0.07 17.47,-0.64 16.22,-1.88 14.99,-3.04 13.8,-4.15 12.6,-5.18 11.45,-6.15 10.32,-7.04 9.2,-7.89 8.11,-8.64 7.04,-9.35 5.98,-9.97 4.96,-10.53 3.95,-11.03 2.97,-11.47 2.01,-11.83 1.06,-12.11 0.15,-12.35 -0.75,-12.51 -1.63,-12.6 -2.48,-12.62 -3.32,-12.58 -4.12,-12.49 -4.91,-12.29 -5.67,-12.06 -6.43,-11.75 -7.14,-11.36 -7.85,-10.93 -8.53,-10.41 -9.18,-9.83 -9.82,-9.19 -10.44,-8.47 -11.02,-7.69 -3.13,-2.04 -3.14,-1.96 -3.17,-1.89 -3.2,-1.81 -3.21,-1.74 -3.23,-1.66 -3.25,-1.6 -3.27,-1.52 -3.29,-1.46 -3.3,-1.39 -3.31,-1.32 -3.32,-1.26 -3.33,-1.2 -3.34,-1.13 -3.34,-1.07 -3.36,-1.02 -3.35,-0.95 -3.36,-0.91 -3.36,-0.84 -3.36,-0.78 -3.34,-0.75 -3.36,-0.68 -3.35,-0.64 -3.34,-0.58 -3.33,-0.54 -3.32,-0.5 -3.32,-0.45 -3.29,-0.4 -3.29,-0.36 -3.27,-0.32 -3.25,-0.28 -3.24,-0.25 6.88,-5.09 7.12,-4.97 7.37,-4.82 7.62,-4.69 7.87,-4.56 8.11,-4.41 8.36,-4.28 8.59,-4.13 8.85,-3.98 9.08,-3.84 9.31,-3.69 9.55,-3.54 9.79,-3.38 10.02,-3.23 10.25,-3.07 10.48,-2.91 10.71,-2.75 10.93,-2.59 11.17,-2.42 11.38,-2.26 11.61,-2.08 11.83,-1.92 12.05,-1.74 12.27,-1.57 12.48,-1.39 12.7,-1.21 12.92,-1.04 13.12,-0.84 13.34,-0.66 13.54,-0.48 13.76,-0.28 13.95,-0.1 h 3.24 3.18 3.14 3.1 3.05 3.02 2.99 2.97 2.93 2.92 2.89 2.89 2.88 2.87 2.86 2.88 2.87 2.88 2.9 2.91 2.93 2.96 2.99 3.01 3.05 3.08 3.14 3.17 3.23 3.28 3.33 3.4 l 114.42,420.97 136.35,0.28 17.46,-0.64 16.22,-1.88 15,-3.04 13.78,-4.15 12.61,-5.18 11.46,-6.15 10.31,-7.04 9.21,-7.89 8.1,-8.64 7.04,-9.35 5.99,-9.97 4.96,-10.53 3.95,-11.03 2.97,-11.47 2,-11.83 1.07,-12.11 0.14,-12.35 -0.75,-12.51 -1.63,-12.6 -2.48,-12.62 -3.31,-12.58 -4.12,-12.49 -4.91,-12.29 -5.68,-12.06 -6.43,-11.75 -7.14,-11.36 -7.85,-10.93 -8.52,-10.41 -9.19,-9.83 -9.82,-9.19 -10.43,-8.47 -11.03,-7.69 -4.51,-2.91 -4.56,-2.76 -4.61,-2.61 -4.64,-2.44 -4.69,-2.3 -4.72,-2.16 -4.76,-2.01 -4.78,-1.88 -4.8,-1.75 -4.81,-1.62 -4.84,-1.49 -4.83,-1.37 -4.84,-1.25 -4.84,-1.15 -4.84,-1.03 -4.83,-0.93 -4.81,-0.83 -4.79,-0.72 -4.78,-0.65 -4.74,-0.54 -4.72,-0.46 -4.67,-0.38 -4.64,-0.3 -4.6,-0.23 -4.54,-0.15 -4.5,-0.09 -4.43,-0.03 -4.38,0.03 -4.3,0.08 -4.24,0.14 -4.16,0.18 -4.09,0.23 -55.95,-205.86 z m -436.26,237.09 1.72,-1.89 1.75,-1.87 1.78,-1.87 1.8,-1.85 1.84,-1.83 1.85,-1.83 1.88,-1.81 1.92,-1.8 3.22,-0.09 3.24,-0.06 3.24,-0.02 3.24,0.01 3.25,0.05 3.25,0.09 3.25,0.14 3.26,0.18 3.25,0.21 3.25,0.27 3.25,0.32 3.24,0.36 3.25,0.42 3.23,0.47 3.23,0.52 3.22,0.58 3.22,0.64 3.21,0.7 3.19,0.76 3.18,0.83 3.18,0.88 3.16,0.96 3.15,1.03 3.12,1.1 3.12,1.16 3.1,1.25 3.08,1.31 3.06,1.39 3.05,1.47 3.01,1.56 3,1.63 2.98,1.72 4.66,2.91 4.53,3.12 4.41,3.32 4.28,3.51 4.15,3.69 4.02,3.87 3.87,4.04 3.73,4.18 3.58,4.34 3.43,4.48 3.27,4.6 3.11,4.72 2.93,4.83 2.78,4.93 2.6,5.03 2.42,5.1 2.23,5.18 2.05,5.25 1.86,5.3 1.67,5.35 1.46,5.38 1.26,5.42 1.05,5.43 0.85,5.44 0.62,5.44 0.4,5.44 0.19,5.41 -0.05,5.39 -0.29,5.35 -0.51,5.31 -0.77,5.26 -1.01,5.19 -0.97,4.04 -1.14,3.96 -1.31,3.9 -1.46,3.82 -1.63,3.74 -1.79,3.66 -1.95,3.57 -2.1,3.48 -2.26,3.38 -2.41,3.29 -2.57,3.18 -2.72,3.08 -2.87,2.96 -3.02,2.85 -3.16,2.73 -3.32,2.6 -3.46,2.48 -3.59,2.35 -3.75,2.21 -3.88,2.07 -4.02,1.93 -4.16,1.79 -4.29,1.63 -4.43,1.48 -4.57,1.31 -4.69,1.15 -4.83,1 -4.96,0.81 -5.08,0.65 -5.22,0.46 -5.33,0.28 -5.46,0.1 h -14.35 z m 624.57,-13.69 3.74,-0.28 3.76,-0.26 3.77,-0.22 3.79,-0.18 3.79,-0.14 3.82,-0.09 3.81,-0.06 h 3.82 l 3.84,0.06 3.82,0.1 3.84,0.17 3.84,0.22 3.84,0.29 3.83,0.35 3.83,0.42 3.82,0.5 3.81,0.57 3.81,0.64 3.8,0.72 3.78,0.81 3.77,0.89 3.75,0.99 3.74,1.07 3.72,1.16 3.7,1.27 3.68,1.37 3.65,1.45 3.63,1.58 3.6,1.67 3.58,1.79 3.54,1.9 3.51,2.02 4.65,2.91 4.54,3.12 4.41,3.32 4.29,3.51 4.15,3.69 4.01,3.87 3.88,4.04 3.72,4.18 3.58,4.34 3.43,4.48 3.27,4.6 3.11,4.72 2.94,4.83 2.77,4.93 2.6,5.03 2.42,5.1 2.24,5.18 2.04,5.25 1.86,5.3 1.67,5.35 1.46,5.38 1.26,5.42 1.06,5.43 0.84,5.44 0.62,5.44 0.41,5.44 0.18,5.41 -0.05,5.39 -0.29,5.35 -0.52,5.31 -0.76,5.26 -1,5.19 -0.97,4.04 -1.15,3.96 -1.3,3.9 -1.47,3.82 -1.63,3.74 -1.79,3.66 -1.94,3.57 -2.11,3.48 -2.26,3.38 -2.41,3.29 -2.57,3.18 -2.72,3.08 -2.87,2.96 -3.02,2.85 -3.16,2.73 -3.31,2.6 -3.46,2.48 -3.6,2.35 -3.75,2.21 -3.87,2.07 -4.03,1.93 -4.16,1.79 -4.29,1.63 -4.43,1.48 -4.57,1.31 -4.69,1.15 -4.83,1 -4.96,0.81 -5.08,0.65 -5.21,0.46 -5.34,0.28 -5.46,0.1 h -14.74 z m 914.65,27.31 -1.23,-1.43 -1.27,-1.34 -1.3,-1.24 -1.33,-1.16 -1.36,-1.06 -1.4,-0.97 -1.43,-0.88 -1.46,-0.79 -1.48,-0.7 -1.5,-0.6 -1.52,-0.51 -1.55,-0.42 -1.58,-0.33 -1.59,-0.23 -1.62,-0.14 -1.64,-0.05 -2.47,0.1 -2.28,0.3 -2.1,0.49 -1.93,0.69 -1.74,0.88 -1.57,1.08 -1.39,1.28 -1.2,1.48 -1.01,1.64 -0.78,1.76 -0.55,1.89 -0.33,2.03 -0.1,2.14 0.12,2.28 0.35,2.41 0.57,2.54 0.77,2.54 0.92,2.42 1.08,2.29 1.24,2.17 1.39,2.03 1.55,1.9 1.71,1.78 1.87,1.65 1.99,1.49 2.05,1.28 2.14,1.09 2.22,0.89 2.28,0.69 2.36,0.49 2.44,0.3 2.52,0.1 2.73,-0.14 2.52,-0.39 2.33,-0.67 2.12,-0.94 1.92,-1.2 1.72,-1.47 1.51,-1.74 1.31,-2.01 1.08,-2.21 0.82,-2.38 0.56,-2.52 0.29,-2.67 0.04,-2.82 -0.23,-2.98 -0.48,-3.12 -0.76,-3.28 -1.12,-3.74 -1.36,-3.54 -1.59,-3.34 -1.82,-3.16 -2.05,-2.95 -2.28,-2.76 -2.52,-2.57 -2.74,-2.37 -2.93,-2.15 -3.05,-1.86 -3.18,-1.56 -3.3,-1.29 -3.42,-0.99 -3.54,-0.71 -3.67,-0.43 -3.79,-0.15 h -0.42 -0.4 l -0.36,0.01 h -0.35 -0.31 l -0.28,0.01 -0.26,0.01 -0.24,0.01 -0.2,0.01 -0.21,0.02 -0.21,0.01 -0.2,0.02 -0.21,0.03 -0.2,0.02 -0.19,0.02 -0.19,0.03 1.33,5.04 0.19,-0.03 0.2,-0.03 0.21,-0.01 0.22,-0.03 0.23,-0.02 0.22,-0.02 0.25,-0.02 0.24,-0.01 0.26,-0.01 0.3,-0.01 0.33,-0.01 h 0.36 0.4 0.43 0.46 0.49 l 3.06,0.09 2.92,0.28 2.79,0.48 2.65,0.65 2.53,0.84 2.39,1.04 2.27,1.21 2.13,1.41 2.02,1.61 1.93,1.82 1.82,2.04 1.73,2.24 1.62,2.46 1.53,2.68 1.42,2.88 z m 19.92,-82.41 -8.09,17.5 -1.33,3.04 -1.2,2.93 -1.08,2.82 -0.94,2.71 -0.81,2.59 -0.7,2.48 -0.55,2.37 -0.44,2.26 -0.3,2.18 -0.2,2.16 -0.08,2.14 0.02,2.11 0.14,2.1 0.25,2.06 0.36,2.05 0.47,2.02 1.09,3.54 1.34,3.38 1.6,3.21 1.86,3.06 2.12,2.89 2.38,2.74 2.64,2.56 2.91,2.41 3.09,2.19 3.17,1.89 3.28,1.61 3.37,1.31 3.47,1.02 3.56,0.72 3.67,0.45 3.77,0.14 2.76,-0.08 2.66,-0.24 2.56,-0.4 2.46,-0.56 2.34,-0.72 2.23,-0.87 2.14,-1.04 2.02,-1.19 1.83,-1.27 1.53,-1.25 1.26,-1.24 0.97,-1.23 0.69,-1.22 0.4,-1.21 0.11,-1.2 -0.17,-1.19 -0.1,-0.35 -0.13,-0.33 -0.15,-0.32 -0.18,-0.32 -0.2,-0.3 -0.23,-0.28 -0.25,-0.29 -0.27,-0.27 -0.29,-0.23 -0.29,-0.21 -0.29,-0.18 -0.3,-0.15 -0.3,-0.12 -0.3,-0.07 -0.3,-0.06 -0.3,-0.01 -0.25,0.1 -0.41,0.28 -0.57,0.48 -0.73,0.67 -0.9,0.86 -1.06,1.04 -1.23,1.24 -1.39,1.43 -1.48,1.43 -1.54,1.24 -1.57,1.05 -1.61,0.85 -1.66,0.67 -1.7,0.48 -1.75,0.28 -1.79,0.1 -0.82,-0.03 -0.8,-0.09 -0.78,-0.15 -0.75,-0.21 -0.73,-0.28 -0.7,-0.33 -0.69,-0.39 -0.66,-0.46 -0.61,-0.5 -0.56,-0.55 -0.5,-0.57 -0.46,-0.63 -0.4,-0.67 -0.34,-0.7 -0.3,-0.75 -0.24,-0.79 -0.19,-1.14 -0.02,-1.29 0.16,-1.44 0.32,-1.59 0.51,-1.75 0.68,-1.89 0.86,-2.04 1.03,-2.19 0.13,-0.28 0.13,-0.27 0.11,-0.24 0.1,-0.24 0.1,-0.21 0.09,-0.2 0.08,-0.19 0.07,-0.18 10.46,-21.85 1.02,-2.22 0.92,-2.2 0.82,-2.18 0.72,-2.17 0.62,-2.15 0.52,-2.13 0.42,-2.12 0.33,-2.1 0.22,-2.08 0.13,-2.07 0.03,-2.04 -0.06,-2.02 -0.17,-2.01 -0.26,-1.99 -0.36,-1.97 -0.46,-1.96 -1.09,-3.57 -1.36,-3.4 -1.62,-3.24 -1.88,-3.07 -2.15,-2.9 -2.4,-2.72 -2.67,-2.57 -2.93,-2.38 -3.13,-2.17 -3.24,-1.88 -3.37,-1.58 -3.48,-1.3 -3.6,-1.01 -3.73,-0.72 -3.85,-0.43 -3.96,-0.14 -1.68,0.04 -1.67,0.13 -1.65,0.21 -1.66,0.3 -1.63,0.38 -1.64,0.47 -1.63,0.56 -1.61,0.65 -1.58,0.71 -1.53,0.79 -1.48,0.85 -1.43,0.94 -1.38,1 -1.34,1.07 -1.28,1.14 -1.24,1.21 -0.49,0.5 -0.45,0.49 -0.41,0.5 -0.36,0.49 -0.33,0.5 -0.28,0.49 -0.25,0.49 -0.21,0.48 -0.16,0.48 -0.14,0.48 -0.09,0.48 -0.06,0.48 -0.02,0.47 0.02,0.47 0.07,0.48 0.1,0.47 0.12,0.4 0.13,0.37 0.16,0.37 0.18,0.35 0.19,0.34 0.22,0.32 0.24,0.31 0.25,0.28 0.27,0.27 0.27,0.22 0.27,0.2 0.27,0.15 0.28,0.13 0.28,0.09 0.29,0.05 0.3,0.02 0.37,-0.04 0.38,-0.14 0.41,-0.24 0.42,-0.33 0.44,-0.43 0.46,-0.52 0.48,-0.62 0.5,-0.71 0.49,-0.72 0.47,-0.68 0.44,-0.62 0.42,-0.57 0.39,-0.51 0.36,-0.46 0.34,-0.41 0.3,-0.36 0.94,-0.96 0.94,-0.91 0.95,-0.84 0.95,-0.79 0.96,-0.73 0.97,-0.67 0.97,-0.62 0.98,-0.54 0.99,-0.49 0.97,-0.42 0.97,-0.36 0.98,-0.29 0.96,-0.22 0.95,-0.16 0.96,-0.1 0.95,-0.03 0.97,0.03 0.94,0.07 0.9,0.13 0.86,0.18 0.81,0.23 0.79,0.28 0.74,0.34 0.7,0.39 0.66,0.43 0.6,0.47 0.53,0.51 0.48,0.54 0.41,0.59 0.34,0.61 0.28,0.65 0.21,0.68 0.11,0.83 -0.07,1.07 -0.24,1.29 -0.4,1.53 -0.57,1.76 -0.74,1.99 -0.9,2.22 -1.09,2.45 -0.13,0.33 -0.14,0.32 -0.14,0.3 -0.13,0.29 -0.12,0.28 -0.11,0.27 -0.11,0.25 z m -125.52,270.11 0.21,0.84 0.35,1.35 0.47,1.86 0.6,2.38 0.73,2.88 0.84,3.39 0.97,3.89 1.09,4.39 0.58,2.31 0.56,2.29 0.56,2.27 0.56,2.24 0.55,2.23 0.54,2.2 0.55,2.19 0.53,2.16 0.53,2.14 0.53,2.12 0.52,2.1 0.51,2.07 0.52,2.06 0.51,2.04 0.51,2.01 0.5,2 h 101.8 l -0.62,-2.25 -0.61,-2.25 -0.63,-2.25 -0.62,-2.26 -0.63,-2.26 -0.64,-2.26 -0.63,-2.26 -0.64,-2.27 -0.64,-2.26 -0.65,-2.27 -0.65,-2.27 -0.64,-2.28 -0.65,-2.27 -0.66,-2.28 -0.65,-2.27 -0.66,-2.27 -1.24,-4.31 -1.08,-3.76 -0.92,-3.22 -0.76,-2.66 -0.61,-2.13 -0.44,-1.58 -0.3,-1.04 -0.13,-0.48 -63.14,-240.08 -0.12,-0.49 -0.26,-1.06 -0.39,-1.61 -0.53,-2.17 -0.65,-2.72 -0.78,-3.27 -0.92,-3.82 -1.04,-4.37 -0.56,-2.32 -0.55,-2.32 -0.55,-2.31 -0.55,-2.3 -0.55,-2.29 -0.55,-2.28 -0.55,-2.27 -0.54,-2.26 -0.56,-2.25 -0.54,-2.24 -0.56,-2.23 -0.54,-2.23 -0.55,-2.22 -0.55,-2.22 -0.56,-2.2 -0.55,-2.2 h -101.81 l 0.54,1.96 0.55,1.99 0.56,2.01 0.56,2.04 0.57,2.07 0.59,2.09 0.58,2.11 0.6,2.14 0.59,2.16 0.62,2.19 0.61,2.22 0.62,2.23 0.64,2.27 0.63,2.29 0.65,2.31 0.65,2.34 1.23,4.45 1.1,3.94 0.94,3.43 0.79,2.91 0.66,2.41 0.52,1.88 0.36,1.36 0.23,0.85 z m -31.52,-18.36 -0.61,-2.23 -0.62,-2.24 -0.62,-2.24 -0.63,-2.25 -0.63,-2.26 -0.63,-2.26 -0.63,-2.26 -0.64,-2.28 -0.65,-2.27 -0.64,-2.28 -0.65,-2.29 -0.66,-2.3 -0.66,-2.3 -0.66,-2.31 -0.67,-2.31 -0.67,-2.32 -1.26,-4.39 -1.1,-3.83 -0.94,-3.28 -0.77,-2.71 -0.62,-2.17 -0.46,-1.62 -0.29,-1.07 -0.15,-0.52 -43.64,-165.97 -0.14,-0.52 -0.26,-1.07 -0.39,-1.61 -0.52,-2.17 -0.65,-2.7 -0.79,-3.27 -0.91,-3.81 -1.03,-4.36 -0.55,-2.31 -0.54,-2.29 -0.55,-2.29 -0.55,-2.27 -0.55,-2.27 -0.54,-2.27 -0.55,-2.25 -0.54,-2.25 -0.55,-2.24 -0.55,-2.23 -0.54,-2.23 -0.55,-2.21 -0.55,-2.21 -0.55,-2.21 -0.54,-2.19 -0.56,-2.18 -101.87,-0.25 0.25,0.94 0.28,1.02 0.31,1.13 0.34,1.2 0.37,1.3 0.39,1.39 0.43,1.46 0.45,1.56 1.44,4.96 1.31,4.55 1.18,4.14 1.07,3.73 0.93,3.31 0.8,2.89 0.68,2.48 0.55,2.05 -3.67,-2.76 -3.63,-2.68 -3.59,-2.58 -3.56,-2.5 -3.51,-2.41 -3.48,-2.31 -3.45,-2.22 -3.41,-2.14 -3.37,-2.04 -3.33,-1.94 -3.3,-1.87 -3.25,-1.76 -3.22,-1.67 -3.19,-1.59 -3.14,-1.49 -3.11,-1.4 -3.09,-1.32 -3.07,-1.24 -3.04,-1.15 -3.01,-1.07 -2.98,-0.98 -2.96,-0.89 -2.93,-0.81 -2.9,-0.72 -2.88,-0.64 -2.86,-0.55 -2.82,-0.47 -2.8,-0.38 -2.78,-0.3 -2.75,-0.21 -2.73,-0.13 -2.69,-0.04 -2.16,0.03 -2.11,0.07 -2.08,0.12 -2.04,0.17 -2,0.21 -1.97,0.27 -1.94,0.32 -1.89,0.36 -1.87,0.42 -1.83,0.45 -1.79,0.51 -1.76,0.56 -1.71,0.62 -1.69,0.66 -1.65,0.7 -1.61,0.76 -3.1,1.64 -2.86,1.78 -2.61,1.91 -2.37,2.06 -2.14,2.2 -1.9,2.34 -1.67,2.49 -1.43,2.63 -1.51,3.17 -1.3,3.31 -1.08,3.46 -0.88,3.59 -0.66,3.72 -0.46,3.87 -0.23,4 -0.01,4.14 0.08,2.18 0.16,2.37 0.25,2.55 0.33,2.74 0.41,2.92 0.48,3.1 0.57,3.29 0.64,3.47 0.73,3.66 0.81,3.84 0.89,4.03 0.96,4.21 1.05,4.4 1.13,4.58 1.2,4.77 1.29,4.94 1.21,4.59 29.87,113.6 0.13,0.52 0.27,1.07 0.39,1.61 0.51,2.15 0.65,2.7 0.78,3.24 0.91,3.8 1.03,4.34 0.55,2.31 0.55,2.32 0.56,2.31 0.55,2.3 0.55,2.29 0.55,2.3 0.56,2.28 0.55,2.29 0.56,2.28 0.56,2.28 0.55,2.27 0.57,2.27 0.56,2.27 0.56,2.26 0.57,2.26 0.57,2.27 h 101.81 l -0.55,-2 -0.56,-2.02 -0.56,-2.03 -0.57,-2.07 -0.58,-2.09 -0.58,-2.11 -0.59,-2.13 -0.6,-2.16 -0.61,-2.18 -0.62,-2.21 -0.62,-2.23 -0.62,-2.26 -0.64,-2.28 -0.64,-2.3 -0.65,-2.33 -0.65,-2.35 -1.24,-4.45 -1.09,-3.93 -0.94,-3.42 -0.8,-2.91 -0.65,-2.4 -0.51,-1.88 -0.38,-1.38 -0.23,-0.87 -46.06,-175.15 -0.63,-2.61 -0.48,-2.42 -0.32,-2.22 -0.17,-2.04 -0.01,-1.84 0.14,-1.65 0.29,-1.45 0.44,-1.27 0.6,-1.09 0.76,-0.95 0.92,-0.8 1.1,-0.66 1.25,-0.51 1.42,-0.37 1.59,-0.22 1.75,-0.07 2.27,0.11 2.4,0.33 2.5,0.56 2.63,0.77 2.74,1 2.86,1.21 2.97,1.42 3.09,1.65 1.62,0.93 1.67,1.01 1.75,1.09 1.82,1.17 1.88,1.24 1.95,1.33 2.02,1.4 2.09,1.49 2.15,1.57 2.23,1.64 2.29,1.73 2.36,1.8 2.43,1.89 2.49,1.96 2.57,2.05 2.63,2.12 43.09,163.85 0.23,0.87 0.35,1.38 0.48,1.88 0.6,2.4 0.73,2.91 0.86,3.42 0.98,3.93 1.1,4.45 0.59,2.35 0.58,2.33 0.57,2.3 0.56,2.28 0.56,2.26 0.55,2.23 0.55,2.21 0.54,2.18 0.53,2.16 0.54,2.13 0.52,2.11 0.52,2.09 0.51,2.07 0.51,2.03 0.51,2.02 0.5,2 z m -419.06,-128.2 -1.65,2.24 -1.71,2.11 -1.78,1.98 -1.87,1.86 -1.93,1.73 -2.01,1.6 -2.09,1.48 -2.16,1.35 -2.2,1.21 -2.22,1.05 -2.24,0.88 -2.26,0.73 -2.28,0.56 -2.29,0.4 -2.31,0.25 -2.33,0.07 -2.13,-0.11 -2.02,-0.35 -1.95,-0.6 -1.85,-0.83 -1.75,-1.06 -1.67,-1.29 -1.58,-1.53 -1.48,-1.76 -1.42,-2.05 -1.38,-2.36 -1.36,-2.66 -1.3,-2.96 -1.27,-3.27 -1.24,-3.56 -1.19,-3.88 -1.16,-4.18 -25.73,-97.87 -0.75,-2.96 -0.6,-2.73 -0.47,-2.52 -0.33,-2.29 -0.19,-2.08 -0.06,-1.85 0.09,-1.62 0.22,-1.41 0.35,-1.2 0.48,-1.05 0.61,-0.89 0.76,-0.73 0.9,-0.56 1.03,-0.4 1.18,-0.25 1.32,-0.08 2.24,0.11 2.37,0.32 2.52,0.54 2.66,0.75 2.79,0.97 2.93,1.18 3.07,1.4 3.22,1.62 1.64,0.87 1.68,0.92 1.7,0.98 1.72,1.02 1.75,1.08 1.78,1.13 1.81,1.18 1.82,1.23 1.86,1.28 1.88,1.33 1.91,1.39 1.93,1.43 1.96,1.48 1.98,1.54 2.01,1.58 2.04,1.64 z m -39.23,-149.17 6.42,24.42 -2.79,-2.14 -2.76,-2.08 -2.73,-2.01 -2.71,-1.93 -2.68,-1.85 -2.65,-1.79 -2.63,-1.72 -2.6,-1.64 -2.57,-1.57 -2.54,-1.5 -2.52,-1.42 -2.48,-1.35 -2.46,-1.27 -2.43,-1.21 -2.39,-1.12 -2.37,-1.05 -2.36,-0.99 -2.35,-0.91 -2.34,-0.86 -2.33,-0.79 -2.32,-0.74 -2.32,-0.66 -2.29,-0.6 -2.29,-0.54 -2.29,-0.47 -2.27,-0.41 -2.26,-0.36 -2.25,-0.28 -2.24,-0.22 -2.24,-0.16 -2.21,-0.09 -2.21,-0.03 -4.65,0.1 -4.48,0.32 -4.3,0.54 -4.12,0.75 -3.95,0.97 -3.78,1.19 -3.61,1.4 -3.43,1.62 -3.25,1.83 -3.09,2.05 -2.91,2.26 -2.73,2.49 -2.57,2.69 -2.38,2.92 -2.22,3.13 -2.03,3.36 -1.86,3.52 -1.62,3.67 -1.42,3.81 -1.2,3.95 -0.98,4.09 -0.78,4.23 -0.55,4.36 -0.34,4.51 -0.12,4.65 0.09,4.79 0.31,4.94 0.53,5.07 0.74,5.21 0.96,5.35 1.17,5.49 1.39,5.63 1.51,5.33 1.65,5.2 1.82,5.06 1.99,4.95 2.15,4.8 2.3,4.67 2.46,4.54 2.63,4.41 2.79,4.28 2.95,4.15 3.11,4.02 3.26,3.88 3.43,3.75 3.59,3.62 3.74,3.49 3.92,3.35 4.03,3.19 4.1,2.98 4.18,2.78 4.25,2.57 4.32,2.36 4.4,2.16 4.46,1.95 4.53,1.75 4.61,1.54 4.68,1.34 4.75,1.13 4.82,0.92 4.9,0.72 4.97,0.52 5.04,0.3 5.11,0.11 1.98,-0.02 1.95,-0.05 1.94,-0.1 1.93,-0.12 1.91,-0.17 1.9,-0.2 1.87,-0.24 1.87,-0.27 1.85,-0.31 1.84,-0.35 1.82,-0.38 1.81,-0.42 1.79,-0.46 1.78,-0.49 1.77,-0.53 1.74,-0.57 3.48,-1.25 3.43,-1.4 3.39,-1.57 3.36,-1.74 3.31,-1.89 3.28,-2.06 3.23,-2.21 3.19,-2.38 15.03,57.13 0.71,2.88 0.63,2.78 0.53,2.68 0.42,2.57 0.32,2.47 0.23,2.36 0.13,2.26 0.02,2.15 -0.07,2.05 -0.17,1.94 -0.27,1.85 -0.37,1.73 -0.46,1.63 -0.57,1.52 -0.66,1.42 -0.76,1.31 -1.87,2.37 -2.31,2.05 -2.76,1.73 -3.19,1.42 -3.65,1.1 -4.09,0.78 -4.54,0.48 -4.98,0.15 -2.26,-0.01 -2.21,-0.07 -2.19,-0.1 -2.14,-0.15 -2.1,-0.2 -2.08,-0.23 -2.03,-0.28 -2,-0.32 -1.96,-0.36 -1.92,-0.4 -1.88,-0.46 -1.86,-0.49 -1.81,-0.54 -1.78,-0.58 -1.75,-0.63 -1.71,-0.67 -3.39,-1.5 -3.42,-1.76 -3.45,-2 -3.49,-2.24 -3.5,-2.51 -3.53,-2.75 -3.56,-3 -3.59,-3.25 -0.57,-0.55 -0.63,-0.62 -0.7,-0.66 -0.74,-0.73 -0.8,-0.78 -0.86,-0.84 -0.91,-0.88 -0.95,-0.93 -4.01,-3.77 -3.74,-3.26 -3.46,-2.77 -3.19,-2.25 -2.92,-1.76 -2.65,-1.25 -2.38,-0.75 -2.12,-0.25 -0.97,0.05 -0.91,0.16 -0.84,0.27 -0.76,0.38 -0.7,0.48 -0.62,0.6 -0.54,0.7 -0.48,0.8 -0.38,0.89 -0.29,0.93 -0.2,0.96 -0.11,1.02 -0.01,1.06 0.09,1.1 0.17,1.14 0.27,1.18 0.78,2.47 1,2.46 1.25,2.42 1.48,2.4 1.72,2.36 1.95,2.35 2.19,2.31 2.43,2.3 2.67,2.26 2.9,2.25 3.14,2.21 3.38,2.19 3.61,2.16 3.85,2.13 4.09,2.12 4.33,2.08 4.48,2.02 4.53,1.87 4.61,1.75 4.68,1.62 4.73,1.49 4.8,1.36 4.87,1.23 4.92,1.09 5,0.97 5.06,0.84 5.12,0.71 5.19,0.58 5.25,0.45 5.32,0.32 5.38,0.2 5.45,0.06 3.32,-0.03 3.28,-0.06 3.23,-0.11 3.18,-0.17 3.15,-0.21 3.09,-0.25 3.05,-0.3 3,-0.34 2.95,-0.39 2.91,-0.44 2.87,-0.49 2.81,-0.53 2.78,-0.57 2.72,-0.62 2.68,-0.68 2.64,-0.71 2.57,-0.75 2.5,-0.79 2.42,-0.82 2.35,-0.85 2.28,-0.89 2.2,-0.92 2.14,-0.96 2.05,-0.99 1.97,-1.02 1.91,-1.06 1.82,-1.09 1.75,-1.13 1.68,-1.17 1.59,-1.2 1.52,-1.24 1.44,-1.27 2.11,-2.05 1.99,-2.05 1.86,-2.05 1.74,-2.03 1.61,-2.04 1.48,-2.03 1.36,-2.03 1.23,-2.03 1.13,-2.08 1.03,-2.13 0.93,-2.18 0.83,-2.22 0.74,-2.28 0.64,-2.33 0.56,-2.38 0.46,-2.43 0.23,-1.9 0.12,-2.11 0.01,-2.34 -0.09,-2.55 -0.21,-2.78 -0.3,-2.99 -0.4,-3.22 -0.5,-3.42 -0.31,-1.81 -0.33,-1.86 -0.35,-1.92 -0.38,-1.96 -0.4,-2.02 -0.43,-2.07 -0.45,-2.12 -0.47,-2.18 -0.51,-2.24 -0.52,-2.28 -0.55,-2.35 -0.58,-2.39 -0.61,-2.45 -0.62,-2.5 -0.66,-2.57 -0.68,-2.61 -30.54,-116.14 -0.64,-2.46 -0.61,-2.41 -0.58,-2.35 -0.53,-2.3 -0.52,-2.23 -0.47,-2.19 -0.45,-2.13 -0.41,-2.07 -0.39,-2.01 -0.35,-1.96 -0.32,-1.91 -0.29,-1.85 -0.25,-1.79 -0.23,-1.74 -0.2,-1.68 -0.16,-1.62 -0.25,-3.22 -0.16,-3.2 -0.07,-3.18 v -3.16 l 0.09,-3.16 0.17,-3.14 0.26,-3.14 0.33,-3.13 z m -424.02,277.37 -0.61,-2.23 -0.61,-2.24 -0.63,-2.24 -0.62,-2.25 -0.63,-2.26 -0.63,-2.26 -0.64,-2.26 -0.64,-2.28 -0.64,-2.27 -0.65,-2.28 -0.65,-2.29 -0.65,-2.3 -0.66,-2.3 -0.67,-2.31 -0.66,-2.31 -0.67,-2.32 -1.26,-4.39 -1.1,-3.83 -0.94,-3.28 -0.77,-2.71 -0.62,-2.17 -0.46,-1.62 -0.3,-1.07 -0.14,-0.52 -43.65,-165.97 -0.13,-0.52 -0.26,-1.07 -0.39,-1.61 -0.53,-2.17 -0.65,-2.7 -0.78,-3.27 -0.91,-3.81 -1.04,-4.36 -0.54,-2.31 -0.55,-2.29 -0.55,-2.29 -0.54,-2.27 -0.55,-2.27 -0.54,-2.27 -0.55,-2.25 -0.55,-2.25 -0.54,-2.24 -0.55,-2.23 -0.54,-2.23 -0.55,-2.21 -0.55,-2.21 -0.55,-2.21 -0.55,-2.19 -0.55,-2.18 -101.87,-0.25 0.25,0.94 0.28,1.02 0.31,1.13 0.33,1.2 0.37,1.3 0.4,1.39 0.42,1.46 0.46,1.56 1.43,4.96 1.32,4.55 1.18,4.14 1.06,3.73 0.93,3.31 0.81,2.89 0.68,2.48 0.55,2.05 -3.68,-2.76 -3.62,-2.68 -3.6,-2.58 -3.55,-2.5 -3.52,-2.41 -3.48,-2.31 -3.44,-2.22 -3.41,-2.14 -3.37,-2.04 -3.33,-1.94 -3.3,-1.87 -3.25,-1.76 -3.23,-1.67 -3.18,-1.59 -3.15,-1.49 -3.1,-1.4 -3.1,-1.32 -3.06,-1.24 -3.04,-1.15 -3.01,-1.07 -2.98,-0.98 -2.96,-0.89 -2.93,-0.81 -2.9,-0.72 -2.89,-0.64 -2.85,-0.55 -2.83,-0.47 -2.8,-0.38 -2.77,-0.3 -2.76,-0.21 -2.72,-0.13 -2.7,-0.04 -2.15,0.03 -2.11,0.07 -2.08,0.12 -2.04,0.17 -2.01,0.21 -1.97,0.27 -1.93,0.32 -1.89,0.36 -1.87,0.42 -1.83,0.45 -1.79,0.51 -1.76,0.56 -1.72,0.62 -1.68,0.66 -1.65,0.7 -1.62,0.76 -3.09,1.64 -2.85,1.78 -2.62,1.91 -2.38,2.06 -2.14,2.2 -1.9,2.34 -1.66,2.49 -1.44,2.63 -1.5,3.17 -1.3,3.31 -1.09,3.46 -0.87,3.59 -0.67,3.72 -0.45,3.87 -0.23,4 -0.02,4.14 0.09,2.18 0.16,2.37 0.25,2.55 0.32,2.74 0.41,2.92 0.48,3.1 0.57,3.29 0.65,3.47 0.73,3.66 0.8,3.84 0.89,4.03 0.97,4.21 1.05,4.4 1.12,4.58 1.21,4.77 1.28,4.94 1.21,4.59 29.88,113.6 0.13,0.52 0.26,1.07 0.39,1.61 0.52,2.15 0.65,2.7 0.78,3.24 0.91,3.8 1.02,4.34 0.56,2.31 0.55,2.32 0.55,2.31 0.55,2.3 0.56,2.29 0.55,2.3 0.55,2.28 0.56,2.29 0.55,2.28 0.56,2.28 0.56,2.27 0.56,2.27 0.56,2.27 0.57,2.26 0.57,2.26 0.57,2.27 h 101.81 l -0.56,-2 -0.55,-2.02 -0.56,-2.03 -0.57,-2.07 -0.58,-2.09 -0.59,-2.11 -0.59,-2.13 -0.6,-2.16 -0.61,-2.18 -0.61,-2.21 -0.62,-2.23 -0.63,-2.26 -0.63,-2.28 -0.64,-2.3 -0.65,-2.33 -0.65,-2.35 -1.24,-4.45 -1.09,-3.93 -0.94,-3.42 -0.8,-2.91 -0.65,-2.4 -0.52,-1.88 -0.37,-1.38 -0.23,-0.87 -46.06,-175.15 -0.63,-2.61 -0.48,-2.42 -0.32,-2.22 -0.17,-2.04 -0.01,-1.84 0.13,-1.65 0.29,-1.45 0.45,-1.27 0.59,-1.09 0.77,-0.95 0.92,-0.8 1.09,-0.66 1.26,-0.51 1.42,-0.37 1.58,-0.22 1.76,-0.07 2.27,0.11 2.4,0.33 2.5,0.56 2.63,0.77 2.74,1 2.85,1.21 2.98,1.42 3.09,1.65 1.61,0.93 1.68,1.01 1.75,1.09 1.81,1.17 1.89,1.24 1.95,1.33 2.02,1.4 2.09,1.49 2.15,1.57 2.22,1.64 2.3,1.73 2.35,1.8 2.43,1.89 2.5,1.96 2.57,2.05 2.63,2.12 43.09,163.85 0.22,0.87 0.36,1.38 0.47,1.88 0.61,2.4 0.73,2.91 0.85,3.42 0.98,3.93 1.11,4.45 0.58,2.35 0.58,2.33 0.57,2.3 0.57,2.28 0.55,2.26 0.56,2.23 0.54,2.21 0.55,2.18 0.53,2.16 0.53,2.13 0.53,2.11 0.52,2.09 0.51,2.07 0.51,2.03 0.5,2.02 0.51,2 z m 606.35,-423.42 h 38.1 l 13.61,48.28 h 2.99 l 2.57,-0.41 1.92,-1.17 1.33,-1.84 0.83,-2.42 0.4,-2.92 0.06,-3.33 -0.21,-3.64 -0.4,-3.88 -0.51,-4.01 -0.55,-4.08 -0.5,-4.03 -0.39,-3.91 -0.18,-3.7 0.11,-3.4 0.45,-3.01 0.89,-2.53 h 38.54 l -0.58,3.63 -0.18,3.95 0.14,4.22 0.34,4.39 0.49,4.51 0.53,4.56 0.5,4.53 0.37,4.43 0.18,4.28 -0.14,4.05 -0.5,3.75 -0.96,3.37 -1.53,2.93 -2.15,2.43 -2.89,1.86 -3.69,1.2 0.28,1.06 5.92,1.99 5.07,2.21 4.31,2.54 3.64,2.92 3.04,3.41 2.53,4 2.12,4.65 1.78,5.41 0.99,4.1 0.54,3.75 0.1,3.43 -0.32,3.11 -0.73,2.79 -1.12,2.51 -1.51,2.21 -1.87,1.94 -2.22,1.67 -2.56,1.41 -2.89,1.17 -3.2,0.93 -3.5,0.71 -3.78,0.49 -4.05,0.29 -4.31,0.09 h -54.27 z m 65.73,97.96 h 5.02 l 2.95,-0.34 2.31,-0.95 1.71,-1.47 1.17,-1.92 0.67,-2.27 0.23,-2.55 -0.16,-2.74 -0.49,-2.84 -0.84,-3.03 -1.21,-2.95 -1.59,-2.77 -2.04,-2.49 -2.5,-2.11 -3.01,-1.63 -3.57,-1.05 -4.14,-0.38 h -3.4 z m -467.41,-97.96 h 38.11 l 13.6,48.28 h 3 l 2.57,-0.41 1.91,-1.17 1.33,-1.84 0.83,-2.42 0.41,-2.92 0.06,-3.33 -0.21,-3.64 -0.4,-3.88 -0.52,-4.01 -0.55,-4.08 -0.5,-4.03 -0.38,-3.91 -0.18,-3.7 0.1,-3.4 0.46,-3.01 0.88,-2.53 h 38.54 l -0.57,3.63 -0.18,3.95 0.13,4.22 0.35,4.39 0.48,4.51 0.53,4.56 0.5,4.53 0.38,4.43 0.17,4.28 -0.13,4.05 -0.51,3.75 -0.96,3.37 -1.53,2.93 -2.15,2.43 -2.88,1.86 -3.69,1.2 0.28,1.06 5.92,1.99 5.07,2.21 4.3,2.54 3.64,2.92 3.05,3.41 2.53,4 2.12,4.65 1.77,5.41 0.99,4.1 0.54,3.75 0.1,3.43 -0.31,3.11 -0.73,2.79 -1.13,2.51 -1.5,2.21 -1.87,1.94 -2.22,1.67 -2.56,1.41 -2.9,1.17 -3.2,0.93 -3.5,0.71 -3.77,0.49 -4.05,0.29 -4.31,0.09 h -54.27 z m 65.73,97.96 h 5.02 l 2.96,-0.34 2.31,-0.95 1.71,-1.47 1.16,-1.92 0.67,-2.27 0.23,-2.55 -0.16,-2.74 -0.49,-2.84 -0.84,-3.03 -1.2,-2.95 -1.6,-2.77 -2.03,-2.49 -2.51,-2.11 -3.01,-1.63 -3.56,-1.05 -4.15,-0.38 h -3.39 z m 288.88,-18.99 1.34,4.56 0.75,4.59 0.29,4.26 -0.15,3.96 -0.62,3.65 -1.04,3.34 -1.49,3.05 -1.92,2.74 -2.36,2.44 -2.78,2.15 -3.2,1.85 -3.61,1.56 -4.03,1.27 -4.44,0.98 -4.83,0.71 -5.24,0.41 -5.63,0.14 -2.9,-0.03 -2.8,-0.09 -2.72,-0.15 -2.61,-0.21 -2.53,-0.28 -2.44,-0.34 -2.36,-0.4 -2.27,-0.46 -2.2,-0.54 -2.12,-0.59 -2.04,-0.66 -1.97,-0.74 -1.9,-0.79 -1.82,-0.87 -1.76,-0.93 -1.69,-1 -2.81,-1.91 -2.62,-2.11 -2.47,-2.29 -2.3,-2.49 -2.15,-2.68 -2.03,-2.85 -1.89,-3.04 -1.79,-3.22 -1.69,-3.4 -1.6,-3.57 -1.53,-3.74 -1.46,-3.91 -1.41,-4.08 -1.37,-4.24 -1.33,-4.4 -1.32,-4.56 -1.3,-5.34 -1.15,-5.44 -0.94,-5.47 -0.68,-5.44 -0.37,-5.35 -0.01,-5.21 0.41,-4.99 0.87,-4.73 1.39,-4.4 1.96,-4 2.58,-3.55 3.25,-3.05 3.97,-2.47 4.75,-1.84 5.59,-1.16 6.45,-0.39 3.76,0.19 3.49,0.56 3.24,0.88 3,1.17 2.79,1.43 2.58,1.66 2.4,1.83 2.24,1.99 -1.27,-6.48 h 36.05 l 17.81,64.35 h -47.81 l -5.65,-20.63 h 11.87 l -1.09,-3.54 -1.11,-3.39 -1.11,-3.19 -1.13,-2.95 -1.13,-2.66 -1.13,-2.32 -1.13,-1.92 -1.11,-1.51 -1.35,-1.32 -1.49,-1.07 -1.57,-0.83 -1.61,-0.6 -1.62,-0.4 -1.57,-0.22 -1.47,-0.03 -1.35,0.12 -1.96,0.61 -1.63,1.2 -1.29,1.79 -0.93,2.36 -0.55,2.93 -0.17,3.5 0.24,4.06 0.66,4.63 0.55,2.9 0.55,2.64 0.57,2.46 0.58,2.38 0.62,2.36 0.67,2.45 0.72,2.59 0.78,2.85 0.86,3.01 0.84,2.87 0.82,2.71 0.8,2.58 0.78,2.43 0.76,2.29 0.73,2.15 0.73,2.02 0.7,1.88 0.68,1.76 0.65,1.62 0.64,1.5 0.62,1.38 0.6,1.25 0.58,1.13 0.56,1.02 1.13,1.8 1.18,1.55 1.28,1.29 1.38,1.05 1.5,0.82 1.65,0.57 1.8,0.34 1.98,0.12 2.35,-0.42 1.67,-1.16 1.09,-1.76 0.57,-2.22 0.15,-2.54 -0.19,-2.71 -0.44,-2.76 -0.62,-2.65 -1.11,-3.74 z m -410.45,18.99 h 7.03 l 3.04,-0.34 2.43,-0.94 1.87,-1.5 1.36,-1.98 0.91,-2.39 0.52,-2.73 0.15,-3.01 -0.14,-3.21 -0.4,-3.35 -0.59,-3.43 -0.73,-3.42 -0.84,-3.35 -0.87,-3.21 -0.87,-3.02 -0.82,-2.73 -0.69,-2.4 -0.67,-2.42 -0.73,-2.67 -0.8,-2.85 -0.89,-2.98 -0.99,-3.06 -1.1,-3.08 -1.25,-3.05 -1.41,-2.97 -1.56,-2.82 -1.76,-2.65 -1.95,-2.39 -2.17,-2.09 -2.4,-1.74 -2.65,-1.33 -2.91,-0.88 -3.2,-0.37 h -7.03 z m -65.73,-97.96 h 57.87 l 6.58,0.24 6.01,0.73 5.48,1.21 4.98,1.68 4.52,2.14 4.09,2.58 3.71,3.02 3.35,3.46 3.03,3.87 2.76,4.29 2.51,4.68 2.29,5.09 2.13,5.45 1.99,5.84 1.88,6.2 1.83,6.55 1.27,4.95 1.17,5.07 1.01,5.12 0.78,5.14 0.49,5.09 0.13,4.96 -0.28,4.78 -0.76,4.53 -1.32,4.23 -1.91,3.87 -2.59,3.45 -3.33,2.95 -4.12,2.41 -4.99,1.79 -5.91,1.12 -6.9,0.39 h -54.78 z m 867.28,0 h 74.71 l 6.95,24.88 h -36.55 l 6.52,23.25 h 31.68 l 6.93,23.9 h -31.68 l 5.44,19.97 h 34.72 l 7.14,24.88 h -72.88 z m 4.89,78.97 1.34,4.56 0.75,4.59 0.29,4.26 -0.16,3.96 -0.6,3.65 -1.05,3.34 -1.49,3.05 -1.92,2.74 -2.36,2.44 -2.78,2.15 -3.19,1.85 -3.62,1.56 -4.03,1.27 -4.44,0.98 -4.84,0.71 -5.23,0.41 -5.63,0.14 -2.9,-0.03 -2.8,-0.09 -2.71,-0.15 -2.62,-0.21 -2.53,-0.28 -2.44,-0.34 -2.36,-0.4 -2.28,-0.46 -2.19,-0.54 -2.12,-0.59 -2.05,-0.66 -1.96,-0.74 -1.9,-0.79 -1.82,-0.87 -1.76,-0.93 -1.69,-1 -2.81,-1.91 -2.63,-2.11 -2.45,-2.29 -2.31,-2.49 -2.15,-2.68 -2.02,-2.85 -1.9,-3.04 -1.8,-3.22 -1.69,-3.4 -1.6,-3.57 -1.52,-3.74 -1.46,-3.91 -1.41,-4.08 -1.37,-4.24 -1.34,-4.4 -1.31,-4.56 -0.85,-3.36 -0.78,-3.36 -0.7,-3.34 -0.63,-3.32 -0.52,-3.29 -0.41,-3.24 -0.28,-3.21 -0.14,-3.14 0.01,-3.08 0.18,-3 0.36,-2.92 0.55,-2.83 0.76,-2.73 0.99,-2.62 1.21,-2.5 1.46,-2.38 1.17,-1.58 1.31,-1.51 1.44,-1.46 1.59,-1.38 1.72,-1.3 1.87,-1.22 2.01,-1.14 2.16,-1.04 2.31,-0.94 2.46,-0.83 2.61,-0.73 2.77,-0.6 2.92,-0.48 3.08,-0.35 3.25,-0.21 3.41,-0.08 6.04,0.18 5.7,0.53 5.36,0.87 5.02,1.22 4.69,1.55 4.36,1.88 4.05,2.21 3.73,2.55 3.41,2.85 3.11,3.17 2.82,3.48 2.51,3.79 2.22,4.09 1.95,4.38 1.66,4.67 1.39,4.97 0.25,0.88 h -38.78 l -0.84,-2.59 -0.81,-2.48 -0.78,-2.34 -0.77,-2.17 -0.75,-1.98 -0.73,-1.77 -0.73,-1.52 -0.72,-1.24 -0.98,-1.35 -1.01,-1.08 -1.08,-0.86 -1.14,-0.65 -1.24,-0.46 -1.36,-0.31 -1.49,-0.17 -1.64,-0.05 -2.91,0.58 -2.02,1.58 -1.29,2.37 -0.67,2.92 -0.19,3.26 0.17,3.37 0.39,3.27 0.48,2.94 0.55,2.9 0.55,2.64 0.56,2.46 0.59,2.38 0.62,2.36 0.66,2.45 0.73,2.59 0.78,2.85 0.87,3.01 0.83,2.87 0.82,2.71 0.8,2.58 0.78,2.43 0.75,2.29 0.75,2.15 0.72,2.02 0.7,1.88 0.67,1.76 0.66,1.62 0.64,1.5 0.62,1.38 0.6,1.25 0.58,1.13 0.56,1.02 1.13,1.8 1.19,1.55 1.27,1.29 1.38,1.05 1.5,0.82 1.64,0.57 1.8,0.34 1.98,0.12 2.36,-0.42 1.67,-1.16 1.08,-1.76 0.58,-2.22 0.15,-2.54 -0.19,-2.71 -0.45,-2.76 -0.61,-2.65 -1.11,-3.74 z m -238.16,-78.97 h 37.68 l 15.36,32.34 h 21.2 l -3.48,-32.34 h 38.56 l 8.01,116.88 h -56.71 z m 63.98,55.4 16.45,34.66 -3.72,-34.66 z m -399.14,0 16.45,34.66 -3.71,-34.66 z"
         id="path84" /></clipPath><linearGradient
       x1="306.00101"
       y1="484.44901"
       x2="306.00201"
       y2="435.95901"
       gradientUnits="userSpaceOnUse"
       gradientTransform="scale(10)"
       spreadMethod="pad"
       id="linearGradient94"><stop
         style="stop-opacity:1;stop-color:#ff75b4"
         offset="0"
         id="stop88" /><stop
         style="stop-opacity:1;stop-color:#e3538b"
         offset="0.476563"
         id="stop90" /><stop
         style="stop-opacity:1;stop-color:#912556"
         offset="1"
         id="stop92" /></linearGradient></defs><sodipodi:namedview
     id="namedview4"
     pagecolor="#ffffff"
     bordercolor="#666666"
     borderopacity="1.0"
     inkscape:pageshadow="2"
     inkscape:pageopacity="0.0"
     inkscape:pagecheckerboard="0"
     showgrid="false"
     inkscape:zoom="0.5"
     inkscape:cx="559"
     inkscape:cy="228"
     inkscape:window-width="1366"
     inkscape:window-height="705"
     inkscape:window-x="-8"
     inkscape:window-y="-8"
     inkscape:window-maximized="1"
     inkscape:current-layer="g8" /><g
     id="g8"
     inkscape:groupmode="layer"
     inkscape:label="ink_ext_XXXXXX"
     transform="matrix(1.3333333,0,0,-1.3333333,-288.64399,475.63729)"><g
       id="g906"
       transform="matrix(4.1826304,0,0,4.1826304,-688.98538,-1135.3334)"
       style="fill:#bf2323;fill-opacity:1"><path
         d="m 318.474,302.699 h 3.755 l 1.529,3.222 h 2.112 l -0.346,-3.222 h 3.841 l 0.797,11.644 h -5.649 z m 6.374,5.519 1.639,3.453 -0.371,-3.453 z"
         style="fill:#bf2323;fill-opacity:1;fill-rule:nonzero;stroke:none;stroke-width:0.1"
         id="path30" /><path
         d="m 358.235,302.699 h 3.754 l 1.53,3.222 h 2.111 l -0.345,-3.222 h 3.841 l 0.797,11.644 h -5.649 z m 6.374,5.519 1.638,3.453 -0.37,-3.453 z"
         style="fill:#bf2323;fill-opacity:1;fill-rule:nonzero;stroke:none;stroke-width:0.1"
         id="path32" /><path
         d="m 381.96,310.567 0.134,0.454 c 0.521,2.517 -0.919,3.696 -4.015,3.696 -1.565,0 -2.716,-0.254 -3.599,-0.806 -1.541,-0.962 -2.269,-2.764 -2.966,-5.228 -0.461,-1.786 -0.723,-3.586 0.122,-4.814 0.585,-0.851 1.74,-1.479 3.593,-1.479 3.305,0 5.114,1.51 5.78,4.222 l 0.025,0.088 h -3.864 c -0.225,-0.7 -0.418,-1.31 -0.61,-1.603 -0.256,-0.392 -0.532,-0.49 -0.99,-0.49 -0.9,0 -0.73,1.304 -0.602,2.021 0.147,0.811 0.284,1.259 0.503,2.055 0.461,1.642 0.838,2.637 1.13,3.148 0.292,0.511 0.633,0.75 1.185,0.75 0.722,0 0.635,-0.937 0.457,-1.615 l -0.111,-0.373 3.828,-0.026"
         style="fill:#bf2323;fill-opacity:1;fill-rule:nonzero;stroke:none;stroke-width:0.1"
         id="path34" /><path
         d="m 381.474,302.699 h 7.442 l 0.692,2.479 h -3.641 l 0.649,2.316 h 3.156 l 0.691,2.381 h -3.157 l 0.542,1.989 h 3.459 l 0.713,2.479 h -7.261 l -3.285,-11.644"
         style="fill:#bf2323;fill-opacity:1;fill-rule:nonzero;stroke:none;stroke-width:0.1"
         id="path36" /><path
         d="m 301.625,312.458 h 0.699 c 1.786,0 0.765,-2.915 0.432,-4.085 -0.344,-1.216 -0.859,-3.674 -2.634,-3.721 h -0.701 z m -6.549,-9.759 h 5.765 c 3.655,0 4.735,2.108 5.693,5.682 0.691,2.581 1.225,5.962 -2.716,5.962 h -5.457 l -3.285,-11.644"
         style="fill:#bf2323;fill-opacity:1;fill-rule:nonzero;stroke:none;stroke-width:0.1"
         id="path38" /><path
         d="m 342.513,310.567 0.133,0.454 c 0.521,2.517 -0.919,3.696 -4.014,3.696 -1.566,0 -2.717,-0.254 -3.6,-0.806 -1.541,-0.962 -2.268,-2.764 -2.965,-5.228 -0.724,-2.803 -1.008,-6.26 2.667,-6.26 1.036,0 1.767,0.423 2.34,0.968 l -0.126,-0.645 h 3.591 l 1.774,6.41 h -4.762 l -0.563,-2.055 h 1.182 c -0.287,-0.956 -0.595,-1.803 -0.89,-2.14 -0.339,-0.386 -0.862,-0.485 -1.198,-0.434 -0.563,0.085 -0.794,0.799 -0.561,2.101 0.147,0.811 0.283,1.259 0.502,2.055 0.462,1.642 0.838,2.637 1.131,3.148 0.292,0.511 0.633,0.75 1.185,0.75 0.722,0 0.634,-0.937 0.456,-1.615 l -0.11,-0.373 3.828,-0.026"
         style="fill:#bf2323;fill-opacity:1;fill-rule:nonzero;stroke:none;stroke-width:0.1"
         id="path40" /><path
         d="m 307.188,302.699 h 3.795 l 1.356,4.81 h 0.299 c 1.554,0 -0.023,-3.606 0.578,-4.81 h 3.84 c -0.424,1.833 1.187,5.332 -1.002,5.787 l 0.027,0.106 c 1.691,0.507 2.396,1.158 2.83,2.702 0.648,2.268 -0.677,3.049 -3.031,3.049 h -5.406 z m 6.548,9.759 h 0.499 c 0.878,0 1.007,-0.741 0.836,-1.502 -0.18,-0.806 -0.699,-1.635 -1.883,-1.635 h -0.338 l 0.886,3.137"
         style="fill:#bf2323;fill-opacity:1;fill-rule:nonzero;stroke:none;stroke-width:0.1"
         id="path42" /><path
         d="m 347.202,302.699 h 3.795 l 1.356,4.81 h 0.299 c 1.554,0 -0.023,-3.606 0.578,-4.81 h 3.84 c -0.424,1.833 1.187,5.332 -1.003,5.787 l 0.028,0.106 c 1.691,0.507 2.395,1.158 2.83,2.702 0.648,2.268 -0.678,3.049 -3.031,3.049 h -5.406 z m 6.547,9.759 h 0.5 c 0.878,0 1.006,-0.741 0.837,-1.502 -0.181,-0.806 -0.7,-1.635 -1.884,-1.635 h -0.338 l 0.885,3.137"
         style="fill:#bf2323;fill-opacity:1;fill-rule:nonzero;stroke:none;stroke-width:0.1"
         id="path44" /><path
         id="path46"
         style="fill:#bf2323;fill-opacity:1;fill-rule:nonzero;stroke:none;stroke-width:0.557684"
         d="M 153.72656,0 78.851562,0.0390625 0,299.06836 67.585938,298.72266 95.435547,196.76172 C 143.16215,259.82463 236.32984,299.20524 345.73047,299.4375 l 70.83789,0.15039 31.08984,-114.35937 c 23.95253,1.4444 55.82953,-0.78102 82.38086,-18.54883 C 597.09499,123.5484 610.04432,-0.22118069 502.82422,0 L 427.08008,0.15625 363.50977,234.02734 H 309.6543 c -83.32358,0 -147.2462,-18.28099 -187.22657,-48.84765 19.11741,-1.33287 40.09309,-6.18076 58.50782,-18.5 C 247.99705,123.5484 260.94689,-0.05593715 153.72656,0 Z m -14.66211,37.029297 h 7.96875 c 32.7249,0 53.82839,18.080772 59.11524,42.189453 6.69778,30.56109 -10.28408,67.9714 -38.21289,84.5625 -17.57263,10.43427 -37.38789,12.75937 -56.49414,12.13477 -2.84977,-2.65458 -5.54234,-5.39212 -8.07422,-8.19727 z m 348.875,0 h 8.19336 c 32.7249,0 53.82644,18.080772 59.11328,42.189453 6.70337,30.56109 -10.28212,67.9714 -38.21093,84.5625 -20.71797,12.30809 -44.57171,13.33313 -66.68946,11.54297 z"
         transform="matrix(0.179313,0,0,-0.179313,216.483,356.728)"
         sodipodi:nodetypes="sccccscccsccsccscsccccccscccc" /><path
         id="path48"
         style="fill:#bf2323;fill-opacity:1;fill-rule:nonzero;stroke:none;stroke-width:0.557684"
         d="m 245.92188,66.080078 c -1.68979,6.686632 -3.32302,13.428443 -4.95704,20.304688 -1.62286,6.831629 -2.49894,10.428521 -2.59375,10.791015 l -16.59765,63.113279 -0.66797,2.54883 c -3.93167,14.94036 -5.9733,25.50335 -6.10156,31.69922 -0.13942,6.23491 1.01545,11.65497 3.40234,16.25586 1.95189,4.00417 5.28035,7.15074 10.04297,9.4707 4.73474,2.31997 10.30009,3.45703 16.72461,3.45703 7.95815,0 16.51863,-2.00227 25.71484,-6.05664 9.15717,-4.00417 19.20136,-10.19945 30.11524,-18.53125 -0.71384,2.73265 -2.19644,7.96967 -4.41602,15.6211 -0.69153,2.37015 -1.22259,4.23102 -1.56836,5.55273 l 56.59375,-0.13281 c 1.63402,-6.46914 3.246,-13.11759 4.86328,-19.94922 1.63402,-6.87624 2.51066,-10.47344 2.60547,-10.83594 l 24.25391,-92.212889 c 0.0948,-0.362494 1.10896,-3.958047 3.10547,-10.878906 1.97977,-6.876244 3.89232,-13.619395 5.69921,-20.216797 h -56.56054 c -1.47229,5.866836 -3.06081,12.290693 -4.80078,19.300781 -1.72325,6.971051 -2.72114,10.885897 -2.96094,11.794922 l -23.93555,91.031249 c -7.90238,6.41894 -14.18793,10.92494 -18.86133,13.56836 -4.66223,2.59323 -8.64464,3.91602 -11.92382,3.91602 -2.7215,0 -4.45082,-0.86493 -5.21485,-2.59375 -0.7696,-1.7344 -0.64024,-4.60158 0.40821,-8.61133 l 25.59179,-97.310549 c 0.23981,-0.909025 1.30507,-4.823871 3.24024,-11.794922 1.95189,-7.010088 3.74209,-13.433945 5.35937,-19.300781 z"
         transform="matrix(0.179313,0,0,-0.179313,216.483,356.728)" /><path
         id="path50"
         style="fill:#bf2323;fill-opacity:1;fill-rule:nonzero;stroke:none;stroke-width:0.557684"
         d="m 658.35156,60.615234 c -16.23418,0 -30.92935,3.049635 -44.10742,9.195313 -13.1725,6.145678 -20.70017,12.889136 -22.64648,20.261719 -0.46288,1.779012 -0.3852,3.328089 0.26172,4.599609 0.64133,1.277096 1.72862,1.914063 3.23437,1.914063 2.92784,0 7.44388,-2.956609 13.58398,-8.923829 1.45556,-1.416517 2.6283,-2.549038 3.42579,-3.324218 5.33146,-5.01358 10.51152,-8.516082 15.51953,-10.56836 5.008,-2.0467 10.85888,-3.044922 17.5957,-3.044922 7.71835,0 12.77609,1.862844 15.21875,5.59375 2.40362,3.736483 2.4701,9.977581 0.18359,18.671875 l -8.34179,31.738286 c -4.6957,-3.64168 -9.64863,-6.3242 -14.81836,-8.0586 -5.16416,-1.72882 -10.6566,-2.59375 -16.52344,-2.59375 -15.25824,0 -28.79932,4.87445 -40.64453,14.61719 -11.81733,9.74274 -19.8478,22.63006 -24.05274,38.61328 -4.44474,16.89783 -3.75332,30.466 2.04102,40.70508 5.78876,10.25023 15.6877,15.34766 29.72461,15.34766 6.5249,0 13.31189,-1.49995 20.31641,-4.50586 6.97105,-3.00034 14.65478,-7.78478 22.95312,-14.25391 l -3.56836,13.57422 h 60.64258 c -0.55768,-4.64551 -0.63115,-9.29096 -0.21289,-14.07031 0.44615,-4.74032 1.61785,-10.79734 3.55859,-18.16993 l 16.97071,-64.52929 c 2.05785,-7.82989 3.49105,-14.33816 4.35546,-19.625 0.8198,-5.236656 1.05861,-9.196425 0.63477,-11.839847 -0.61345,-3.641677 -1.76226,-6.965093 -3.50781,-10.015625 -1.72882,-3.005917 -4.21576,-6.011968 -7.4336,-9.0625 -4.16032,-3.825712 -10.15526,-6.780675 -17.88476,-8.966797 -7.73508,-2.191698 -16.5629,-3.279297 -26.47852,-3.279297 z m -27.37109,65.845706 c 3.45764,0 6.8377,0.95238 10.07226,2.86523 3.26803,1.91286 6.06234,4.55768 8.44922,7.97071 l -15.56054,59.15234 c -6.07318,4.9132 -11.52678,8.65029 -16.37305,11.1543 -4.86301,2.54861 -8.89516,3.82617 -12.10742,3.82617 -2.06343,0 -3.27453,-0.95991 -3.68164,-2.86719 -0.44057,-1.91286 -0.0447,-5.14685 1.15429,-9.70312 l 14.30079,-54.36915 c 1.6842,-6.41894 3.59091,-11.01991 5.73242,-13.84179 2.12477,-2.77727 4.80141,-4.1875 8.01367,-4.1875 z"
         transform="matrix(0.179313,0,0,-0.179313,216.483,356.728)" /><path
         id="path52"
         style="fill:#bf2323;fill-opacity:1;fill-rule:nonzero;stroke:none;stroke-width:0.557684"
         d="m 736.08789,66.080078 c -1.68978,6.686632 -3.32497,13.428443 -4.95898,20.304688 -1.61729,6.831629 -2.49895,10.428521 -2.59375,10.791015 l -16.59571,63.113279 -0.66992,2.54883 c -3.93167,14.94036 -5.97134,25.50335 -6.09961,31.69922 -0.13942,6.23491 1.01908,11.65497 3.40039,16.25586 1.9519,4.00417 5.28259,7.15074 10.05078,9.4707 4.72916,2.31997 10.29423,3.45703 16.71875,3.45703 7.95815,0 16.51864,-2.00227 25.71485,-6.05664 9.15717,-4.00417 19.20164,-10.19945 30.12109,-18.53125 -0.71941,2.73265 -2.19867,7.96967 -4.42383,15.6211 -0.69153,2.37015 -1.21506,4.23102 -1.5664,5.55273 l 56.59961,-0.13281 c 1.62843,-6.46914 3.24042,-13.11759 4.86328,-19.94922 1.62843,-6.87624 2.50313,-10.47344 2.60351,-10.83594 L 873.5,97.175781 c 0.0948,-0.362494 1.11091,-3.958047 3.10742,-10.878906 1.97978,-6.876244 3.89232,-13.619395 5.69922,-20.216797 h -56.56055 c -1.47228,5.866836 -3.0569,12.290693 -4.79687,19.300781 -1.72882,6.971051 -2.72113,10.885897 -2.96094,11.794922 l -23.9414,91.031249 c -7.90239,6.41894 -14.18236,10.92494 -18.86133,13.56836 -4.66224,2.59323 -8.63712,3.91602 -11.92188,3.91602 -2.7215,0 -4.45081,-0.86493 -5.21484,-2.59375 -0.76961,-1.7344 -0.64192,-4.60158 0.41211,-8.61133 l 25.58789,-97.310549 c 0.2398,-0.909025 1.3034,-4.823871 3.24414,-11.794922 1.94632,-7.010088 3.73818,-13.433945 5.35547,-19.300781 z"
         transform="matrix(0.179313,0,0,-0.179313,216.483,356.728)" /><path
         id="path54"
         style="fill:#bf2323;fill-opacity:1;fill-rule:nonzero;stroke:none;stroke-width:0.557684"
         d="m 907.49609,25.089844 c -1.47786,5.87799 -3.04906,12.252662 -4.75,19.128906 -1.70651,6.876244 -2.70466,10.79184 -2.92773,11.65625 L 864.74414,189.25 c -0.22865,0.86441 -1.30507,4.82945 -3.24023,11.79492 -1.94074,6.96548 -3.71948,13.34015 -5.31446,19.12891 h 56.56641 c 1.63959,-6.51375 3.24546,-13.16117 4.89062,-20.08203 1.6396,-6.87625 2.5274,-10.52392 2.60547,-10.8418 L 955.33008,55.875 c 0.0837,-0.31788 1.08745,-3.871188 3.04492,-10.658203 1.94632,-6.736823 3.85773,-13.473783 5.67578,-20.126953 z"
         transform="matrix(0.179313,0,0,-0.179313,216.483,356.728)" /><path
         d="m 390.337,319.801 -0.807,1.743 c -0.37,0.823 -0.604,1.527 -0.701,2.113 -0.097,0.582 -0.075,1.141 0.066,1.675 0.252,0.961 0.781,1.752 1.587,2.37 0.806,0.62 1.713,0.929 2.727,0.929 0.749,0 1.387,-0.17 1.91,-0.508 0.522,-0.337 0.743,-0.662 0.66,-0.978 -0.025,-0.093 -0.075,-0.174 -0.151,-0.244 -0.077,-0.067 -0.155,-0.103 -0.236,-0.103 -0.045,0 -0.26,0.203 -0.651,0.608 -0.39,0.405 -0.825,0.608 -1.305,0.608 -0.222,0 -0.419,-0.065 -0.591,-0.193 -0.17,-0.129 -0.283,-0.3 -0.34,-0.515 -0.075,-0.283 0.036,-0.727 0.334,-1.328 0.036,-0.077 0.063,-0.135 0.081,-0.18 l 1.042,-2.177 c 0.283,-0.592 0.461,-1.164 0.534,-1.72 0.073,-0.556 0.043,-1.09 -0.092,-1.608 -0.256,-0.971 -0.79,-1.765 -1.604,-2.376 -0.815,-0.614 -1.756,-0.92 -2.826,-0.92 -0.446,0 -0.883,0.09 -1.311,0.274 -0.426,0.18 -0.8,0.437 -1.122,0.768 -0.136,0.132 -0.227,0.264 -0.276,0.392 -0.05,0.129 -0.062,0.254 -0.029,0.38 0.028,0.106 0.08,0.199 0.148,0.273 0.072,0.074 0.143,0.112 0.222,0.112 0.096,0 0.211,-0.099 0.345,-0.302 0.135,-0.199 0.242,-0.344 0.32,-0.431 0.249,-0.263 0.502,-0.466 0.764,-0.604 0.261,-0.138 0.517,-0.206 0.769,-0.206 0.264,0 0.488,0.055 0.669,0.164 0.184,0.11 0.3,0.261 0.35,0.447 0.049,0.19 -0.08,0.627 -0.389,1.309 -0.038,0.09 -0.072,0.164 -0.097,0.228"
         style="fill:#bf2323;fill-opacity:1;fill-rule:nonzero;stroke:none;stroke-width:0.1"
         id="path56" /><path
         d="m 388.352,328.011 c -0.323,-0.393 -0.681,-0.685 -1.073,-0.885 -0.39,-0.196 -0.806,-0.296 -1.245,-0.296 -0.677,0 -1.165,0.209 -1.462,0.627 -0.297,0.418 -0.354,0.972 -0.172,1.663 0.183,0.694 0.532,1.251 1.049,1.672 0.517,0.421 1.115,0.63 1.793,0.63 0.752,0 1.289,-0.283 1.61,-0.852 0.321,-0.569 0.366,-1.299 0.132,-2.19 -0.268,-1.019 -0.782,-1.829 -1.543,-2.434 -0.761,-0.607 -1.654,-0.91 -2.677,-0.91 -0.116,0 -0.203,0 -0.261,0.003 -0.055,0.004 -0.11,0.01 -0.161,0.016 l 0.132,0.502 c 0.051,-0.006 0.11,-0.013 0.176,-0.016 0.066,-0.003 0.167,-0.003 0.302,-0.003 0.829,0 1.517,0.199 2.066,0.598 0.551,0.398 0.997,1.025 1.334,1.875"
         style="fill:#bf2323;fill-opacity:1;fill-rule:nonzero;stroke:none;stroke-width:0.1"
         id="path58" /></g></g></svg>
