<svg width="2280" height="1544" viewBox="0 0 2280 1544" fill="none" xmlns="http://www.w3.org/2000/svg">
<path fill-rule="evenodd" clip-rule="evenodd" d="M2268.33 1206.5H2069.36V1531.04H2268.33V1511.29H2110.3V1371.58H2249.99V1351.83H2110.3V1226.25H2268.33V1206.5ZM1892.98 657.567H1948.02V900.283H2213.29V657.567H2268.33V1162.75H2213.29V925.665H1948.02V1162.75H1892.98V657.567ZM1349.71 657.567H1638.98V682.975H1521.87V1162.75H1466.83V682.975H1349.71V657.567ZM519.984 657.567V1162.75H575.015V657.567H519.984ZM304.089 657.567V682.975H71.2689V900.283H289.978V925.665H71.2689V1162.75H16.2252V657.567H304.089ZM1204.36 657.567V682.975H971.539V900.283H1190.25V925.665H971.539V1162.75H916.495V657.567H1204.36ZM1349.71 15.5248V608.178H1414.61V303.389L1648.86 608.178H1733.51L1483.77 282.222L1699.67 15.5248H1643.2L1414.61 297.747V15.5248H1349.71ZM789.496 124.172L676.62 399.339H901.736L789.496 124.172ZM913.305 427.561H665.336L590.539 608.178H553.848L802.206 5.64182L1050.55 608.178H987.051L913.305 427.561ZM300.561 43.747C258.228 4.94144 213.067 0 176.389 0C139.697 0 74.0833 19.7529 43.0337 76.1974C11.9841 132.642 -4.94147 245.531 127.7 324.555C257.515 397.925 271.73 478.429 243.404 539.036C213.067 603.95 99.4781 629.345 21.1667 547.506L0 569.373C60.6726 631.472 105.12 629.345 147.453 629.345C189.787 629.345 263.169 609.592 299.848 536.209C336.539 462.839 322.428 344.308 212.354 279.395C102.293 214.494 62.7866 160.864 93.8233 90.3084C124.873 19.7529 225.064 13.3977 279.395 69.1418L300.561 43.747ZM1011.05 1206.5H812.089V1531.04H1011.05V1511.29H852.996V1371.58H992.693V1351.83H852.996V1226.25H1011.05V1206.5ZM1403.32 1206.5H1423.08V1540.92L1200.13 1248.82V1531.04H1180.38V1206.5H1217.06L1403.32 1452V1206.5ZM1857.69 1440.03C1857.69 1501.19 1808.09 1540.9 1746.94 1540.9C1685.76 1540.9 1636.16 1501.19 1636.16 1440.03V1206.5H1671.37V1437.19C1671.37 1459.29 1680.15 1480.48 1695.78 1496.11C1711.4 1511.73 1732.6 1520.51 1754.69 1520.51C1776.79 1520.51 1797.98 1511.73 1813.61 1496.11C1829.23 1480.48 1838.01 1459.29 1838.01 1437.19V1206.5H1857.72L1857.69 1440.03ZM383.101 1206.5H422.62L532.694 1468.96L644.156 1206.5H666.75L524.212 1543.74L383.101 1206.5ZM134.756 1275.63L74.0833 1419.57H194.858L134.756 1275.63ZM203.353 1439.32L242.003 1531.04H280.108L141.811 1199.43L2.11407 1531.04H27.5089L65.614 1439.32H203.353ZM2261.98 43.747C2219.65 4.94144 2174.48 0 2137.81 0C2101.13 0 2035.49 19.7529 2004.46 76.1974C1973.4 132.642 1956.49 245.531 2089.12 324.555C2218.95 397.925 2233.15 478.429 2204.83 539.036C2174.48 603.95 2060.9 629.345 1982.57 547.506L1961.42 569.373C2022.09 631.472 2066.54 629.345 2108.87 629.345C2151.2 629.345 2224.59 609.592 2261.27 536.209C2297.97 462.839 2283.83 344.308 2173.77 279.395C2063.71 214.494 2024.22 160.864 2055.24 90.3084C2086.3 19.7529 2186.48 13.3977 2240.8 69.1418L2261.98 43.747Z" fill="black"/>
</svg>
