<svg width="1785" height="502" viewBox="0 0 1785 502" fill="none" xmlns="http://www.w3.org/2000/svg">
<path d="M1019.04 38.9143L1019.58 38.8731C1027.24 38.3103 1034.58 37.9223 1040.93 43.0839C1047.64 48.5269 1046.48 69.582 1044.56 77.6722C1039.23 100.166 1027.92 119.796 1021.55 143.043C1001.6 215.952 988.008 296.413 990.974 372.178C991.171 377.075 991.7 388.585 995.14 391.643C998.778 391.686 1006.46 388.525 1007.25 384.954C1010.49 370.497 1009.4 354.202 1012.67 339.586C1020.49 304.581 1040.76 267.613 1069.93 246.13C1082.53 236.854 1098.56 234.493 1112.54 240.925C1127.62 246.607 1127.46 258.243 1128.82 271.765C1132.89 312.139 1113.29 345.638 1079.21 366.49C1071.43 371.256 1062.53 375.589 1054.68 380.679C1057.76 389.501 1061.26 394.97 1071.52 396.105C1088.9 398.024 1106.12 390.139 1119.82 379.972C1125.8 339.969 1132.9 299.982 1144.61 261.205C1158.35 215.692 1178.93 168.083 1212.41 133.761C1217.8 128.23 1223.42 122.136 1230.34 118.511C1233.7 116.754 1238.07 115.43 1241.77 116.865C1246.8 118.809 1250.84 123.626 1253.14 128.349C1275.94 175.076 1213.44 309.134 1188.23 352.249C1183.84 359.748 1179.28 367.252 1174.31 374.384C1169.48 381.322 1158.96 390.8 1156.81 398.941C1156.15 401.464 1156.59 402.188 1157.86 404.241C1161.74 406.138 1165.72 407.007 1170.06 406.529C1201.83 403.024 1248.04 320.829 1268.05 296.442C1272 291.626 1278.41 283.846 1285.03 283.39C1288.74 283.133 1293.95 284.206 1296.72 286.812C1304.49 294.106 1306.26 313.462 1306.09 323.726C1311.19 313.973 1322.37 290.361 1333.64 290.447C1353.11 290.593 1351.02 329.896 1350.82 341.213C1363.22 316.216 1372.4 288.92 1395.03 270.825C1407.33 260.998 1421.63 262.096 1431.22 274.846C1438.37 284.349 1434.93 299.565 1432.82 310.366C1422.06 346.831 1409.35 372.358 1422.1 413.389C1424.97 422.623 1431.27 437.689 1430.47 447.093C1429.64 448.528 1429.55 449.152 1427.78 449.613C1422.83 450.896 1415.11 447.146 1410.93 444.833C1404.65 441.363 1400.45 434.126 1397.56 427.788C1377.08 382.807 1407.81 315.785 1404.86 307.337C1404.43 306.091 1403.89 306.099 1402.74 305.543C1384.98 310.475 1346.59 416.547 1330.35 430.757C1325.23 434.899 1316.86 437.798 1310.37 436.688C1292.44 433.621 1299.72 405.937 1301.97 393.615C1294.48 403.414 1290.08 415.592 1280.55 423.85C1276.52 427.343 1264.25 432.075 1261.51 425.755C1253.64 407.59 1262.73 382.83 1269.39 365.473C1272.03 358.587 1280.44 344.848 1281.11 338.94C1280.01 336.38 1280.61 337.26 1277.89 335.626C1255.96 333.698 1209.04 438.659 1182.66 447.538C1153.5 457.354 1145.12 448.698 1132.73 423.041C1113.42 434.666 1099.36 454.85 1072.7 450.825C1052.63 447.795 1039.29 436.553 1027.69 421.087C1020.56 428.304 1010.91 439.352 1001.18 442.164C970.536 451.013 967.741 404.207 963.279 384.531C960.098 370.496 959.892 354.42 958.61 340.053C958.422 337.612 957.804 314.766 958.234 315.931C953.638 323.442 950.072 339.501 946.38 348.233C926.991 394.132 900.783 454.631 842.749 457.07C808.909 457.102 801.55 426.083 801.635 398.76C801.776 353.974 818.655 314.298 849.707 282.15C872.12 258.95 899.278 260.453 921.409 283.529C959.972 232.351 969.855 199.278 984.308 138.53C988.823 119.736 993.787 101.052 999.181 82.4932C1002.57 70.7344 1008.75 45.4237 1019.04 38.9143ZM845.727 411.056C866.317 400.019 884.153 360.104 890.766 338.352C892.253 333.44 899.457 310.405 890.846 307.38C889.941 307.061 885.201 307.682 883.813 307.849C854.069 319.68 813.988 408.517 845.727 411.056ZM1159.39 349.046C1171.82 325.27 1229.08 198.411 1223.26 175.677C1219.09 182.079 1216.31 188.882 1212.91 195.89C1190.43 242.258 1169.57 289.682 1160.06 340.633C1159.65 342.769 1159.09 347.005 1159.39 349.046ZM1054.9 332.895C1070.38 323.356 1085.73 313.363 1094.86 297.12C1096.33 294.522 1099.38 290.044 1099.18 287.152C1082.4 291.781 1068.41 299.152 1059.37 314.673C1057.22 318.341 1053.5 328.98 1054.9 332.895Z" fill="#221F1F"/>
<path d="M223.447 0.463349C230.655 -0.156763 236.999 -0.701591 243.704 2.67407C250.908 6.30155 255.188 13.2411 257.563 20.7272C271.458 64.5033 218.946 175.239 197.805 216.597C214.917 247.944 225.688 290.454 226.149 326.425C226.998 367.641 206.569 406.559 177.412 434.963C150.771 460.913 100.103 497.743 66.4886 462.78C51.0924 482.868 40.942 490.671 18.549 501.843C14.2576 500.737 10.5015 499.627 6.27786 498.283C-16.3454 481.657 28.4281 445.22 41.9566 430.403C34.7171 414.829 32.0835 403.129 32.5371 385.781C32.7965 375.859 33.8349 358.834 41.1665 351.713C50.6673 348.426 54.3446 364.98 55.8461 371.55C58.3913 382.687 60.5466 391.54 65.6679 401.891C71.9999 391.599 81.2125 372.192 86.6557 360.902C93.8989 346.03 101.23 331.202 108.649 316.418C118.022 297.514 127.491 278.657 137.055 259.848C146.096 242.439 154.875 226.757 163.311 208.809C141.603 179.754 144.55 131.194 155.388 98.7027C166.213 66.2561 191.81 16.7547 223.447 0.463349ZM99.3914 434.196C132.055 425.513 155.121 414.267 173.027 383.253C193.398 347.972 192.303 295.857 183.88 257.099C183.591 255.766 183.02 255.27 182.112 254.368C160.638 296.874 139.393 339.496 118.38 382.232C112.697 393.897 107.093 405.6 101.57 417.342C99.4783 421.705 94.9589 429.875 93.7153 433.963L94.4303 434.986C96.8011 434.897 97.1855 434.958 99.3914 434.196ZM179.721 169.489C202.234 154.68 230.868 78.6888 239.401 51.032C241.728 43.4894 242.241 26.9821 229.803 27.9463C191.019 42.9724 174.134 109.142 169.622 146.069C168.785 152.916 168.044 164.972 174.092 169.513C176.744 170.222 177.068 170.204 179.721 169.489Z" fill="#221F1F"/>
<path d="M299.916 260.413C328.648 256.893 334.337 286.407 339.877 308.122C342.494 304.588 343.731 302.137 347.801 300.64C357.172 301.955 355.365 318.184 354.101 324.865C348.16 356.268 350.584 387.341 354.063 418.822C376.969 401.859 398.936 363.542 414.542 338.829C421.962 327.08 437.345 281.858 458.859 295.118C468.091 300.809 471.115 317.242 472.718 327.475C476 321.933 480.694 311.026 485.477 307.329C516.912 283.03 517.413 334.789 517.361 349.779C527.543 330.164 534.696 307.109 555.761 296.295C571.95 287.983 589.922 306.038 591.917 321.431C595.879 352.003 580.965 381.686 573.568 410.723C569.512 426.579 566.459 442.024 566.054 458.43C564.695 458.053 563.341 457.655 561.994 457.238C528.129 446.671 545.633 392.206 553.536 368.718C556.605 361.342 564.716 344.129 560.922 337.081L559.188 336.844C547.75 341.242 534.253 375.133 529.505 386.533C521.947 404.677 520.935 436.165 495.675 438.805C476.823 440.776 478.231 412.643 478.399 400.157C474.674 408.662 454.056 457.122 441.552 428.551C431.607 405.83 444.078 370.734 452.033 348.19C448.914 339.646 439.011 347.415 435.406 352.238C415.493 378.88 391.733 448.61 358.953 458.044C352.054 460.072 344.623 459.154 338.425 455.508C327.244 449.067 323.655 436.166 320.403 424.664C308.857 445.541 294.077 455.451 270.105 446.035C259.372 441.819 251.454 432.883 247.323 422.254C230.572 379.146 255.744 277.903 299.916 260.413ZM285.611 417.202C321.809 404.828 337.305 298.515 302.916 297.584C276.166 313.052 245.548 422.835 285.611 417.202Z" fill="#221F1F"/>
<path d="M1608.14 264.62C1633.02 270.296 1649.83 349.886 1653.92 373.907C1658.64 355.916 1669.65 278.131 1682.19 268.975C1685.08 266.868 1689.19 266.039 1692.71 266.587C1718.37 270.592 1723.56 336.788 1727.29 357.206C1729.39 368.621 1732.18 380.108 1736.27 390.973C1743.15 409.208 1751.73 427.331 1763.24 443.143C1768.56 450.459 1774.68 457.175 1780.12 464.402C1782.78 467.941 1784.78 471.669 1784.13 476.222C1782.98 477.432 1782.22 478.559 1780.26 478.447C1720.95 475.04 1706.95 394.9 1699.78 347.941C1693.14 370.817 1691.64 401.306 1680.98 423.034C1677.36 430.426 1672.45 433.134 1664.86 435.113C1661.13 434.347 1656.21 433.408 1653.02 431.464C1633.87 419.768 1625.96 381.777 1620.89 360.94L1620.28 360.338C1619.69 392.325 1613.58 473.836 1563.52 457.013C1545.17 450.846 1537 433.921 1529.4 417.944C1526.3 429.569 1523.14 439.172 1513.05 446.633C1494.35 460.465 1468.24 452.183 1455.86 434.219C1433.68 402.037 1433.59 358.844 1438.83 321.6C1441.53 302.423 1451.66 264.258 1477.3 267.746C1492.38 270.154 1505.71 287.854 1514.27 299.927C1516.08 296.007 1517.25 292.38 1521.82 291.286C1525.45 291.9 1528.62 295.191 1529.93 299.155C1533.82 310.933 1532.93 322.502 1536.26 334.777C1543.82 362.632 1553.35 396.427 1567.9 421.624C1568.69 423.004 1570.41 422.669 1571.57 422.593C1584.36 412.88 1586.01 319.577 1589.13 298.848C1590.93 286.841 1594.72 269.987 1607.28 264.959L1608.14 264.62ZM1492.7 421.435C1519.8 399.243 1514.67 309.221 1478.18 300.099C1455.96 316.427 1454.95 434.558 1492.7 421.435Z" fill="#221F1F"/>
<path d="M961.361 0.448691C984.711 -2.28894 972.104 23.2996 965.922 34.2475C952.428 58.137 944.248 82.2254 939.857 109.245C936.184 131.865 948.333 162.05 926.991 178.604C921.005 183.079 914.913 175.627 912.583 170.412C901.831 146.389 901.777 112.694 909.913 88.4651C898.794 90.6525 888.696 93.4206 878.347 98.2408C829.349 121.073 799.034 183.072 781.412 231.519C808.552 229.496 843.127 234.903 824.578 272.401C817.72 286.264 801.669 302.763 787.268 308.116C777.904 311.597 769.163 308.057 760.744 303.646C735.418 328.813 683.255 398.996 706.404 436.967C722.368 451.823 747.266 449.551 767.335 447.411C789.515 445.047 787.121 467.301 773.433 475.117C699.261 517.471 659.591 476.073 672.188 397.279C678.871 355.481 695.255 325.664 721.513 292.07C728.581 282.876 739.339 273.289 745 262.901C750.117 248.194 752.309 232.668 757.164 217.724C780.104 147.094 826.635 35.4509 918.443 50.3704C933.307 28.6933 932.34 14.4765 961.361 0.448691Z" fill="#221F1F"/>
</svg>
